<svg width="1263" height="619" fill="none" xmlns="http://www.w3.org/2000/svg"><g style="mix-blend-mode:multiply" opacity=".3"><path d="M272.711 522.926L257.005 489.3a131.487 131.487 0 00-6.237-95.583 131.565 131.565 0 00-69.435-66.013 131.64 131.64 0 00-95.814-1.435 131.575 131.575 0 00-71.383 63.902 131.49 131.49 0 00-9.1 95.354 131.543 131.543 0 0058.011 76.24 131.633 131.633 0 0094.358 16.698 131.6 131.6 0 0080.668-51.7l34.638-3.837zM471.514 71.765A131.447 131.447 0 00343.877 57.4a131.388 131.388 0 00-52.682 40.358 131.299 131.299 0 00-19.309 126.933 131.345 131.345 0 0038.301 54.187 131.438 131.438 0 00126.14 24.207l30.382 17.087 6.869-36.463a131.483 131.483 0 0039.044-46.964 131.43 131.43 0 00-1.157-118.784 131.478 131.478 0 00-39.951-46.195zm613.216 246.407a131.41 131.41 0 00-59.4 14.188 131.295 131.295 0 00-70.228 95.787 131.263 131.263 0 004.357 60.895l-15.707 33.883 34.639 3.837a131.38 131.38 0 00116.539 53.797 131.413 131.413 0 0062.69-21.682 131.316 131.316 0 0044.1-49.533 131.303 131.303 0 0014.26-64.756 131.202 131.202 0 00-19.21-63.466 131.276 131.276 0 00-47.78-45.994 131.384 131.384 0 00-64.17-16.795l-.09-.161zM928.303 101.877a131.378 131.378 0 00-41.782-37.523 131.428 131.428 0 00-109.335-9.395 131.402 131.402 0 00-47.575 29.844 131.334 131.334 0 00-30.761 46.977 131.286 131.286 0 007.304 109.452 131.364 131.364 0 0036.731 42.476l6.87 36.463 30.349-17.087a131.452 131.452 0 0081.228.536 131.405 131.405 0 0066.021-47.304 131.316 131.316 0 0025.583-77.065 131.314 131.314 0 00-24.633-77.374z" fill="#fff" opacity=".3"/><path d="M273.549 521.926l-15.707-33.593a131.558 131.558 0 00-6.496-95.628 131.633 131.633 0 00-69.665-65.86 131.7 131.7 0 00-95.879-1.157 131.633 131.633 0 00-71.235 64.159 131.555 131.555 0 00-8.804 95.443 131.606 131.606 0 0058.296 76.099 131.697 131.697 0 0094.474 16.389 131.653 131.653 0 0080.538-52.015l34.478-3.837zM472.353 70.96a131.441 131.441 0 00-127.637-14.366 131.392 131.392 0 00-52.683 40.357 131.3 131.3 0 00-19.309 126.934 131.35 131.35 0 0038.301 54.186 131.43 131.43 0 00126.14 24.207l30.382 17.055 6.967-36.463a131.355 131.355 0 0039.098-46.934 131.307 131.307 0 00-41.13-164.977h-.129zm613.217 246.375a131.534 131.534 0 00-59.38 14.231 131.458 131.458 0 00-70.217 95.757 131.394 131.394 0 004.292 60.881l-15.707 33.594 34.639 3.836a131.384 131.384 0 0051.253 42.139 131.455 131.455 0 0065.32 11.725 131.4 131.4 0 0062.72-21.68 131.413 131.413 0 0044.13-49.555 131.31 131.31 0 00-4.97-128.28 131.317 131.317 0 00-47.81-46.002 131.435 131.435 0 00-64.21-16.775l-.06.129zM929.271 101.071a131.385 131.385 0 00-41.772-37.588 131.432 131.432 0 00-109.398-9.464 131.408 131.408 0 00-47.61 29.857 131.305 131.305 0 0013.394 198.994l6.837 36.463 30.382-17.055a131.403 131.403 0 0081.24.559 131.36 131.36 0 0066.032-47.309 131.273 131.273 0 00.895-154.457z" fill="#FAFAFA" opacity=".3"/><path d="M274.549 521.121l-15.868-33.658a131.49 131.49 0 00-6.236-95.584 131.57 131.57 0 00-69.435-66.012 131.642 131.642 0 00-95.814-1.436 131.573 131.573 0 00-71.383 63.903 131.49 131.49 0 00-9.1 95.354 131.543 131.543 0 0058.01 76.24 131.63 131.63 0 0094.358 16.697 131.589 131.589 0 0080.668-51.7l34.8-3.804zm198.642-451a131.447 131.447 0 00-127.637-14.366 131.389 131.389 0 00-52.682 40.358 131.299 131.299 0 00-19.309 126.934 131.342 131.342 0 0038.301 54.186 131.421 131.421 0 0059.909 28.561 131.45 131.45 0 0066.231-4.354l30.382 17.055 6.837-36.431a131.413 131.413 0 0039.083-46.948 131.36 131.36 0 00-1.139-118.804 131.422 131.422 0 00-39.976-46.19zM1086.4 316.593a131.465 131.465 0 00-105.929 53.72 131.373 131.373 0 00-19.367 117.149l-15.707 33.659 34.639 3.836a131.387 131.387 0 0051.254 42.139 131.435 131.435 0 00128.04-9.955 131.31 131.31 0 0044.12-49.555 131.21 131.21 0 0014.27-64.787 131.306 131.306 0 00-19.23-63.493 131.387 131.387 0 00-47.81-46.002 131.475 131.475 0 00-64.21-16.776l-.07.065zm-156.452-216.36a131.383 131.383 0 00-41.782-37.522 131.434 131.434 0 00-156.91 20.449 131.333 131.333 0 00-30.761 46.976 131.286 131.286 0 007.304 109.452 131.342 131.342 0 0036.731 42.476l6.869 36.431 30.382-17.055a131.41 131.41 0 0081.24.559 131.362 131.362 0 0066.033-47.309 131.28 131.28 0 0025.569-77.083 131.282 131.282 0 00-24.675-77.374z" fill="#F5F5F5" opacity=".3"/><path d="M275.194 520.282l-15.707-33.626a131.486 131.486 0 00-6.236-95.583 131.568 131.568 0 00-69.435-66.013 131.636 131.636 0 00-95.814-1.435 131.574 131.574 0 00-71.383 63.902 131.49 131.49 0 00-9.1 95.354 131.543 131.543 0 0058.01 76.24 131.63 131.63 0 0094.358 16.698 131.595 131.595 0 0080.668-51.701l34.639-3.836zM473.997 69.283a131.44 131.44 0 00-127.684-14.486 131.383 131.383 0 00-52.729 40.353 131.31 131.31 0 0019.009 181.195 131.42 131.42 0 0059.956 28.54 131.45 131.45 0 0066.261-4.412l30.382 17.087 6.87-36.431a131.49 131.49 0 0039.043-46.964 131.43 131.43 0 00-1.156-118.784 131.492 131.492 0 00-39.952-46.195v.097zM1087.31 315.69a131.41 131.41 0 00-59.4 14.188 131.364 131.364 0 00-46.567 39.505 131.273 131.273 0 00-19.304 117.177l-15.706 33.625 34.542 3.934a131.376 131.376 0 0051.245 42.097 131.438 131.438 0 0065.3 11.699 131.364 131.364 0 0062.68-21.681 131.316 131.316 0 0044.1-49.533 131.194 131.194 0 0014.26-64.756 131.184 131.184 0 00-19.2-63.466 131.364 131.364 0 00-111.95-62.789zM930.786 99.394a131.38 131.38 0 00-41.752-37.69 131.438 131.438 0 00-157.155 20.297 131.353 131.353 0 00-30.798 47.06 131.296 131.296 0 007.46 109.611 131.358 131.358 0 0036.892 42.457l6.837 36.463 30.382-17.087a131.44 131.44 0 0081.3.65 131.387 131.387 0 0066.12-47.293 131.306 131.306 0 00.94-154.564l-.226.096z" fill="#F0F0F0" opacity=".3"/><path d="M276.033 519.443l-15.707-33.593a131.557 131.557 0 00-6.191-95.64 131.638 131.638 0 00-69.443-66.081 131.702 131.702 0 00-95.866-1.476 131.637 131.637 0 00-71.446 63.912 131.554 131.554 0 00-9.135 95.403 131.61 131.61 0 0058.021 76.298 131.7 131.7 0 0094.406 16.728 131.659 131.659 0 0080.722-51.714l34.639-3.837zM474.836 68.348a131.441 131.441 0 00-127.637-14.366 131.392 131.392 0 00-52.683 40.357 131.3 131.3 0 00-19.308 126.934 131.333 131.333 0 0038.301 54.186 131.412 131.412 0 0059.909 28.561 131.45 131.45 0 0066.231-4.354l30.381 17.055 6.838-36.463a131.355 131.355 0 0039.098-46.934 131.304 131.304 0 00-1.139-118.8 131.359 131.359 0 00-39.991-46.176zm613.214 246.503a131.493 131.493 0 00-59.37 14.231 131.48 131.48 0 00-46.547 39.502 131.412 131.412 0 00-23.677 56.255 131.38 131.38 0 004.293 60.881l-15.707 33.594 34.639 3.836a131.435 131.435 0 00179.299 32.184 131.391 131.391 0 0044.12-49.554 131.433 131.433 0 0014.27-64.788 131.309 131.309 0 00-19.23-63.493 131.353 131.353 0 00-47.82-46.002 131.428 131.428 0 00-64.21-16.775l-.06.129zM931.593 98.589A131.382 131.382 0 00889.821 61a131.43 131.43 0 00-109.398-9.463 131.406 131.406 0 00-47.61 29.857 131.338 131.338 0 00-30.774 47.011 131.302 131.302 0 007.371 109.516 131.35 131.35 0 0036.797 42.467l6.837 36.463 30.382-17.055a131.417 131.417 0 0081.24.559 131.36 131.36 0 0066.032-47.309 131.276 131.276 0 00.895-154.457z" fill="#EBEBEB" opacity=".3"/><path d="M276.839 518.638l-15.674-33.626a131.657 131.657 0 00-6.35-95.703 131.73 131.73 0 00-69.606-66.018 131.8 131.8 0 00-95.942-1.317 131.73 131.73 0 00-71.392 64.083 131.65 131.65 0 00-8.977 95.492 131.703 131.703 0 0058.2 76.255 131.79 131.79 0 0094.509 16.571 131.753 131.753 0 0080.69-51.901l34.542-3.836zM475.674 67.64a131.447 131.447 0 00-127.637-14.366 131.389 131.389 0 00-52.682 40.357 131.299 131.299 0 00-19.309 126.933 131.354 131.354 0 0038.301 54.187 131.438 131.438 0 00126.14 24.207l30.382 17.087 6.87-36.463a131.429 131.429 0 0039.082-46.948 131.367 131.367 0 00-1.139-118.804 131.427 131.427 0 00-39.975-46.19h-.033zm613.216 246.405a131.555 131.555 0 00-59.39 14.218 131.466 131.466 0 00-46.546 39.502 131.365 131.365 0 00-19.366 117.15l-15.707 33.626 34.639 3.836a131.314 131.314 0 0051.25 42.098 131.39 131.39 0 0065.29 11.699 131.4 131.4 0 0062.69-21.681 131.4 131.4 0 0044.1-49.533 131.415 131.415 0 0014.26-64.756 131.31 131.31 0 00-66.99-109.461 131.383 131.383 0 00-64.17-16.794l-.06.096zM932.496 97.75a131.38 131.38 0 00-41.782-37.522 131.434 131.434 0 00-156.91 20.45 131.333 131.333 0 00-30.761 46.976 131.286 131.286 0 007.304 109.452 131.375 131.375 0 0036.731 42.476l6.87 36.463 30.381-17.087a131.417 131.417 0 0081.24.559 131.358 131.358 0 0066.033-47.31 131.277 131.277 0 0025.569-77.082 131.283 131.283 0 00-24.675-77.374z" fill="#E6E6E6" opacity=".3"/><path d="M277.775 517.8l-15.804-33.562a131.492 131.492 0 00-6.236-95.583 131.567 131.567 0 00-69.436-66.013 131.64 131.64 0 00-95.813-1.435 131.575 131.575 0 00-71.384 63.902 131.491 131.491 0 00-9.099 95.354 131.543 131.543 0 0058.01 76.24 131.632 131.632 0 0094.358 16.698 131.6 131.6 0 0080.668-51.7l34.736-3.901zm198.706-451a131.443 131.443 0 00-127.637-14.366 131.39 131.39 0 00-52.682 40.358 131.305 131.305 0 0018.992 181.12 131.422 131.422 0 0059.909 28.561 131.45 131.45 0 0066.231-4.354l30.381 17.087 6.87-36.463a131.447 131.447 0 0039.06-46.959 131.398 131.398 0 00-1.157-118.794 131.466 131.466 0 00-39.967-46.19zm613.209 246.568a131.487 131.487 0 00-105.93 53.72 131.365 131.365 0 00-19.366 117.15l-15.772 33.561 34.639 3.837a131.38 131.38 0 00116.539 53.797 131.413 131.413 0 0062.69-21.682 131.316 131.316 0 0044.1-49.533 131.194 131.194 0 0014.26-64.756 131.199 131.199 0 00-19.21-63.466 131.287 131.287 0 00-47.78-45.995 131.394 131.394 0 00-64.17-16.794v.161zM933.27 96.912a131.38 131.38 0 00-41.782-37.523 131.435 131.435 0 00-156.91 20.45 131.334 131.334 0 00-30.761 46.976 131.286 131.286 0 007.304 109.452 131.352 131.352 0 0036.731 42.476l6.837 36.463 30.382-17.087a131.41 131.41 0 0081.254.582 131.364 131.364 0 0066.053-47.307 131.286 131.286 0 0025.577-77.096 131.28 131.28 0 00-24.685-77.386z" fill="#E1E1E1" opacity=".3"/><path d="M278.516 516.961l-15.707-33.594a131.55 131.55 0 00-6.19-95.639 131.63 131.63 0 00-69.443-66.081 131.704 131.704 0 00-95.866-1.476 131.636 131.636 0 00-71.446 63.911 131.556 131.556 0 00-9.135 95.404 131.61 131.61 0 0058.021 76.298 131.7 131.7 0 0094.406 16.728 131.66 131.66 0 0080.721-51.714l34.639-3.837zM477.319 65.995a131.442 131.442 0 00-127.676-14.373 131.389 131.389 0 00-52.69 40.384 131.295 131.295 0 00-19.251 126.982 131.342 131.342 0 0038.355 54.176 131.436 131.436 0 00126.204 24.085l30.382 17.055 6.708-36.399a131.317 131.317 0 0052.735-106.47 131.297 131.297 0 00-14.776-59.264 131.359 131.359 0 00-39.991-46.176zM1090.53 312.37a131.524 131.524 0 00-59.37 14.231 131.468 131.468 0 00-46.543 39.502 131.4 131.4 0 00-19.385 117.136l-15.707 33.594 34.575 3.965a131.334 131.334 0 0051.26 42.139 131.435 131.435 0 00128.04-9.955 131.47 131.47 0 0044.12-49.555 131.31 131.31 0 0014.26-64.787 131.19 131.19 0 00-19.22-63.493 131.418 131.418 0 00-112.03-62.777zM934.076 96.106a131.369 131.369 0 00-41.773-37.559 131.433 131.433 0 00-156.961 20.408 131.307 131.307 0 00-23.444 156.475 131.35 131.35 0 0036.76 42.475l6.837 36.463 30.382-17.055a131.41 131.41 0 0081.24.559 131.362 131.362 0 0066.033-47.309 131.272 131.272 0 00.894-154.457h.032z" fill="#DCDCDC" opacity=".3"/><path d="M279.323 516.155l-15.675-33.626a131.65 131.65 0 00-6.167-95.71 131.723 131.723 0 00-69.472-66.15 131.8 131.8 0 00-95.934-1.508 131.732 131.732 0 00-71.52 63.933 131.653 131.653 0 00-9.174 95.469 131.702 131.702 0 0058.036 76.374 131.791 131.791 0 0094.467 16.775 131.759 131.759 0 0080.8-51.721l34.639-3.836zM478.158 65.124a131.446 131.446 0 00-127.637-14.366 131.39 131.39 0 00-52.682 40.357A131.299 131.299 0 00278.53 218.05a131.345 131.345 0 0038.301 54.187 131.438 131.438 0 00126.14 24.207l30.382 17.087 6.837-36.463a131.421 131.421 0 0039.083-46.948 131.367 131.367 0 00-1.139-118.804 131.418 131.418 0 00-39.976-46.191zm613.182 246.439a131.51 131.51 0 00-59.37 14.229 131.442 131.442 0 00-46.542 39.504 131.362 131.362 0 00-19.357 117.137l-15.707 33.625 34.639 3.837a131.374 131.374 0 00116.537 53.797c22.41-1.748 44-9.213 62.69-21.681a131.326 131.326 0 0044.1-49.534 131.194 131.194 0 0014.26-64.756 131.298 131.298 0 00-19.2-63.466 131.354 131.354 0 00-47.78-45.994 131.412 131.412 0 00-64.17-16.795l-.1.097zM934.915 95.267a131.38 131.38 0 00-41.782-37.522 131.434 131.434 0 00-156.91 20.45 131.332 131.332 0 00-30.761 46.975 131.288 131.288 0 007.304 109.453 131.36 131.36 0 0036.731 42.475l6.869 36.463 30.382-17.087a131.41 131.41 0 0081.24.56 131.37 131.37 0 0066.033-47.31 131.278 131.278 0 0025.569-77.083 131.284 131.284 0 00-24.675-77.374z" fill="#D7D7D7" opacity=".3"/><path d="M280.161 515.317l-15.707-33.626a131.49 131.49 0 00-6.236-95.584 131.57 131.57 0 00-69.435-66.012 131.641 131.641 0 00-95.814-1.436 131.573 131.573 0 00-71.383 63.903 131.491 131.491 0 00-9.1 95.354 131.543 131.543 0 0058.01 76.24 131.63 131.63 0 0094.358 16.697 131.593 131.593 0 0080.668-51.7l34.639-3.836zM478.964 64.318a131.441 131.441 0 00-127.636-14.366 131.385 131.385 0 00-52.683 40.357 131.299 131.299 0 00-19.309 126.934 131.36 131.36 0 0038.301 54.187 131.418 131.418 0 0059.91 28.56 131.457 131.457 0 0066.23-4.353l30.382 17.087 6.805-36.463a131.456 131.456 0 0039.06-46.959 131.4 131.4 0 00-1.157-118.794 131.463 131.463 0 00-39.967-46.19h.064zm613.216 246.406a131.542 131.542 0 00-59.39 14.218 131.466 131.466 0 00-46.546 39.502 131.377 131.377 0 00-19.367 117.15L951.17 515.22l34.671 3.836a131.387 131.387 0 00116.539 53.797 131.422 131.422 0 0062.69-21.681 131.319 131.319 0 0044.1-49.534 131.192 131.192 0 0014.26-64.755 131.202 131.202 0 00-19.21-63.467 131.276 131.276 0 00-47.78-45.994 131.395 131.395 0 00-64.17-16.795l-.09.097zM935.721 94.43a131.37 131.37 0 00-41.782-37.523 131.429 131.429 0 00-109.335-9.395 131.4 131.4 0 00-47.575 29.844 131.335 131.335 0 00-30.761 46.977 131.308 131.308 0 007.304 109.452 131.375 131.375 0 0036.731 42.476l6.837 36.462 30.382-17.086a131.421 131.421 0 0081.255.582 131.367 131.367 0 0066.052-47.308 131.274 131.274 0 00.892-154.481z" fill="#D2D2D2" opacity=".3"/><path d="M281 514.479l-15.707-33.465a131.554 131.554 0 00-6.191-95.639 131.63 131.63 0 00-69.443-66.081 131.698 131.698 0 00-95.866-1.477 131.637 131.637 0 00-71.446 63.912 131.554 131.554 0 00-9.135 95.403 131.606 131.606 0 0058.021 76.298 131.7 131.7 0 0094.406 16.728 131.661 131.661 0 0080.722-51.714L281 514.479zM479.803 63.512a131.441 131.441 0 00-127.637-14.366 131.386 131.386 0 00-52.683 40.358 131.299 131.299 0 00-19.309 126.933 131.354 131.354 0 0038.301 54.187 131.434 131.434 0 00126.14 24.207l30.382 17.055 6.838-36.463a131.358 131.358 0 0039.098-46.935 131.301 131.301 0 00-1.139-118.799 131.355 131.355 0 00-39.991-46.177zm613.217 246.375a131.56 131.56 0 00-59.38 14.231 131.478 131.478 0 00-46.54 39.502 131.395 131.395 0 00-19.384 117.137l-15.707 33.594 34.639 3.836a131.381 131.381 0 0051.252 42.139 131.455 131.455 0 0065.32 11.725 131.42 131.42 0 00106.85-71.235 131.312 131.312 0 00-4.97-128.281 131.314 131.314 0 00-47.81-46.001 131.447 131.447 0 00-64.21-16.776l-.06.129zM936.56 93.624a131.383 131.383 0 00-41.772-37.589A131.433 131.433 0 00737.78 76.43a131.305 131.305 0 0013.394 198.994l6.837 36.463 30.382-17.055a131.417 131.417 0 0081.24.559 131.36 131.36 0 0066.032-47.309 131.276 131.276 0 00.895-154.457z" fill="#CDCDCD" opacity=".3"/><path d="M281.806 513.673l-15.707-33.626a131.486 131.486 0 00-6.236-95.583 131.568 131.568 0 00-69.435-66.013 131.641 131.641 0 00-95.814-1.435 131.573 131.573 0 00-71.383 63.903 131.488 131.488 0 00-9.1 95.353 131.548 131.548 0 0058.01 76.241A131.636 131.636 0 00166.5 569.21a131.597 131.597 0 0080.668-51.7l34.639-3.837zM480.609 62.674a131.44 131.44 0 00-127.632-14.31 131.39 131.39 0 00-52.663 40.373 131.295 131.295 0 00-19.27 126.929 131.34 131.34 0 0038.309 54.173 131.45 131.45 0 00126.134 24.186l30.381 17.087 6.806-36.431a131.419 131.419 0 0039.075-46.954 131.37 131.37 0 00-1.157-118.804 131.42 131.42 0 00-39.983-46.185v-.064zm613.151 246.407a131.398 131.398 0 00-105.967 53.693A131.259 131.259 0 00968.49 479.95l-15.707 33.626 34.639 3.837a131.378 131.378 0 00116.538 53.796 131.4 131.4 0 0062.69-21.681 131.316 131.316 0 0044.1-49.533 131.194 131.194 0 0014.26-64.756 131.199 131.199 0 00-19.21-63.466 131.21 131.21 0 00-47.78-45.995 131.394 131.394 0 00-64.17-16.794l-.09.097zM937.398 92.786a131.37 131.37 0 00-41.804-37.359A131.436 131.436 0 00738.93 76.004a131.322 131.322 0 00-39.108 102.308 131.294 131.294 0 0015.502 53.868 131.358 131.358 0 0036.559 42.501l6.87 36.463 30.382-17.087a131.41 131.41 0 0081.24.559 131.36 131.36 0 0066.032-47.309 131.273 131.273 0 00.895-154.457l.096-.064z" fill="#C8C8C8" opacity=".3"/><path d="M282.645 512.834l-15.707-33.626a131.492 131.492 0 00-6.236-95.583 131.567 131.567 0 00-69.436-66.013 131.64 131.64 0 00-95.813-1.435 131.573 131.573 0 00-71.384 63.903 131.488 131.488 0 00-9.099 95.353 131.545 131.545 0 0058.01 76.241 131.637 131.637 0 0094.358 16.697 131.6 131.6 0 0080.668-51.7l34.639-3.837zM481.448 61.9a131.444 131.444 0 00-127.637-14.366 131.39 131.39 0 00-52.682 40.357 131.304 131.304 0 00-19.309 126.934 131.351 131.351 0 0038.301 54.187 131.415 131.415 0 0059.909 28.56 131.45 131.45 0 0066.231-4.353l30.382 17.087 6.869-36.463a131.456 131.456 0 0039.06-46.959 131.4 131.4 0 00-1.157-118.794 131.452 131.452 0 00-39.967-46.19zm613.212 246.342a131.457 131.457 0 00-59.38 14.218 131.418 131.418 0 00-70.228 95.765 131.365 131.365 0 004.308 60.886l-15.706 33.626 34.638 3.837a131.407 131.407 0 0051.258 42.139 131.445 131.445 0 00128.04-9.956 131.3 131.3 0 0044.12-49.554 131.322 131.322 0 0014.27-64.788 131.309 131.309 0 00-19.23-63.493 131.42 131.42 0 00-112.02-62.777l-.07.097zM938.237 91.947a131.38 131.38 0 00-41.782-37.522 131.433 131.433 0 00-156.911 20.449 131.317 131.317 0 00-39.087 102.501 131.35 131.35 0 0052.361 96.403l6.838 36.366 30.382-17.087a131.403 131.403 0 0081.254.582 131.351 131.351 0 0066.052-47.307 131.28 131.28 0 0025.578-77.096 131.281 131.281 0 00-24.685-77.386v.097z" fill="#C3C3C3" opacity=".3"/><path d="M283.483 511.997l-15.707-33.594a131.423 131.423 0 00-6.057-95.54 131.505 131.505 0 00-69.27-66.107 131.574 131.574 0 00-95.756-1.622 131.503 131.503 0 00-71.472 63.722 131.425 131.425 0 00-9.293 95.28 131.48 131.48 0 0057.813 76.321 131.568 131.568 0 0094.267 16.896 131.524 131.524 0 0080.739-51.488l34.736-3.868zM482.286 61.03a131.445 131.445 0 00-127.637-14.366 131.39 131.39 0 00-52.682 40.357 131.315 131.315 0 00-26.228 60.948 131.288 131.288 0 006.919 65.986 131.351 131.351 0 0038.301 54.187 131.42 131.42 0 0059.909 28.56 131.45 131.45 0 0066.231-4.354l30.382 17.055 6.708-36.463a131.368 131.368 0 0039.099-46.934A131.304 131.304 0 00482.157 61.03h.129zM1095.5 307.405a131.493 131.493 0 00-59.37 14.231 131.484 131.484 0 00-46.547 39.502 131.41 131.41 0 00-23.677 56.256 131.377 131.377 0 004.293 60.88l-15.707 33.594 34.639 3.869a131.37 131.37 0 0051.259 42.12 131.446 131.446 0 00128.03-9.978 131.378 131.378 0 0044.11-49.553 131.285 131.285 0 0014.26-64.78 131.379 131.379 0 00-19.22-63.486 131.408 131.408 0 00-112.01-62.784l-.06.129zM938.947 91.142a131.383 131.383 0 00-41.772-37.589 131.433 131.433 0 00-157.008 20.393 131.354 131.354 0 00-30.775 47.012 131.292 131.292 0 007.372 109.515 131.359 131.359 0 0036.796 42.467l6.838 36.463 30.382-17.054a131.417 131.417 0 0081.24.559 131.365 131.365 0 0066.032-47.31 131.275 131.275 0 00.895-154.456z" fill="#BEBEBE" opacity=".3"/><path d="M284.225 511.191l-15.707-33.626a131.49 131.49 0 00-6.236-95.584 131.57 131.57 0 00-69.435-66.012 131.637 131.637 0 00-95.814-1.435 131.566 131.566 0 00-71.383 63.902 131.49 131.49 0 00-9.1 95.354 131.543 131.543 0 0058.01 76.24 131.631 131.631 0 0094.358 16.697 131.589 131.589 0 0080.668-51.7l34.639-3.836zM483.093 60.192a131.445 131.445 0 00-127.641-14.353 131.395 131.395 0 00-52.679 40.365 131.32 131.32 0 00-26.22 60.952 131.29 131.29 0 006.929 65.986 131.336 131.336 0 0038.31 54.182 131.417 131.417 0 0059.915 28.552 131.463 131.463 0 0066.231-4.365l30.349 17.087 6.87-36.463a131.492 131.492 0 0039.044-46.964 131.429 131.429 0 00-1.157-118.784 131.488 131.488 0 00-39.951-46.195zm613.217 246.407c-20.64-.001-41 4.86-59.41 14.189a131.31 131.31 0 00-46.559 39.505 131.26 131.26 0 00-19.303 117.176l-15.707 33.626 34.639 3.836a131.39 131.39 0 00116.54 53.797 131.422 131.422 0 0062.69-21.681 131.41 131.41 0 0044.1-49.534 131.302 131.302 0 0014.26-64.755 131.31 131.31 0 00-66.99-109.461 131.395 131.395 0 00-64.17-16.795l-.09.097zM939.882 90.303A131.38 131.38 0 00898.1 52.781a131.433 131.433 0 00-109.335-9.395 131.406 131.406 0 00-47.576 29.844 131.317 131.317 0 00-39.087 102.501 131.3 131.3 0 0015.631 53.927 131.361 131.361 0 0036.73 42.476l6.87 36.463 30.382-17.087a131.41 131.41 0 0081.24.559 131.36 131.36 0 0066.032-47.309 131.273 131.273 0 00.895-154.457z" fill="#B9B9B9" opacity=".3"/><path d="M285.128 510.353l-15.707-33.626a131.49 131.49 0 00-6.236-95.584 131.57 131.57 0 00-69.435-66.012 131.636 131.636 0 00-95.814-1.435 131.567 131.567 0 00-71.383 63.902 131.49 131.49 0 00-9.1 95.354 131.543 131.543 0 0058.01 76.24 131.63 131.63 0 0094.358 16.697 131.589 131.589 0 0080.668-51.7l34.639-3.836zm198.803-451a131.446 131.446 0 00-127.585-14.26 131.395 131.395 0 00-52.64 40.356 131.327 131.327 0 00-26.208 60.917 131.29 131.29 0 006.903 65.953 131.33 131.33 0 0038.255 54.175 131.443 131.443 0 00126.056 24.307l30.381 17.087 6.902-36.431a131.447 131.447 0 0039.06-46.959 131.398 131.398 0 00-1.157-118.794 131.455 131.455 0 00-39.967-46.19v-.16zM1097.14 305.76a131.467 131.467 0 00-105.929 53.72 131.377 131.377 0 00-19.367 117.15l-15.707 33.626 34.639 3.836a131.366 131.366 0 0051.254 42.139 131.435 131.435 0 00128.04-9.955 131.303 131.303 0 0044.12-49.555 131.209 131.209 0 0014.27-64.787 131.309 131.309 0 00-19.23-63.493 131.395 131.395 0 00-47.81-46.002 131.463 131.463 0 00-64.21-16.775l-.07.096zM940.721 89.465a131.374 131.374 0 00-41.824-37.338 131.435 131.435 0 00-156.656 20.657 131.3 131.3 0 00-23.522 156.192 131.353 131.353 0 0036.583 42.481l6.838 36.463 30.381-17.087a131.445 131.445 0 0081.228.536 131.39 131.39 0 0066.021-47.304 131.305 131.305 0 00.951-154.439v-.16z" fill="#B4B4B4" opacity=".3"/><path d="M285.966 509.514l-15.707-33.594a131.42 131.42 0 00-6.07-95.558 131.5 131.5 0 00-69.303-66.1 131.572 131.572 0 00-95.775-1.581 131.509 131.509 0 00-71.449 63.776 131.426 131.426 0 00-9.223 95.306 131.478 131.478 0 0057.893 76.285 131.572 131.572 0 0094.302 16.8 131.529 131.529 0 0080.693-51.594l34.639-3.74zM484.77 58.676A131.441 131.441 0 00357.133 44.31a131.393 131.393 0 00-52.683 40.357 131.325 131.325 0 00-26.228 60.948 131.288 131.288 0 006.92 65.986 131.35 131.35 0 0038.3 54.187 131.418 131.418 0 0059.91 28.56 131.457 131.457 0 0066.23-4.353l30.382 17.054 6.838-36.463a131.355 131.355 0 0039.098-46.934 131.304 131.304 0 00-1.139-118.8 131.36 131.36 0 00-39.991-46.176zm613.21 246.279a131.483 131.483 0 00-105.931 53.72 131.373 131.373 0 00-19.367 117.149l-15.707 33.594 34.639 3.869a131.375 131.375 0 0051.256 42.138 131.435 131.435 0 00128.04-9.955 131.3 131.3 0 0044.12-49.554 131.322 131.322 0 0014.27-64.788 131.309 131.309 0 00-19.23-63.493 131.42 131.42 0 00-112.02-62.777l-.07.097zM941.527 88.659A131.383 131.383 0 00899.753 51.1a131.429 131.429 0 00-109.365-9.439 131.403 131.403 0 00-47.596 29.847 131.344 131.344 0 00-30.771 46.991 131.292 131.292 0 007.328 109.484 131.36 131.36 0 0036.759 42.475l6.87 36.463 30.382-17.055a131.41 131.41 0 0081.24.559 131.36 131.36 0 0066.032-47.309 131.274 131.274 0 00.895-154.457z" fill="#AFAFAF" opacity=".3"/><path d="M286.773 508.708l-15.707-33.626a131.49 131.49 0 00-6.236-95.584 131.57 131.57 0 00-69.435-66.012 131.637 131.637 0 00-95.814-1.435 131.567 131.567 0 00-71.383 63.902 131.491 131.491 0 00-9.1 95.354 131.543 131.543 0 0058.01 76.24 131.631 131.631 0 0094.358 16.697 131.589 131.589 0 0080.668-51.7l34.639-3.836zM485.576 57.709a131.445 131.445 0 00-127.637-14.366A131.39 131.39 0 00305.257 83.7a131.299 131.299 0 00-19.309 126.934 131.345 131.345 0 0038.301 54.187 131.438 131.438 0 00126.14 24.207l30.382 17.087 6.869-36.463a131.483 131.483 0 0039.044-46.964 131.43 131.43 0 00-1.157-118.784 131.478 131.478 0 00-39.951-46.195zm613.214 246.406a131.399 131.399 0 00-105.966 53.694 131.26 131.26 0 00-19.303 117.176l-15.707 33.626 34.639 3.836a131.36 131.36 0 0051.247 42.097 131.42 131.42 0 00127.98-9.981 131.319 131.319 0 0044.1-49.534 131.192 131.192 0 0014.26-64.755 131.298 131.298 0 00-19.2-63.467 131.362 131.362 0 00-47.78-45.994 131.411 131.411 0 00-64.17-16.794l-.1.096zM942.365 87.692a131.37 131.37 0 00-41.782-37.523 131.429 131.429 0 00-109.335-9.395 131.4 131.4 0 00-47.575 29.844 131.332 131.332 0 00-30.761 46.977 131.286 131.286 0 007.304 109.452 131.375 131.375 0 0036.731 42.476l6.87 36.463 30.381-17.087a131.417 131.417 0 0081.24.559 131.358 131.358 0 0066.033-47.31 131.278 131.278 0 0025.569-77.083 131.282 131.282 0 00-24.675-77.373z" fill="#AAA" opacity=".3"/><path d="M287.612 507.87l-15.707-33.594a131.555 131.555 0 00-6.191-95.639 131.63 131.63 0 00-69.443-66.081 131.699 131.699 0 00-95.866-1.476 131.636 131.636 0 00-71.446 63.911 131.554 131.554 0 00-9.135 95.403 131.607 131.607 0 0058.021 76.298 131.694 131.694 0 0094.406 16.728 131.661 131.661 0 0080.722-51.714l34.639-3.836zM486.414 56.903a131.446 131.446 0 00-127.637-14.366 131.389 131.389 0 00-52.682 40.358 131.303 131.303 0 00-19.309 126.934 131.35 131.35 0 0038.301 54.186 131.43 131.43 0 00126.14 24.207l30.382 17.055 6.837-36.463a131.356 131.356 0 0039.099-46.934 131.307 131.307 0 00-41.131-164.977zm613.216 246.375a131.548 131.548 0 00-59.38 14.232 131.45 131.45 0 00-70.215 95.757 131.395 131.395 0 004.292 60.881l-15.706 33.594 34.639 3.836a131.435 131.435 0 00179.3 32.184 131.478 131.478 0 0044.12-49.555 131.312 131.312 0 0014.26-64.787 131.187 131.187 0 00-19.22-63.493 131.415 131.415 0 00-112.03-62.778l-.06.129zM943.172 87.015A131.381 131.381 0 00901.4 49.427 131.432 131.432 0 00744.392 69.82a131.34 131.34 0 00-30.774 47.011 131.289 131.289 0 007.371 109.516 131.35 131.35 0 0036.797 42.467l6.998 36.463 30.382-17.055a131.41 131.41 0 0081.24.559 131.362 131.362 0 0066.033-47.309 131.272 131.272 0 00.894-154.457h-.161z" fill="#A5A5A5" opacity=".3"/><path d="M288.45 507.065l-15.707-33.626a131.423 131.423 0 00-6.24-95.534A131.506 131.506 0 00197.1 311.93a131.57 131.57 0 00-95.764-1.431 131.503 131.503 0 00-71.346 63.87 131.427 131.427 0 00-9.095 95.305 131.479 131.479 0 0057.978 76.202 131.566 131.566 0 0094.308 16.693 131.531 131.531 0 0080.63-51.667l34.639-3.837zm198.964-451A131.443 131.443 0 00359.812 41.58a131.387 131.387 0 00-52.717 40.294 131.294 131.294 0 00-19.461 126.89 131.345 131.345 0 0038.22 54.228 131.44 131.44 0 00126.083 24.392l30.381 17.055 6.838-36.463a131.35 131.35 0 0039.161-46.881 131.296 131.296 0 00-.976-118.799 131.364 131.364 0 00-39.927-46.23zm613.056 246.407a131.529 131.529 0 00-59.39 14.218 131.445 131.445 0 00-46.548 39.502 131.365 131.365 0 00-19.366 117.149l-15.707 33.626 34.639 3.837a131.346 131.346 0 0051.252 42.139 131.465 131.465 0 0065.32 11.724 131.389 131.389 0 0062.72-21.68 131.41 131.41 0 0044.13-49.554 131.313 131.313 0 00-4.97-128.281 131.325 131.325 0 00-47.81-46.002 131.457 131.457 0 00-64.21-16.775l-.06.097zM944.01 86.177a131.38 131.38 0 00-41.773-37.558 131.438 131.438 0 00-156.961 20.407 131.339 131.339 0 00-30.772 46.991 131.294 131.294 0 007.328 109.485 131.347 131.347 0 0036.76 42.474l6.869 36.463 30.382-17.054a131.417 131.417 0 0081.24.559 131.37 131.37 0 0066.033-47.31 131.278 131.278 0 0025.569-77.083 131.283 131.283 0 00-24.675-77.373z" fill="#A0A0A0" opacity=".3"/><path d="M289.257 506.226L273.55 472.6a131.496 131.496 0 00-6.194-95.59 131.571 131.571 0 00-69.411-66.043 131.637 131.637 0 00-95.816-1.473 131.575 131.575 0 00-71.41 63.879 131.492 131.492 0 00-9.13 95.355 131.543 131.543 0 0057.989 76.26 131.635 131.635 0 0094.356 16.724 131.595 131.595 0 0080.684-51.682l34.639-3.804zM488.059 55.227A131.441 131.441 0 00360.423 40.86a131.385 131.385 0 00-52.683 40.357 131.299 131.299 0 00-19.309 126.934 131.35 131.35 0 0038.301 54.186 131.42 131.42 0 0059.91 28.561 131.446 131.446 0 0066.23-4.354l30.382 17.087 6.87-36.463a131.472 131.472 0 0039.043-46.964 131.427 131.427 0 00-1.156-118.783 131.489 131.489 0 00-39.952-46.195zm613.211 246.406a131.399 131.399 0 00-59.4 14.189 131.365 131.365 0 00-46.562 39.505 131.26 131.26 0 00-19.303 117.176l-15.707 33.626 34.639 3.901a131.391 131.391 0 00116.543 53.797 131.413 131.413 0 0062.69-21.682 131.373 131.373 0 0044.09-49.533 131.312 131.312 0 0014.27-64.756 131.309 131.309 0 00-19.21-63.466 131.364 131.364 0 00-111.95-62.789l-.1.032zM944.849 85.338a131.38 131.38 0 00-41.782-37.522 131.433 131.433 0 00-156.911 20.449 131.332 131.332 0 00-39.087 102.501 131.342 131.342 0 0052.362 96.403l6.869 36.528 30.35-17.087a131.441 131.441 0 0081.227.535 131.389 131.389 0 0066.021-47.303 131.31 131.31 0 00.951-154.44v-.064z" fill="#9B9B9B" opacity=".3"/><path d="M290.095 505.387l-15.546-33.593a131.552 131.552 0 00-6.191-95.64 131.632 131.632 0 00-69.442-66.081 131.704 131.704 0 00-95.866-1.476 131.635 131.635 0 00-71.447 63.911 131.556 131.556 0 00-9.135 95.404A131.61 131.61 0 0080.49 544.21a131.699 131.699 0 0094.405 16.728 131.66 131.66 0 0080.722-51.714l34.478-3.837zM488.898 54.42a131.443 131.443 0 00-127.637-14.366 131.39 131.39 0 00-52.682 40.358 131.303 131.303 0 00-19.309 126.934 131.351 131.351 0 0038.301 54.187 131.41 131.41 0 0059.909 28.56 131.461 131.461 0 0066.231-4.353l30.382 17.054 6.837-36.463a131.36 131.36 0 0039.099-46.934 131.3 131.3 0 00-1.14-118.8 131.36 131.36 0 00-39.991-46.176zm613.212 246.376a131.537 131.537 0 00-59.37 14.231 131.46 131.46 0 00-46.545 39.502 131.403 131.403 0 00-19.385 117.137l-15.706 33.593 34.638 3.837A131.395 131.395 0 001047 551.234a131.435 131.435 0 00128.04-9.955 131.3 131.3 0 0044.12-49.554 131.322 131.322 0 0014.27-64.788 131.309 131.309 0 00-19.23-63.493 131.42 131.42 0 00-112.02-62.777l-.07.129zM945.655 84.468a131.384 131.384 0 00-41.772-37.588 131.43 131.43 0 00-109.398-9.464 131.405 131.405 0 00-47.61 29.857 131.357 131.357 0 00-30.775 47.011 131.288 131.288 0 007.372 109.516 131.35 131.35 0 0036.797 42.467l6.837 36.463 30.382-17.055a131.41 131.41 0 0081.24.559 131.36 131.36 0 0066.032-47.309 131.273 131.273 0 00.895-154.457z" fill="#969696" opacity=".3"/><path d="M290.933 504.582l-15.707-33.626a131.49 131.49 0 00-6.236-95.584 131.57 131.57 0 00-69.435-66.012 131.636 131.636 0 00-95.814-1.435 131.567 131.567 0 00-71.383 63.902 131.491 131.491 0 00-9.1 95.354 131.543 131.543 0 0058.01 76.24 131.63 131.63 0 0094.358 16.697 131.589 131.589 0 0080.668-51.7l34.639-3.836zM489.736 53.583a131.446 131.446 0 00-127.637-14.366 131.39 131.39 0 00-52.682 40.357 131.299 131.299 0 00-19.309 126.934 131.354 131.354 0 0038.301 54.187 131.438 131.438 0 00126.14 24.207l30.382 17.054 6.837-36.43a131.421 131.421 0 0039.083-46.948 131.367 131.367 0 00-1.139-118.804 131.42 131.42 0 00-39.976-46.191zm613.214 246.406a131.47 131.47 0 00-59.38 14.218 131.44 131.44 0 00-46.554 39.502 131.377 131.377 0 00-19.367 117.15l-15.707 33.626 34.639 3.836a131.417 131.417 0 00116.579 53.864A131.387 131.387 0 001220 490.95a131.427 131.427 0 0014.27-64.787 131.345 131.345 0 00-67.05-109.495 131.407 131.407 0 00-64.21-16.775l-.06.096zM946.493 83.695a131.382 131.382 0 00-41.782-37.523 131.434 131.434 0 00-156.91 20.45 131.332 131.332 0 00-30.761 46.976 131.286 131.286 0 007.304 109.452 131.375 131.375 0 0036.731 42.476l6.87 36.43 30.381-17.054a131.417 131.417 0 0081.24.559 131.358 131.358 0 0066.033-47.31 131.278 131.278 0 0025.569-77.083 131.283 131.283 0 00-24.675-77.373z" fill="#919191" opacity=".3"/><path d="M291.739 503.743l-15.706-33.626a131.49 131.49 0 00-6.237-95.584 131.567 131.567 0 00-69.435-66.012 131.636 131.636 0 00-95.814-1.435 131.575 131.575 0 00-71.383 63.902 131.49 131.49 0 00-9.1 95.354 131.543 131.543 0 0058.011 76.24A131.625 131.625 0 00257.1 507.579l34.639-3.836zm198.9-450.999a131.443 131.443 0 00-127.637-14.366 131.392 131.392 0 00-52.683 40.358 131.315 131.315 0 00-26.227 60.947 131.288 131.288 0 006.919 65.986 131.336 131.336 0 0038.301 54.187 131.439 131.439 0 00126.14 24.207l30.381 17.087 6.87-36.463a131.483 131.483 0 0039.044-46.964 131.429 131.429 0 00-1.157-118.784 131.486 131.486 0 00-39.951-46.195zM1103.76 299.15a131.555 131.555 0 00-59.39 14.218 131.455 131.455 0 00-46.548 39.502 131.39 131.39 0 00-23.675 56.264 131.351 131.351 0 004.308 60.886l-15.674 33.626 34.639 3.836a131.38 131.38 0 00116.54 53.797 131.4 131.4 0 0062.69-21.681 131.4 131.4 0 0044.1-49.533 131.417 131.417 0 0014.26-64.756 131.31 131.31 0 00-66.99-109.461 131.383 131.383 0 00-64.17-16.794l-.09.096zM947.332 82.856a131.38 131.38 0 00-41.782-37.523 131.432 131.432 0 00-109.336-9.395 131.402 131.402 0 00-47.575 29.844 131.346 131.346 0 00-30.761 46.977 131.302 131.302 0 007.305 109.452 131.35 131.35 0 0036.73 42.476l6.838 36.463 30.381-17.087a131.42 131.42 0 0081.328.697 131.366 131.366 0 0066.151-47.297 131.28 131.28 0 0025.618-77.16 131.278 131.278 0 00-24.736-77.447h-.161z" fill="#8C8C8C" opacity=".3"/><path d="M292.578 502.905l-15.707-33.594a131.55 131.55 0 00-6.275-95.627 131.627 131.627 0 00-69.493-66.018 131.701 131.701 0 00-95.86-1.402 131.635 131.635 0 00-71.395 63.958 131.556 131.556 0 00-9.07 95.403 131.608 131.608 0 0058.063 76.257 131.703 131.703 0 0094.408 16.675 131.66 131.66 0 0080.69-51.751l34.639-3.901zM491.381 51.938a131.441 131.441 0 00-127.636-14.366 131.385 131.385 0 00-52.683 40.358 131.3 131.3 0 00-19.309 126.934 131.35 131.35 0 0038.301 54.186 131.43 131.43 0 00126.14 24.207l30.382 17.055 6.837-36.463a131.358 131.358 0 0039.099-46.934 131.307 131.307 0 00-41.131-164.977zm613.209 246.375a131.538 131.538 0 00-59.37 14.232 131.478 131.478 0 00-46.541 39.502 131.395 131.395 0 00-19.385 117.136l-15.707 33.594 34.639 4.03a131.355 131.355 0 0051.254 42.138 131.435 131.435 0 00128.04-9.955 131.3 131.3 0 0044.12-49.554 131.212 131.212 0 0014.27-64.788 131.309 131.309 0 00-19.23-63.493 131.403 131.403 0 00-47.81-46.002 131.485 131.485 0 00-64.21-16.775l-.07-.065zM948.138 82.05a131.38 131.38 0 00-41.771-37.588 131.436 131.436 0 00-157.009 20.393 131.305 131.305 0 0013.394 198.994l6.837 36.624 30.382-17.054a131.417 131.417 0 0081.24.559 131.364 131.364 0 0066.033-47.31 131.27 131.27 0 00.894-154.457v-.16z" fill="#878787" opacity=".3"/><path d="M293.384 502.1l-15.61-33.626a131.654 131.654 0 00-6.166-95.71 131.729 131.729 0 00-69.473-66.15 131.798 131.798 0 00-95.934-1.508 131.731 131.731 0 00-71.52 63.933 131.651 131.651 0 00-9.173 95.469 131.705 131.705 0 0058.035 76.374 131.796 131.796 0 0094.467 16.775 131.756 131.756 0 0080.8-51.721l34.574-3.836zm198.836-451a131.44 131.44 0 00-127.637-14.366A131.393 131.393 0 00311.9 77.093a131.3 131.3 0 00-19.308 126.934 131.333 131.333 0 0038.301 54.186 131.412 131.412 0 0059.909 28.561 131.45 131.45 0 0066.231-4.354l30.381 17.087 6.838-36.463a131.42 131.42 0 0039.082-46.948 131.375 131.375 0 0013.63-59.538 131.37 131.37 0 00-14.769-59.266 131.427 131.427 0 00-39.975-46.19zm613.21 246.407a131.488 131.488 0 00-105.931 53.72 131.365 131.365 0 00-19.366 117.149l-15.707 33.626 34.639 3.837a131.34 131.34 0 0051.245 42.097 131.45 131.45 0 0065.3 11.7 131.376 131.376 0 0062.68-21.682 131.316 131.316 0 0044.1-49.533 131.194 131.194 0 0014.26-64.756 131.19 131.19 0 00-19.2-63.466 131.354 131.354 0 00-47.78-45.994 131.412 131.412 0 00-64.17-16.795l-.07.097zM948.977 81.244a131.38 131.38 0 00-41.782-37.522 131.432 131.432 0 00-109.336-9.395 131.404 131.404 0 00-47.575 29.844 131.347 131.347 0 00-30.761 46.976 131.302 131.302 0 007.305 109.452 131.35 131.35 0 0036.73 42.476l6.87 36.463 30.382-17.087a131.41 131.41 0 0081.24.559 131.364 131.364 0 0066.032-47.309 131.274 131.274 0 00.895-154.457z" fill="#828282" opacity=".3"/><path d="M294.223 501.26l-15.707-33.625a131.489 131.489 0 00-6.236-95.584 131.569 131.569 0 00-69.436-66.012 131.639 131.639 0 00-95.813-1.436 131.572 131.572 0 00-71.383 63.903 131.491 131.491 0 00-9.1 95.354 131.543 131.543 0 0058.01 76.24 131.636 131.636 0 0094.358 16.697 131.593 131.593 0 0080.668-51.7l34.639-3.837zM493.026 50.262a131.446 131.446 0 00-127.637-14.366 131.39 131.39 0 00-52.682 40.357 131.314 131.314 0 00-26.228 60.948 131.288 131.288 0 006.919 65.986 131.351 131.351 0 0038.301 54.187 131.415 131.415 0 0059.909 28.56 131.45 131.45 0 0066.231-4.354l30.382 17.087 6.869-36.462a131.45 131.45 0 0039.06-46.96 131.395 131.395 0 00-1.157-118.793 131.453 131.453 0 00-39.967-46.19zm613.214 246.406a131.47 131.47 0 00-59.38 14.218 131.382 131.382 0 00-46.55 39.502 131.33 131.33 0 00-23.68 56.264 131.365 131.365 0 004.309 60.886l-15.675 33.625L999.903 505a131.36 131.36 0 0051.247 42.097 131.43 131.43 0 0065.29 11.7c22.41-1.748 44-9.213 62.69-21.681a131.326 131.326 0 0044.1-49.534 131.194 131.194 0 0014.26-64.756 131.298 131.298 0 00-19.2-63.466 131.354 131.354 0 00-47.78-45.994 131.423 131.423 0 00-64.17-16.795l-.1.097zM949.815 80.373a131.38 131.38 0 00-41.782-37.522A131.432 131.432 0 00751.123 63.3a131.336 131.336 0 00-30.761 46.976 131.308 131.308 0 007.304 109.453 131.36 131.36 0 0036.731 42.475l6.837 36.463 30.382-17.087a131.407 131.407 0 0081.255.582 131.36 131.36 0 0066.052-47.307 131.286 131.286 0 0025.577-77.096 131.28 131.28 0 00-24.685-77.386z" fill="#7D7D7D" opacity=".3"/><path d="M295.061 500.358l-15.706-33.594a131.555 131.555 0 00-6.191-95.639 131.63 131.63 0 00-69.443-66.081 131.704 131.704 0 00-95.866-1.476 131.636 131.636 0 00-71.446 63.911 131.555 131.555 0 00-9.135 95.404 131.61 131.61 0 0058.021 76.298 131.705 131.705 0 0094.406 16.728 131.66 131.66 0 0080.721-51.714l34.639-3.837zM493.864 49.456A131.447 131.447 0 00366.227 35.09a131.389 131.389 0 00-52.682 40.358 131.299 131.299 0 00-19.309 126.933 131.354 131.354 0 0038.301 54.187 131.438 131.438 0 00126.14 24.207l30.382 17.054 6.837-36.462a131.36 131.36 0 0039.099-46.935 131.301 131.301 0 00-1.139-118.8 131.36 131.36 0 00-39.992-46.176zm613.216 246.375a131.56 131.56 0 00-59.38 14.231 131.487 131.487 0 00-46.54 39.502 131.425 131.425 0 00-23.675 56.256 131.395 131.395 0 004.292 60.881l-15.706 33.658 34.639 3.836a131.435 131.435 0 00179.3 32.184 131.47 131.47 0 0044.12-49.555 131.31 131.31 0 0014.26-64.787 131.298 131.298 0 00-19.22-63.493 131.423 131.423 0 00-112.03-62.777l-.06.064zM950.622 79.568a131.384 131.384 0 00-41.772-37.589 131.43 131.43 0 00-109.398-9.463 131.406 131.406 0 00-47.61 29.857 131.34 131.34 0 00-30.774 47.011 131.287 131.287 0 007.371 109.516 131.35 131.35 0 0036.797 42.467l6.837 36.463 30.382-17.055a131.417 131.417 0 0081.24.559 131.36 131.36 0 0066.032-47.309 131.275 131.275 0 00.895-154.457z" fill="#787878" opacity=".3"/><path d="M295.868 499.617l-15.675-33.626a131.651 131.651 0 00-6.335-95.686 131.729 131.729 0 00-69.572-66.025 131.796 131.796 0 00-95.923-1.359 131.73 131.73 0 00-71.417 64.027 131.65 131.65 0 00-9.046 95.467 131.703 131.703 0 0058.12 76.293 131.795 131.795 0 0094.473 16.668 131.755 131.755 0 0080.736-51.794l34.639-3.965zM494.703 48.618a131.441 131.441 0 00-127.636-14.366 131.385 131.385 0 00-52.683 40.358 131.299 131.299 0 00-19.309 126.933 131.354 131.354 0 0038.301 54.187 131.435 131.435 0 00126.14 24.207l30.382 17.087 6.837-36.463a131.421 131.421 0 0039.083-46.948 131.367 131.367 0 00-1.139-118.804 131.42 131.42 0 00-39.976-46.19zm613.177 246.407a131.482 131.482 0 00-105.91 53.733 131.423 131.423 0 00-23.664 56.259 131.358 131.358 0 004.31 60.878l-15.707 33.626 34.641 4.062a131.391 131.391 0 00116.54 53.797 131.422 131.422 0 0062.69-21.681 131.3 131.3 0 0044.09-49.534 131.312 131.312 0 0014.27-64.756 131.309 131.309 0 00-66.99-109.46 131.395 131.395 0 00-64.17-16.795l-.1-.129zM951.461 78.73a131.38 131.38 0 00-41.782-37.523 131.433 131.433 0 00-109.336-9.395 131.4 131.4 0 00-47.575 29.845 131.346 131.346 0 00-30.761 46.976 131.286 131.286 0 007.304 109.452 131.364 131.364 0 0036.731 42.476l6.87 36.463 30.381-17.087a131.417 131.417 0 0081.24.559 131.362 131.362 0 0066.033-47.309 131.275 131.275 0 00.895-154.457z" fill="#737373" opacity=".3"/><path d="M296.707 498.778L281 465.152a131.487 131.487 0 00-6.237-95.583 131.565 131.565 0 00-69.435-66.013 131.641 131.641 0 00-95.814-1.435 131.573 131.573 0 00-71.383 63.903 131.488 131.488 0 00-9.1 95.353 131.549 131.549 0 0058.011 76.241 131.637 131.637 0 0094.358 16.697 131.6 131.6 0 0080.668-51.7l34.639-3.837zM495.51 47.78a131.441 131.441 0 00-127.637-14.366A131.393 131.393 0 00315.19 73.77a131.3 131.3 0 00-19.308 126.933 131.336 131.336 0 0038.301 54.187 131.439 131.439 0 00126.14 24.207l30.381 17.087 6.87-36.463a131.447 131.447 0 0039.06-46.959 131.394 131.394 0 00-1.157-118.794 131.464 131.464 0 00-39.967-46.19zm613.21 246.406a131.479 131.479 0 00-105.93 53.719 131.384 131.384 0 00-23.676 56.264 131.351 131.351 0 004.308 60.886l-15.706 33.626 34.634 3.837a131.435 131.435 0 00179.3 32.183 131.3 131.3 0 0044.12-49.554 131.212 131.212 0 0014.27-64.788 131.309 131.309 0 00-19.23-63.493 131.42 131.42 0 00-112.02-62.777l-.07.097zM952.299 78.02a131.38 131.38 0 00-41.782-37.523 131.433 131.433 0 00-156.911 20.45 131.317 131.317 0 00-39.087 102.502 131.35 131.35 0 0052.361 96.403l6.838 36.462 30.382-17.087a131.41 131.41 0 0081.254.582 131.37 131.37 0 0066.053-47.307 131.278 131.278 0 00.892-154.482z" fill="#6E6E6E" opacity=".3"/><path d="M297.545 497.94l-15.707-33.594a131.55 131.55 0 00-6.191-95.639 131.628 131.628 0 00-69.442-66.081 131.704 131.704 0 00-95.866-1.476 131.635 131.635 0 00-71.447 63.911 131.556 131.556 0 00-9.135 95.404 131.61 131.61 0 0058.022 76.298 131.698 131.698 0 0094.405 16.728 131.66 131.66 0 0080.722-51.714l34.639-3.837zM496.348 46.974a131.442 131.442 0 00-127.637-14.366 131.393 131.393 0 00-52.683 40.357 131.3 131.3 0 00-19.308 126.934 131.333 131.333 0 0038.301 54.186 131.412 131.412 0 0059.909 28.561 131.45 131.45 0 0066.231-4.354l30.381 17.055 6.838-36.463a131.355 131.355 0 0039.098-46.934 131.304 131.304 0 00-1.139-118.8 131.356 131.356 0 00-39.991-46.176zm613.212 246.375a131.524 131.524 0 00-59.37 14.231 131.39 131.39 0 00-46.54 39.502 131.37 131.37 0 00-19.389 117.136l-15.707 33.594 34.636 3.836a131.427 131.427 0 00116.58 53.864 131.436 131.436 0 0062.72-21.68 131.308 131.308 0 0044.12-49.554 131.324 131.324 0 0014.27-64.788 131.309 131.309 0 00-19.23-63.493 131.42 131.42 0 00-112.02-62.777l-.07.129zM953.105 77.085a131.367 131.367 0 00-41.771-37.588A131.435 131.435 0 00754.325 59.89a131.337 131.337 0 00-30.774 47.012 131.298 131.298 0 007.371 109.515 131.362 131.362 0 0036.797 42.467l6.741 36.463 30.381-17.055a131.41 131.41 0 0081.24.56 131.37 131.37 0 0066.033-47.31 131.278 131.278 0 0025.569-77.083 131.276 131.276 0 00-24.675-77.374h.097z" fill="#696969" opacity=".3"/><path d="M298.351 497.134l-15.707-33.626a131.489 131.489 0 00-6.236-95.584 131.57 131.57 0 00-69.435-66.012 131.641 131.641 0 00-95.814-1.436 131.572 131.572 0 00-71.383 63.903 131.491 131.491 0 00-9.1 95.354 131.543 131.543 0 0058.01 76.24 131.63 131.63 0 0094.358 16.697 131.593 131.593 0 0080.668-51.7l34.639-3.836zM497.09 46.135a131.445 131.445 0 00-127.641-14.353 131.384 131.384 0 00-52.678 40.365 131.29 131.29 0 00-19.292 126.938 131.336 131.336 0 0038.31 54.182 131.405 131.405 0 0059.915 28.551 131.451 131.451 0 0066.231-4.364l30.349 17.086 6.87-36.462a131.492 131.492 0 0039.044-46.964 131.429 131.429 0 00-1.157-118.784 131.488 131.488 0 00-39.951-46.195zm613.28 246.407a131.385 131.385 0 00-59.4 14.188 131.374 131.374 0 00-46.57 39.505 131.302 131.302 0 00-23.657 56.282 131.26 131.26 0 004.356 60.894l-15.706 33.723 34.637 3.836a131.39 131.39 0 00116.54 53.797 131.422 131.422 0 0062.69-21.681 131.319 131.319 0 0044.1-49.534 131.192 131.192 0 0014.26-64.755 131.202 131.202 0 00-19.21-63.467 131.383 131.383 0 00-111.95-62.788h-.09zM953.943 76.246a131.366 131.366 0 00-41.781-37.522 131.433 131.433 0 00-109.336-9.395 131.4 131.4 0 00-47.575 29.844 131.333 131.333 0 00-30.761 46.976 131.286 131.286 0 007.304 109.452 131.364 131.364 0 0036.731 42.476l6.87 36.463 30.381-17.087a131.417 131.417 0 0081.24.559 131.362 131.362 0 0066.033-47.309 131.268 131.268 0 00.894-154.457z" fill="#646464" opacity=".3"/><path d="M299.19 496.296l-15.707-33.626a131.49 131.49 0 00-6.236-95.584 131.569 131.569 0 00-69.436-66.012 131.639 131.639 0 00-95.813-1.436 131.572 131.572 0 00-71.384 63.903 131.491 131.491 0 00-9.099 95.354 131.543 131.543 0 0058.01 76.24 131.632 131.632 0 0094.358 16.697 131.593 131.593 0 0080.668-51.7l34.639-3.836zM497.993 45.297A131.447 131.447 0 00370.356 30.93a131.389 131.389 0 00-52.682 40.357 131.299 131.299 0 00-19.309 126.934 131.345 131.345 0 0038.301 54.187 131.42 131.42 0 0059.909 28.56 131.45 131.45 0 0066.231-4.353l30.382 17.087 6.869-36.463a131.456 131.456 0 0039.06-46.959 131.4 131.4 0 00-1.157-118.794 131.454 131.454 0 00-39.967-46.19zm613.217 246.406a131.479 131.479 0 00-105.94 53.72 131.365 131.365 0 00-19.364 117.15l-15.707 33.626 34.641 3.836a131.326 131.326 0 0051.25 42.139 131.455 131.455 0 0065.32 11.725 131.42 131.42 0 00106.85-71.235 131.312 131.312 0 00-4.97-128.28 131.31 131.31 0 00-47.81-46.002 131.447 131.447 0 00-64.21-16.776l-.06.097zM954.782 75.409A131.37 131.37 0 00913 37.886a131.429 131.429 0 00-109.335-9.395 131.4 131.4 0 00-47.575 29.844 131.33 131.33 0 00-30.761 46.977 131.284 131.284 0 00-8.326 55.524 131.323 131.323 0 0052.361 96.404l6.837 36.462 30.382-17.086a131.42 131.42 0 0081.328.697 131.366 131.366 0 0066.151-47.297 131.271 131.271 0 00.882-154.607h-.162z" fill="#5F5F5F" opacity=".3"/><path d="M300.028 495.458l-15.803-33.594a131.428 131.428 0 00-6.24-95.534 131.502 131.502 0 00-69.403-65.975 131.575 131.575 0 00-95.764-1.432 131.509 131.509 0 00-71.346 63.871 131.424 131.424 0 00-9.095 95.304 131.481 131.481 0 0057.978 76.203 131.572 131.572 0 0094.308 16.693 131.533 131.533 0 0080.63-51.668l34.735-3.868zM498.831 44.49a131.444 131.444 0 00-127.637-14.366 131.39 131.39 0 00-52.682 40.358 131.304 131.304 0 0018.992 181.12 131.416 131.416 0 0059.909 28.561 131.45 131.45 0 0066.231-4.354l30.382 17.055 6.837-36.463a131.368 131.368 0 0039.099-46.934 131.303 131.303 0 00-1.14-118.8 131.356 131.356 0 00-39.991-46.176zm613.209 246.311a131.55 131.55 0 00-59.37 14.231 131.487 131.487 0 00-46.54 39.502 131.398 131.398 0 00-19.386 117.137l-15.545 33.787 34.641 3.869a131.388 131.388 0 0051.26 42.12 131.439 131.439 0 00128.02-9.978 131.32 131.32 0 0044.12-49.553 131.288 131.288 0 0014.26-64.78 131.386 131.386 0 00-19.22-63.487 131.414 131.414 0 00-112.01-62.783l-.23-.065zM955.589 74.603a131.381 131.381 0 00-41.772-37.589 131.432 131.432 0 00-109.398-9.463 131.398 131.398 0 00-47.61 29.856 131.34 131.34 0 00-30.775 47.012 131.306 131.306 0 007.371 109.515 131.362 131.362 0 0036.797 42.467l6.838 36.463 30.381-17.054a131.417 131.417 0 0081.24.559 131.364 131.364 0 0066.033-47.31 131.275 131.275 0 00.895-154.457z" fill="#5A5A5A" opacity=".3"/><path d="M300.835 494.652l-15.707-33.626a131.494 131.494 0 00-6.236-95.584 131.569 131.569 0 00-69.436-66.012 131.639 131.639 0 00-95.813-1.436 131.572 131.572 0 00-71.384 63.903 131.491 131.491 0 00-9.099 95.354 131.543 131.543 0 0058.01 76.24 131.632 131.632 0 0094.358 16.697 131.596 131.596 0 0080.668-51.7l34.639-3.836zM499.638 43.653a131.444 131.444 0 00-127.637-14.366 131.389 131.389 0 00-52.682 40.357 131.303 131.303 0 00-19.309 126.934 131.342 131.342 0 0038.301 54.187 131.41 131.41 0 0059.909 28.56 131.461 131.461 0 0066.231-4.353l30.381 17.087 6.87-36.463a131.492 131.492 0 0039.044-46.964 131.429 131.429 0 00-1.157-118.784 131.486 131.486 0 00-39.951-46.195zM1112.85 290.06a131.385 131.385 0 00-59.4 14.188 131.341 131.341 0 00-70.224 95.787 131.26 131.26 0 004.357 60.894l-15.707 33.626 34.804 3.933a131.31 131.31 0 0051.25 42.097 131.38 131.38 0 00127.97-9.981 131.319 131.319 0 0058.37-114.289 131.31 131.31 0 00-66.99-109.461 131.411 131.411 0 00-64.17-16.794h-.26zM956.427 73.764a131.38 131.38 0 00-41.782-37.522 131.432 131.432 0 00-156.91 20.45 131.331 131.331 0 00-30.761 46.976 131.293 131.293 0 007.304 109.452 131.363 131.363 0 0036.731 42.476l6.869 36.462 30.382-17.086a131.417 131.417 0 0081.24.559 131.364 131.364 0 0066.033-47.31 131.278 131.278 0 0025.569-77.083 131.283 131.283 0 00-24.675-77.374z" fill="#555" opacity=".3"/><path d="M301.673 493.91l-15.707-33.593a131.552 131.552 0 00-6.19-95.64 131.63 131.63 0 00-69.443-66.081 131.704 131.704 0 00-95.866-1.476 131.636 131.636 0 00-71.446 63.911 131.556 131.556 0 00-9.135 95.404 131.61 131.61 0 0058.021 76.298 131.7 131.7 0 0094.406 16.728 131.66 131.66 0 0080.721-51.714l34.639-3.837zM500.477 42.814A131.441 131.441 0 00372.84 28.448a131.392 131.392 0 00-52.683 40.358 131.3 131.3 0 00-19.309 126.934 131.35 131.35 0 0038.301 54.186 131.43 131.43 0 00126.14 24.207l30.382 17.087 6.87-36.463a131.455 131.455 0 0039.059-46.959 131.398 131.398 0 00-1.157-118.794 131.45 131.45 0 00-39.966-46.19zm613.213 246.408a131.524 131.524 0 00-59.37 14.231 131.52 131.52 0 00-46.55 39.502 131.44 131.44 0 00-23.673 56.256 131.39 131.39 0 004.292 60.88l-15.707 33.82 34.638 3.836a131.427 131.427 0 00116.58 53.864 131.394 131.394 0 00106.84-71.235 131.43 131.43 0 0014.27-64.787 131.337 131.337 0 00-67.05-109.495 131.419 131.419 0 00-64.21-16.776l-.06-.096zM957.233 72.927a131.37 131.37 0 00-41.78-37.553A131.433 131.433 0 00758.495 55.81a131.333 131.333 0 00-30.763 46.997 131.302 131.302 0 007.347 109.483 131.367 131.367 0 0036.768 42.469l6.838 36.463 30.381-17.087a131.417 131.417 0 0081.24.559 131.364 131.364 0 0066.033-47.31 131.278 131.278 0 0025.569-77.083 131.283 131.283 0 00-24.675-77.374z" fill="#505050" opacity=".3"/><path d="M302.512 493.007l-15.707-33.625a131.428 131.428 0 00-6.239-95.534 131.506 131.506 0 00-69.403-65.975 131.577 131.577 0 00-95.765-1.432 131.507 131.507 0 00-71.346 63.87 131.427 131.427 0 00-9.095 95.305 131.476 131.476 0 0057.978 76.202 131.566 131.566 0 0094.308 16.694 131.527 131.527 0 0080.63-51.668l34.639-3.837zM501.315 42.008a131.446 131.446 0 00-127.637-14.366A131.39 131.39 0 00320.996 68a131.299 131.299 0 00-19.309 126.933 131.345 131.345 0 0038.301 54.187 131.431 131.431 0 00126.14 24.207l30.382 17.055 6.837-36.463a131.371 131.371 0 0039.099-46.935 131.3 131.3 0 00-1.139-118.8 131.369 131.369 0 00-39.992-46.176zm613.215 246.407a131.469 131.469 0 00-59.38 14.217 131.417 131.417 0 00-46.56 39.503 131.426 131.426 0 00-23.67 56.263 131.351 131.351 0 004.308 60.886l-15.707 33.626 34.639 3.837a131.435 131.435 0 00179.3 32.183 131.468 131.468 0 0044.12-49.554 131.313 131.313 0 0014.26-64.788 131.19 131.19 0 00-19.22-63.493 131.43 131.43 0 00-47.82-46.002 131.428 131.428 0 00-64.21-16.775l-.06.097zM958.072 72.12a131.388 131.388 0 00-41.773-37.559A131.438 131.438 0 00759.338 54.97a131.34 131.34 0 00-30.772 46.991 131.292 131.292 0 007.328 109.485 131.347 131.347 0 0036.76 42.474l6.869 36.463 30.382-17.055a131.41 131.41 0 0081.24.56 131.367 131.367 0 0066.032-47.31 131.271 131.271 0 00.895-154.457z" fill="#4B4B4B" opacity=".3"/><path d="M303.318 492.17l-15.707-33.723a131.486 131.486 0 00-6.236-95.583 131.568 131.568 0 00-69.435-66.013 131.641 131.641 0 00-95.814-1.435 131.574 131.574 0 00-71.383 63.902 131.491 131.491 0 00-9.1 95.354 131.543 131.543 0 0058.01 76.24 131.631 131.631 0 0094.358 16.698 131.595 131.595 0 0080.668-51.701l34.639-3.739zm198.803-451a131.446 131.446 0 00-127.637-14.366 131.39 131.39 0 00-52.682 40.358 131.3 131.3 0 00-19.309 126.934 131.35 131.35 0 0038.301 54.186 131.43 131.43 0 00126.14 24.207l30.382 17.087 6.87-36.463a131.472 131.472 0 0039.043-46.964 131.427 131.427 0 00-1.156-118.783 131.489 131.489 0 00-39.952-46.196zm613.209 246.407a131.399 131.399 0 00-59.4 14.189 131.321 131.321 0 00-70.221 95.787 131.273 131.273 0 004.357 60.894l-15.642 33.722 34.636 3.837a131.39 131.39 0 00116.54 53.797c22.41-1.748 44-9.213 62.69-21.681a131.326 131.326 0 0044.1-49.534 131.194 131.194 0 0014.26-64.756 131.298 131.298 0 00-19.2-63.466 131.354 131.354 0 00-47.78-45.994 131.412 131.412 0 00-64.17-16.795h-.17zM958.91 71.282a131.367 131.367 0 00-41.781-37.522 131.432 131.432 0 00-109.336-9.395 131.404 131.404 0 00-47.575 29.844 131.347 131.347 0 00-30.761 46.976 131.286 131.286 0 007.304 109.452 131.364 131.364 0 0036.731 42.476l6.87 36.463 30.349-17.087a131.445 131.445 0 0081.228.536 131.395 131.395 0 0066.021-47.304 131.301 131.301 0 00.95-154.439z" fill="#464646" opacity=".3"/><path d="M304.157 491.331l-15.707-33.593a131.557 131.557 0 00-6.191-95.64 131.63 131.63 0 00-69.443-66.081 131.703 131.703 0 00-95.866-1.476 131.636 131.636 0 00-71.446 63.911 131.556 131.556 0 00-9.135 95.404 131.61 131.61 0 0058.022 76.298 131.7 131.7 0 0094.405 16.728 131.663 131.663 0 0080.722-51.714l34.639-3.837zM502.96 40.364a131.441 131.441 0 00-127.637-14.366 131.392 131.392 0 00-52.683 40.358 131.3 131.3 0 00-19.308 126.933 131.336 131.336 0 0038.301 54.187 131.439 131.439 0 00126.14 24.207l30.381 17.055 6.838-36.463a131.358 131.358 0 0039.098-46.935 131.3 131.3 0 00-1.139-118.8 131.358 131.358 0 00-39.991-46.176zm613.37 246.375a131.524 131.524 0 00-59.37 14.231 131.487 131.487 0 00-46.54 39.502 131.401 131.401 0 00-19.386 117.136l-15.707 33.594 34.573 3.965a131.427 131.427 0 00116.58 53.864 131.391 131.391 0 00106.84-71.234 131.433 131.433 0 0014.27-64.788 131.309 131.309 0 00-19.23-63.493 131.353 131.353 0 00-47.82-46.002 131.428 131.428 0 00-64.21-16.775zM959.717 70.476a131.383 131.383 0 00-41.764-37.706 131.43 131.43 0 00-109.525-9.561 131.408 131.408 0 00-47.671 29.898 131.334 131.334 0 00-30.784 47.092 131.298 131.298 0 007.543 109.64 131.35 131.35 0 0036.944 42.436l6.837 36.463 30.382-17.055a131.41 131.41 0 0081.24.559 131.362 131.362 0 0066.033-47.309 131.28 131.28 0 0025.569-77.083 131.281 131.281 0 00-24.675-77.374h-.129z" fill="#414141" opacity=".3"/><path d="M304.995 490.687l-15.706-33.626a131.49 131.49 0 00-6.237-95.584 131.567 131.567 0 00-69.435-66.012 131.636 131.636 0 00-95.814-1.435 131.567 131.567 0 00-71.383 63.902 131.49 131.49 0 00-9.1 95.354 131.543 131.543 0 0058.011 76.24 131.632 131.632 0 0094.358 16.697 131.59 131.59 0 0080.667-51.7l34.639-3.836zM503.799 39.526A131.441 131.441 0 00376.162 25.16a131.392 131.392 0 00-52.683 40.357 131.3 131.3 0 00-19.308 126.934 131.35 131.35 0 0038.3 54.187 131.418 131.418 0 0059.91 28.56 131.457 131.457 0 0066.23-4.353l30.382 17.054 6.838-36.463a131.346 131.346 0 0039.098-46.934 131.301 131.301 0 00-1.139-118.8 131.358 131.358 0 00-39.991-46.176zm613.211 246.407a131.479 131.479 0 00-105.93 53.719 131.36 131.36 0 00-19.369 117.15l-15.707 33.884 34.636 3.836a131.427 131.427 0 00116.58 53.864 131.436 131.436 0 0062.72-21.68 131.308 131.308 0 0044.12-49.554 131.324 131.324 0 0014.27-64.788 131.309 131.309 0 00-19.23-63.493 131.42 131.42 0 00-112.02-62.777l-.07-.161zM960.555 69.638a131.369 131.369 0 00-41.773-37.559 131.433 131.433 0 00-156.961 20.408 131.307 131.307 0 0013.316 198.95l6.87 36.463 30.381-17.055a131.417 131.417 0 0081.24.559 131.362 131.362 0 0066.033-47.309 131.269 131.269 0 00.894-154.457z" fill="#3C3C3C" opacity=".3"/><path d="M305.802 489.687l-15.707-33.625a131.49 131.49 0 00-6.542-95.572 131.568 131.568 0 00-69.657-65.792 131.637 131.637 0 00-95.826-1.116 131.569 131.569 0 00-71.172 64.15 131.49 131.49 0 00-8.769 95.393 131.543 131.543 0 0058.285 76.042 131.633 131.633 0 0094.426 16.358 131.594 131.594 0 0080.484-52.001l34.478-3.837zM504.605 38.688a131.44 131.44 0 00-127.637-14.366 131.392 131.392 0 00-52.683 40.357 131.299 131.299 0 00-19.309 126.934 131.354 131.354 0 0038.301 54.187 131.435 131.435 0 00126.14 24.207l30.382 17.087 6.967-36.463a131.49 131.49 0 0039.043-46.964 131.43 131.43 0 00-1.157-118.784 131.478 131.478 0 00-39.951-46.195h-.096zm613.215 246.406a131.399 131.399 0 00-59.4 14.189 131.374 131.374 0 00-46.57 39.505 131.327 131.327 0 00-23.657 56.282 131.26 131.26 0 004.357 60.894l-15.707 33.626 34.637 3.836a131.381 131.381 0 00116.54 53.797 131.422 131.422 0 0062.69-21.681 131.311 131.311 0 0044.1-49.534 131.192 131.192 0 0014.26-64.755 131.202 131.202 0 00-19.21-63.467 131.206 131.206 0 00-47.78-45.994 131.383 131.383 0 00-64.17-16.794l-.09.096zM961.523 68.8a131.38 131.38 0 00-41.782-37.523 131.435 131.435 0 00-156.91 20.45 131.32 131.32 0 00-39.087 102.501 131.293 131.293 0 0015.63 53.927 131.363 131.363 0 0036.731 42.476l6.837 36.463 30.382-17.087a131.441 131.441 0 0081.227.535 131.389 131.389 0 0066.021-47.303 131.302 131.302 0 00.951-154.44z" fill="#373737" opacity=".3"/><path d="M306.801 488.848l-15.868-33.626a131.55 131.55 0 00-6.19-95.639 131.63 131.63 0 00-69.443-66.081 131.704 131.704 0 00-95.866-1.476 131.635 131.635 0 00-71.446 63.911 131.556 131.556 0 00-9.135 95.404 131.61 131.61 0 0058.02 76.298 131.698 131.698 0 0094.406 16.728 131.66 131.66 0 0080.722-51.714l34.8-3.805zM505.443 37.881a131.443 131.443 0 00-127.637-14.366 131.398 131.398 0 00-52.683 40.358 131.313 131.313 0 00-19.308 126.934 131.333 131.333 0 0038.301 54.186 131.422 131.422 0 0059.909 28.561 131.45 131.45 0 0066.231-4.354l30.381 17.055 6.838-36.463a131.355 131.355 0 0039.098-46.934 131.294 131.294 0 00-1.139-118.8 131.356 131.356 0 00-39.991-46.177zm613.217 246.472a131.56 131.56 0 00-59.38 14.231 131.487 131.487 0 00-46.54 39.502 131.403 131.403 0 00-19.384 117.137l-15.707 33.626 34.641 3.836a131.326 131.326 0 0051.25 42.139 131.475 131.475 0 0065.32 11.725 131.42 131.42 0 00106.85-71.235 131.312 131.312 0 00-4.97-128.28 131.31 131.31 0 00-47.81-46.002 131.447 131.447 0 00-64.21-16.776l-.06.097zM962.2 67.993a131.37 131.37 0 00-41.771-37.588 131.43 131.43 0 00-109.398-9.464 131.4 131.4 0 00-47.61 29.857 131.303 131.303 0 0013.393 198.994l6.838 36.463 30.381-17.055a131.41 131.41 0 0081.24.559 131.362 131.362 0 0066.033-47.309 131.28 131.28 0 0025.569-77.083A131.282 131.282 0 00962.2 67.993z" fill="#323232" opacity=".3"/><path d="M307.479 488.043l-15.707-33.626a131.649 131.649 0 00-6.167-95.71 131.727 131.727 0 00-69.472-66.15 131.793 131.793 0 00-95.934-1.508 131.731 131.731 0 00-71.52 63.933 131.652 131.652 0 00-9.174 95.469 131.706 131.706 0 0058.036 76.374 131.801 131.801 0 0094.467 16.775 131.759 131.759 0 0080.8-51.721l34.671-3.836zm198.803-451a131.444 131.444 0 00-127.685-14.486 131.39 131.39 0 00-52.729 40.353 131.31 131.31 0 00-19.328 126.993 131.345 131.345 0 0038.338 54.202 131.44 131.44 0 00126.217 24.128l30.382 17.055 6.837-36.431a131.431 131.431 0 0039.083-46.948 131.367 131.367 0 00-1.139-118.804 131.42 131.42 0 00-39.976-46.19v.128zM1119.56 283.45a131.47 131.47 0 00-59.38 14.218 131.392 131.392 0 00-46.55 39.502 131.351 131.351 0 00-19.371 117.15l-15.707 33.626 34.578 3.933a131.326 131.326 0 0051.25 42.139 131.435 131.435 0 00128.04-9.956 131.3 131.3 0 0044.12-49.554 131.21 131.21 0 0014.27-64.787 131.313 131.313 0 00-19.23-63.494 131.314 131.314 0 00-47.81-46.001 131.447 131.447 0 00-64.21-16.776zM963.039 67.155a131.37 131.37 0 00-41.753-37.69 131.443 131.443 0 00-109.489-9.574 131.394 131.394 0 00-47.665 29.87 131.34 131.34 0 00-30.799 47.06 131.291 131.291 0 007.461 109.611 131.355 131.355 0 0036.891 42.457l6.87 36.431 30.381-17.055a131.413 131.413 0 0081.241.559 131.364 131.364 0 0066.032-47.309 131.268 131.268 0 00.894-154.457l-.064.097z" fill="#2D2D2D" opacity=".3"/><path d="M308.285 487.205l-15.707-33.626a131.49 131.49 0 00-6.236-95.584 131.57 131.57 0 00-69.435-66.012 131.636 131.636 0 00-95.814-1.435A131.567 131.567 0 0049.71 354.45a131.49 131.49 0 00-9.1 95.354 131.543 131.543 0 0058.01 76.24 131.63 131.63 0 0094.358 16.697 131.589 131.589 0 0080.668-51.7l34.639-3.836zM507.088 36.108a131.441 131.441 0 00-127.636-14.366A131.386 131.386 0 00326.769 62.1a131.3 131.3 0 00-19.309 126.934 131.35 131.35 0 0038.301 54.186 131.43 131.43 0 00126.14 24.207l30.382 17.087 6.87-36.463a131.472 131.472 0 0039.043-46.964 131.43 131.43 0 00-1.156-118.783 131.49 131.49 0 00-39.952-46.196zM1120.3 282.612a131.479 131.479 0 00-105.93 53.72 131.351 131.351 0 00-19.369 117.15l-15.674 33.626 34.643 3.836a131.24 131.24 0 0051.25 42.097 131.38 131.38 0 0065.29 11.7 131.364 131.364 0 0062.68-21.681 131.316 131.316 0 0058.37-114.289 131.31 131.31 0 00-66.99-109.461 131.411 131.411 0 00-64.17-16.794l-.1.096zM963.878 66.316a131.38 131.38 0 00-41.782-37.522 131.435 131.435 0 00-156.911 20.449 131.347 131.347 0 00-30.761 46.976 131.284 131.284 0 00-8.326 55.525 131.314 131.314 0 0052.361 96.403l6.837 36.463 30.382-17.087a131.406 131.406 0 0081.328.697 131.364 131.364 0 0066.151-47.296 131.274 131.274 0 00.882-154.608h-.161z" fill="#282828" opacity=".3"/><path d="M309.124 486.366l-15.707-33.594a131.555 131.555 0 00-6.313-95.635 131.628 131.628 0 00-69.532-65.992 131.699 131.699 0 00-95.871-1.349 131.637 131.637 0 00-71.362 64.01 131.556 131.556 0 00-9.003 95.42 131.611 131.611 0 0058.132 76.219 131.698 131.698 0 0094.433 16.592 131.658 131.658 0 0080.648-51.835l34.575-3.836zM507.927 35.399A131.442 131.442 0 00380.29 21.033a131.393 131.393 0 00-52.683 40.357 131.299 131.299 0 00-19.309 126.934 131.354 131.354 0 0038.301 54.187 131.434 131.434 0 00126.14 24.207l30.382 17.054 6.87-36.463a131.346 131.346 0 0039.098-46.934 131.301 131.301 0 00-1.139-118.8A131.356 131.356 0 00507.959 35.4h-.032zm613.213 246.375a131.537 131.537 0 00-105.92 53.733 131.52 131.52 0 00-23.673 56.256 131.395 131.395 0 004.293 60.881l-15.707 33.593 34.637 3.837a131.427 131.427 0 00116.58 53.863 131.384 131.384 0 00106.84-71.234 131.43 131.43 0 0014.27-64.788 131.309 131.309 0 00-19.23-63.493 131.353 131.353 0 00-47.82-46.002 131.428 131.428 0 00-64.21-16.775l-.06.129zM964.748 65.51a131.368 131.368 0 00-41.771-37.588 131.432 131.432 0 00-109.398-9.463 131.398 131.398 0 00-47.61 29.857 131.304 131.304 0 00-23.404 156.527 131.362 131.362 0 0036.797 42.467l6.838 36.463 30.381-17.055a131.417 131.417 0 0081.24.559 131.358 131.358 0 0066.033-47.31 131.268 131.268 0 00.894-154.456z" fill="#232323" opacity=".3"/><path d="M310.027 485.56l-15.771-33.561a131.654 131.654 0 00-6.167-95.71 131.729 131.729 0 00-69.473-66.15 131.793 131.793 0 00-95.934-1.508 131.732 131.732 0 00-71.519 63.933 131.651 131.651 0 00-9.174 95.469 131.706 131.706 0 0058.035 76.374 131.804 131.804 0 0094.468 16.775 131.756 131.756 0 0080.799-51.721l34.736-3.901zm198.739-451a131.44 131.44 0 00-127.637-14.366 131.392 131.392 0 00-52.683 40.358 131.3 131.3 0 00-19.308 126.934 131.333 131.333 0 0038.301 54.186 131.422 131.422 0 0059.909 28.561 131.45 131.45 0 0066.231-4.354l30.381 17.087 6.838-36.463a131.42 131.42 0 0039.082-46.948 131.36 131.36 0 00-1.139-118.804 131.427 131.427 0 00-39.975-46.19zm613.214 246.569a131.47 131.47 0 00-59.38 14.218 131.5 131.5 0 00-46.56 39.502 131.365 131.365 0 00-23.67 56.263 131.355 131.355 0 004.308 60.887l-15.803 33.561 34.635 3.836a131.392 131.392 0 0051.25 42.098 131.438 131.438 0 0065.3 11.699 131.364 131.364 0 0062.68-21.681 131.316 131.316 0 0044.1-49.533 131.196 131.196 0 0014.26-64.756 131.298 131.298 0 00-19.2-63.467 131.362 131.362 0 00-47.78-45.994 131.411 131.411 0 00-64.17-16.794l.03.161zM965.523 64.672a131.38 131.38 0 00-41.782-37.522 131.432 131.432 0 00-109.336-9.395 131.4 131.4 0 00-47.575 29.844 131.345 131.345 0 00-30.761 46.976 131.3 131.3 0 007.304 109.452 131.354 131.354 0 0036.731 42.476l6.87 36.463 30.381-17.087a131.413 131.413 0 0081.241.559 131.364 131.364 0 0066.032-47.309 131.273 131.273 0 00.895-154.457z" fill="#1E1E1E" opacity=".3"/><path d="M310.769 484.721l-15.707-33.626a131.494 131.494 0 00-6.236-95.584 131.572 131.572 0 00-69.436-66.012 131.636 131.636 0 00-95.814-1.435 131.575 131.575 0 00-71.383 63.902 131.49 131.49 0 00-9.099 95.354 131.543 131.543 0 0058.01 76.24 131.634 131.634 0 0094.358 16.698 131.597 131.597 0 0080.668-51.701l34.639-3.836zM509.572 33.722A131.442 131.442 0 00381.908 19.38a131.386 131.386 0 00-52.679 40.385 131.308 131.308 0 0019.1 181.14 131.427 131.427 0 00126.185 24.105l30.381 17.087 6.741-36.431a131.456 131.456 0 0039.06-46.959 131.398 131.398 0 00-1.157-118.794 131.464 131.464 0 00-39.967-46.19zm613.208 246.407a131.468 131.468 0 00-105.93 53.72 131.368 131.368 0 00-19.366 117.15l-15.674 33.625 34.54 3.934a131.399 131.399 0 0051.25 42.097 131.419 131.419 0 00127.98-9.982 131.316 131.316 0 0044.1-49.533 131.194 131.194 0 0014.26-64.756 131.195 131.195 0 00-19.21-63.466 131.21 131.21 0 00-47.78-45.995 131.394 131.394 0 00-64.17-16.794zM966.361 63.834a131.38 131.38 0 00-41.784-37.492 131.431 131.431 0 00-109.303-9.37 131.412 131.412 0 00-47.56 29.833 131.306 131.306 0 0013.196 198.86l6.838 36.463 30.382-17.087a131.407 131.407 0 0081.269.605 131.363 131.363 0 0066.072-47.305 131.277 131.277 0 0025.585-77.109 131.277 131.277 0 00-24.695-77.398z" fill="#191919" opacity=".3"/><path d="M311.607 483.883L295.9 450.289a131.555 131.555 0 00-6.19-95.639 131.63 131.63 0 00-69.443-66.081 131.704 131.704 0 00-95.866-1.476 131.635 131.635 0 00-71.446 63.911 131.554 131.554 0 00-9.135 95.403 131.608 131.608 0 0058.021 76.299 131.697 131.697 0 0094.405 16.727 131.652 131.652 0 0080.722-51.714l34.639-3.836zM510.411 32.884a131.441 131.441 0 00-127.637-14.366 131.385 131.385 0 00-52.683 40.358 131.299 131.299 0 00-19.309 126.933 131.354 131.354 0 0038.301 54.187 131.43 131.43 0 00126.14 24.207l30.382 17.055 6.837-36.463a131.35 131.35 0 0039.099-46.935 131.3 131.3 0 00-1.139-118.8 131.367 131.367 0 00-39.991-46.176zm613.209 246.407a131.55 131.55 0 00-59.37 14.231 131.487 131.487 0 00-46.54 39.502 131.395 131.395 0 00-19.387 117.137l-15.707 33.593 34.644 3.837a131.326 131.326 0 0051.25 42.139 131.434 131.434 0 0065.32 11.724 131.389 131.389 0 0062.72-21.68 131.3 131.3 0 0044.12-49.554 131.212 131.212 0 0014.27-64.788 131.309 131.309 0 00-19.23-63.493 131.403 131.403 0 00-47.81-46.002 131.485 131.485 0 00-64.21-16.775l-.07.129zM967.167 63.028a131.369 131.369 0 00-41.771-37.588 131.433 131.433 0 00-109.398-9.464 131.398 131.398 0 00-47.61 29.857 131.302 131.302 0 00-23.404 156.527 131.362 131.362 0 0036.797 42.467l6.838 36.463L819 264.235a131.403 131.403 0 0081.24.559 131.362 131.362 0 0066.033-47.309 131.274 131.274 0 00.894-154.457z" fill="#141414" opacity=".3"/><path d="M312.414 483.077l-15.675-33.626a131.65 131.65 0 00-6.167-95.71 131.73 131.73 0 00-69.472-66.15 131.8 131.8 0 00-95.935-1.508 131.734 131.734 0 00-71.519 63.934 131.651 131.651 0 00-9.174 95.469 131.702 131.702 0 0058.036 76.373 131.79 131.79 0 0094.467 16.775 131.757 131.757 0 0080.8-51.72l34.639-3.837zM511.249 32.078a131.443 131.443 0 00-127.637-14.366A131.39 131.39 0 00330.93 58.07a131.305 131.305 0 0018.992 181.12 131.439 131.439 0 00126.14 24.207l30.381 17.087 6.773-36.463a131.421 131.421 0 0039.083-46.948 131.367 131.367 0 00-1.139-118.804 131.426 131.426 0 00-39.975-46.19h.064zm613.181 246.406a131.482 131.482 0 00-105.91 53.733 131.344 131.344 0 00-23.668 56.259 131.344 131.344 0 004.31 60.878l-15.707 33.626 34.635 3.836a131.392 131.392 0 0051.25 42.098 131.449 131.449 0 0065.3 11.699 131.364 131.364 0 0062.68-21.681 131.316 131.316 0 0044.1-49.533 131.196 131.196 0 0014.26-64.756 131.298 131.298 0 00-19.2-63.467 131.362 131.362 0 00-47.78-45.994 131.411 131.411 0 00-64.17-16.794l-.1.096zM967.974 62.19a131.38 131.38 0 00-41.782-37.523 131.432 131.432 0 00-109.336-9.395 131.404 131.404 0 00-47.575 29.844 131.303 131.303 0 00-23.456 156.429 131.35 131.35 0 0036.73 42.476l6.87 36.463 30.382-17.087a131.417 131.417 0 0081.24.559 131.36 131.36 0 0066.032-47.31 131.274 131.274 0 00.895-154.456z" fill="#0F0F0F" opacity=".3"/><path d="M313.252 482.24l-15.707-33.464a131.489 131.489 0 00-6.236-95.584 131.57 131.57 0 00-69.435-66.012 131.641 131.641 0 00-95.814-1.436 131.572 131.572 0 00-71.383 63.903 131.49 131.49 0 00-9.1 95.354 131.542 131.542 0 0058.011 76.24 131.63 131.63 0 0094.357 16.697 131.593 131.593 0 0080.668-51.7l34.639-3.998zm198.803-451a131.441 131.441 0 00-127.636-14.366 131.386 131.386 0 00-52.683 40.358 131.299 131.299 0 00-19.309 126.934 131.36 131.36 0 0038.301 54.187 131.418 131.418 0 0059.91 28.56 131.446 131.446 0 0066.23-4.354l30.382 17.087 6.87-36.462a131.458 131.458 0 0039.059-46.96 131.395 131.395 0 00-1.157-118.793 131.443 131.443 0 00-39.967-46.19zm613.215 246.407a131.47 131.47 0 00-59.38 14.218 131.5 131.5 0 00-46.56 39.502 131.364 131.364 0 00-23.67 56.264 131.351 131.351 0 004.308 60.886l-15.707 33.626 34.639 3.836a131.427 131.427 0 00116.58 53.864 131.472 131.472 0 0062.72-21.68 131.394 131.394 0 0044.12-49.555 131.312 131.312 0 0014.26-64.787 131.187 131.187 0 00-19.22-63.493 131.415 131.415 0 00-112.03-62.778l-.06.097zM968.844 61.352a131.37 131.37 0 00-41.782-37.522 131.428 131.428 0 00-109.335-9.395 131.404 131.404 0 00-47.575 29.844 131.334 131.334 0 00-30.761 46.976 131.283 131.283 0 00-8.326 55.525 131.323 131.323 0 0052.361 96.403l6.837 36.463 30.382-17.087a131.407 131.407 0 0081.255.582 131.36 131.36 0 0066.052-47.307 131.286 131.286 0 0025.577-77.096 131.28 131.28 0 00-24.685-77.386z" fill="#0A0A0A" opacity=".3"/><path d="M314.091 481.401l-15.707-33.593a131.557 131.557 0 00-6.191-95.64 131.638 131.638 0 00-69.443-66.081 131.704 131.704 0 00-95.866-1.476 131.638 131.638 0 00-71.446 63.912 131.554 131.554 0 00-9.135 95.403 131.61 131.61 0 0058.021 76.298 131.7 131.7 0 0094.406 16.728 131.661 131.661 0 0080.722-51.714l34.639-3.837zM512.894 30.435a131.443 131.443 0 00-127.629-14.323 131.388 131.388 0 00-52.667 40.366 131.292 131.292 0 00-19.287 126.924 131.341 131.341 0 0038.301 54.178 131.445 131.445 0 00126.127 24.206l30.381 17.055 6.805-36.399a131.347 131.347 0 0039.099-46.934 131.304 131.304 0 00-1.139-118.8 131.366 131.366 0 00-39.991-46.176v-.097zM1126.01 276.81a131.524 131.524 0 00-59.37 14.231 131.51 131.51 0 00-46.55 39.502 131.516 131.516 0 00-23.673 56.255 131.394 131.394 0 004.293 60.881l-15.707 33.594 34.637 3.836a131.427 131.427 0 00116.58 53.864 131.436 131.436 0 0062.72-21.68 131.308 131.308 0 0044.12-49.554 131.433 131.433 0 0014.27-64.788 131.309 131.309 0 00-19.23-63.493 131.353 131.353 0 00-47.82-46.002 131.428 131.428 0 00-64.21-16.775l-.06.129zM969.651 60.546a131.385 131.385 0 00-41.805-37.358 131.428 131.428 0 00-109.176-9.231 131.398 131.398 0 00-47.488 29.807 131.34 131.34 0 00-30.731 46.886 131.31 131.31 0 007.126 109.291 131.376 131.376 0 0036.558 42.501l6.838 36.463 30.382-17.055a131.41 131.41 0 0081.24.559 131.364 131.364 0 0066.032-47.309 131.274 131.274 0 00.895-154.457l.129-.097z" fill="#050505" opacity=".3"/><path d="M314.897 480.595l-15.707-33.626a131.49 131.49 0 00-6.236-95.584 131.57 131.57 0 00-69.435-66.012 131.636 131.636 0 00-95.814-1.435 131.574 131.574 0 00-71.383 63.902 131.49 131.49 0 00-9.1 95.354 131.542 131.542 0 0058.011 76.24 131.63 131.63 0 0094.357 16.698 131.595 131.595 0 0080.668-51.701l34.639-3.836zM513.7 29.66a131.44 131.44 0 00-127.64-14.353 131.387 131.387 0 00-52.679 40.365 131.3 131.3 0 00-19.292 126.939 131.352 131.352 0 0038.31 54.182 131.44 131.44 0 00126.146 24.186l30.35 17.087 6.87-36.463a131.482 131.482 0 0039.043-46.964 131.425 131.425 0 00-1.157-118.783A131.476 131.476 0 00513.7 29.66zm613.21 246.343a131.399 131.399 0 00-59.4 14.189 131.341 131.341 0 00-70.222 95.787 131.208 131.208 0 004.362 60.894l-15.712 33.626 34.642 3.836a131.321 131.321 0 0051.25 42.098 131.39 131.39 0 0065.29 11.699 131.4 131.4 0 0062.69-21.681 131.29 131.29 0 0044.09-49.533 131.316 131.316 0 0014.27-64.756 131.31 131.31 0 00-66.99-109.461 131.383 131.383 0 00-64.17-16.794l-.1.096zM970.489 59.707a131.377 131.377 0 00-41.781-37.522 131.438 131.438 0 00-156.911 20.449 131.334 131.334 0 00-30.761 46.976 131.283 131.283 0 00-8.326 55.525 131.323 131.323 0 0052.361 96.403l6.87 36.367 30.381-17.087a131.417 131.417 0 0081.24.559 131.358 131.358 0 0066.033-47.31 131.278 131.278 0 0025.569-77.083 131.276 131.276 0 00-24.675-77.373v.096z" fill="#000" opacity=".3"/></g><path d="M825.84 444l-4-4 53.5-55.5h3.5l2 3-55 56.5zm-357-4l-56.5-55h-1l-.5 2.5 17 31.5 35.5 26 5.5-5z" fill="#fff"/><path d="M468.063 441.553l-56.732-56.709a329.176 329.176 0 01107.357-71.878 329.26 329.26 0 01126.763-25.034v80.244a249.43 249.43 0 00-96.042 18.939 249.353 249.353 0 00-81.346 54.438zm354.775 0a249.36 249.36 0 00-81.347-54.435 249.445 249.445 0 00-96.04-18.942v-80.244a329.272 329.272 0 01126.832 25.009 329.158 329.158 0 01107.416 71.903l-56.861 56.709zM394.431 619H314.22a328.716 328.716 0 0125.004-126.788 328.821 328.821 0 0171.946-107.368l56.893 56.71a249.253 249.253 0 00-54.603 81.348A249.199 249.199 0 00394.431 619zm582.186 0h-80.211a249.207 249.207 0 00-73.471-177.317l56.732-56.71a329.012 329.012 0 0171.906 107.314A328.918 328.918 0 01976.617 619zM724.533 117.061h-.387a516.247 516.247 0 00-147.683-1.418 2.699 2.699 0 01-1.99-.517 2.677 2.677 0 01-1.042-1.772 2.691 2.691 0 011.3-2.686c.304-.179.641-.296.99-.345a522.512 522.512 0 01149.232 1.451 2.675 2.675 0 01-.42 5.32v-.033z" fill="#fff"/><path d="M725.533 104.488a10.063 10.063 0 018.266 7.536 10.057 10.057 0 01-3.809 10.514 10.068 10.068 0 01-15.08-3.851 10.055 10.055 0 013.158-12.357 10.065 10.065 0 017.465-1.842zm-150.263-1.483a10.063 10.063 0 00-8.406 7.385 10.056 10.056 0 003.621 10.585 10.067 10.067 0 0015.148-3.59 10.057 10.057 0 00-10.363-14.38zM134.574 612.1a2.643 2.643 0 01-2.645-2.708 526.631 526.631 0 015.386-65.736 2.694 2.694 0 013.064-2.257 2.687 2.687 0 012.21 2.014c.085.343.101.699.048 1.049a509.071 509.071 0 00-5.354 65.027 2.677 2.677 0 01-2.709 2.611z" fill="#fff"/><path d="M130.027 543.14a10.055 10.055 0 017.472-8.32 10.07 10.07 0 0110.547 3.722 10.06 10.06 0 01.591 11.165 10.07 10.07 0 01-10.096 4.814 10.045 10.045 0 01-6.623-3.922 10.026 10.026 0 01-1.891-7.459zm-5.387 65.608a10.056 10.056 0 006.033 9.409 10.067 10.067 0 0013.858-7.066 10.052 10.052 0 00-4.078-10.406 10.07 10.07 0 00-12.729 1.006 10.062 10.062 0 00-3.084 7.057zm128.913-314.981a2.579 2.579 0 01-1.709-.612 2.708 2.708 0 01-.355-3.772c9.675-11.639 20.061-22.891 30.672-33.465a510.663 510.663 0 0140.767-36.689 2.642 2.642 0 013.741.387 2.71 2.71 0 01-.387 3.772 512.152 512.152 0 00-40.38 36.302c-10.514 10.478-20.738 21.633-30.382 33.11a2.607 2.607 0 01-1.967.967z" fill="#fff"/><path d="M261.649 297.249a10.065 10.065 0 01-17.686-5.732 10.058 10.058 0 0111.202-10.787 10.06 10.06 0 015.355 2.333 10.019 10.019 0 013.518 6.858 10.026 10.026 0 01-2.389 7.328zm69.181-67.703a10.062 10.062 0 003.198-10.713 10.057 10.057 0 00-8.68-7.05 10.066 10.066 0 00-9.836 5.321 10.055 10.055 0 001.159 11.12 10.065 10.065 0 0014.159 1.322zm710.19 68.767c-.4-.004-.8-.102-1.17-.287-.36-.184-.68-.45-.92-.777-10.68-12.896-22.16-25.792-34.09-37.624-10.968-10.961-22.579-21.504-34.351-31.369a2.678 2.678 0 01.345-4.586 2.682 2.682 0 013.074.492 502.364 502.364 0 0134.702 31.691 512.096 512.096 0 0134.48 38.172c.44.55.66 1.253.59 1.958a2.732 2.732 0 01-.95 1.814 2.63 2.63 0 01-1.71.516z" fill="#fff"/><path d="M1048.28 288.931a9.997 9.997 0 012.28 5.373c.22 1.977-.16 3.973-1.08 5.735a10.145 10.145 0 01-4.09 4.166 10.085 10.085 0 01-11.14-.987 10.073 10.073 0 01-3.29-4.82c-.6-1.897-.62-3.928-.06-5.837a10.105 10.105 0 013.19-4.888 10.064 10.064 0 017.36-2.313 10.061 10.061 0 016.83 3.571zm-69.276-69.863a10.063 10.063 0 00-16.553 8.481 10.057 10.057 0 006.96 8.757 10.07 10.07 0 0010.754-3.085 10.06 10.06 0 002.345-7.316 10.06 10.06 0 00-3.506-6.837zm177.226 393.064c-.7 0-1.37-.278-1.87-.774a2.622 2.622 0 01-.77-1.869 512.315 512.315 0 00-5-62.964 2.62 2.62 0 010-1.08c.07-.357.22-.694.43-.992a2.707 2.707 0 011.8-1.109c.36-.053.73-.031 1.08.063.35.094.68.258.97.484.28.225.52.506.69.826.18.32.28.672.32 1.034a515.47 515.47 0 015.09 63.641c.01.351-.05.701-.18 1.029-.12.328-.31.628-.56.882-.24.255-.53.459-.85.601-.32.142-.67.22-1.02.228h-.13z" fill="#fff"/><path d="M1166.2 608.747c.03 1.989-.52 3.944-1.59 5.619a10.073 10.073 0 01-15.45 1.821 9.972 9.972 0 01-2.85-5.096 9.99 9.99 0 01.46-5.822 10.023 10.023 0 013.61-4.584 10.09 10.09 0 015.56-1.803c2.67-.044 5.24.97 7.16 2.818a10.066 10.066 0 013.1 7.047zm-5.1-63.511a10.036 10.036 0 00-2.47-5.292 10.052 10.052 0 00-4.99-3.03 10.086 10.086 0 00-5.84.253c-1.87.66-3.51 1.861-4.71 3.452a10.093 10.093 0 00-2 5.485 9.996 9.996 0 001.39 5.673 10.054 10.054 0 0010.07 4.839c1.31-.182 2.58-.621 3.72-1.292a10.094 10.094 0 002.93-2.62 10.153 10.153 0 001.7-3.544c.32-1.282.39-2.615.2-3.924z" fill="#fff"/><path d="M314.897 480.596L299.19 446.97a131.49 131.49 0 00-6.237-95.584 131.567 131.567 0 00-69.435-66.012 131.636 131.636 0 00-95.814-1.435 131.575 131.575 0 00-71.383 63.902 131.491 131.491 0 00-9.099 95.354 131.543 131.543 0 0058.01 76.24 131.628 131.628 0 00175.026-35.003l34.639-3.836z" fill="#FF696D"/><path d="M173.922 542.689a135.495 135.495 0 01-79.346-25.7 135.41 135.41 0 01-49.242-67.293 135.356 135.356 0 01-.47-83.373 135.408 135.408 0 0148.48-67.844 135.502 135.502 0 01158.701-1.853 135.414 135.414 0 0150.053 66.693 135.356 135.356 0 011.478 83.361l17.416 37.269-38.444 4.255a135.92 135.92 0 01-47.883 40.052 135.978 135.978 0 01-60.743 14.433zm0-262.688a127.434 127.434 0 00-62.252 16.269 127.383 127.383 0 00-46.358 44.605 127.306 127.306 0 00-4.801 124.377 127.36 127.36 0 0042.781 48.043 127.448 127.448 0 00124.144 9.644 127.393 127.393 0 0049.693-40.86l1.032-1.451 30.834-3.417-13.998-29.951.484-1.483a127.393 127.393 0 004.207-59.054 127.427 127.427 0 00-22.939-54.582 127.487 127.487 0 00-45.137-38.331 127.537 127.537 0 00-57.593-13.809h-.097z" fill="#fff"/><path d="M513.7 29.661a131.43 131.43 0 00-127.641-14.353 131.394 131.394 0 00-52.679 40.365 131.294 131.294 0 00-19.291 126.94 131.343 131.343 0 0038.31 54.181 131.44 131.44 0 00126.146 24.186l30.349 17.087 6.87-36.463a131.483 131.483 0 0039.044-46.964 131.429 131.429 0 00-1.157-118.784A131.496 131.496 0 00513.7 29.661z" fill="#FF4D52"/><path d="M511.83 284.353l-33.736-18.956a135.516 135.516 0 01-68.13 3.667 135.486 135.486 0 01-61.276-29.995 135.365 135.365 0 01-18.166-186.42 135.456 135.456 0 0154.334-41.251 135.508 135.508 0 01131.199 15.039 135.427 135.427 0 0140.989 47.272 135.36 135.36 0 011.805 121.718 135.423 135.423 0 01-39.569 48.466l-7.45 40.46zm-32.865-27.661l27.027 15.185 6.128-32.498 1.225-.935a127.346 127.346 0 0045.404-64.162 127.302 127.302 0 00-.924-78.587 127.35 127.35 0 00-46.899-63.078A127.43 127.43 0 00435.915 9.07a127.427 127.427 0 00-74.554 24.955 127.344 127.344 0 00-45.701 63.952 127.291 127.291 0 00.559 78.589 127.341 127.341 0 0046.605 63.296 127.842 127.842 0 0055.135 22.378 127.87 127.87 0 0059.296-5.001l1.71-.548z" fill="#fff"/><path d="M1126.91 276.003a131.399 131.399 0 00-59.4 14.189 131.341 131.341 0 00-70.222 95.787 131.208 131.208 0 004.362 60.894l-15.712 33.626 34.642 3.836a131.321 131.321 0 0051.25 42.098 131.39 131.39 0 0065.29 11.699 131.4 131.4 0 0062.69-21.681 131.29 131.29 0 0044.09-49.533 131.316 131.316 0 0014.27-64.756 131.31 131.31 0 00-66.99-109.461 131.411 131.411 0 00-64.17-16.794l-.1.096z" fill="#EF0006"/><path d="M1126.91 542.689a136.025 136.025 0 01-60.69-14.454 136.006 136.006 0 01-47.84-40.031l-38.441-4.255 17.416-37.269a135.365 135.365 0 011.483-83.373 135.35 135.35 0 0150.072-66.695 135.477 135.477 0 0179.66-24.725c28.5.34 56.16 9.656 79.06 26.621a135.44 135.44 0 0148.46 67.873 135.352 135.352 0 01-.51 83.384 135.46 135.46 0 01-49.29 67.273 135.507 135.507 0 01-79.38 25.651zm-134.973-65.478l30.833 3.417 1.03 1.451a126.655 126.655 0 00168.4 33.504 126.546 126.546 0 0055.76-73.367 126.5 126.5 0 00-8.78-91.718 126.602 126.602 0 00-68.66-61.469 126.66 126.66 0 00-92.16 1.353 126.609 126.609 0 00-66.83 63.458 126.53 126.53 0 00-6.08 91.937l.48 1.483-13.993 29.951z" fill="#fff"/><path d="M970.489 59.707a131.38 131.38 0 00-41.782-37.522 131.434 131.434 0 00-156.911 20.449 131.315 131.315 0 00-39.087 102.501 131.31 131.31 0 0015.631 53.928 131.346 131.346 0 0036.73 42.475l6.87 36.367 30.382-17.087a131.417 131.417 0 0081.24.559 131.355 131.355 0 0066.032-47.31 131.271 131.271 0 00.895-154.456v.096z" fill="#FF2B30"/><path d="M789.005 284.353l-7.579-40.428a135.423 135.423 0 01-37.336-44.034 135.35 135.35 0 01-6.62-112.597 135.404 135.404 0 0131.918-48.102 135.474 135.474 0 0149.061-30.443A135.514 135.514 0 01930.84 18.756a135.447 135.447 0 0142.907 38.63 135.367 135.367 0 01-.573 158.258 135.456 135.456 0 01-67.16 49.051 135.51 135.51 0 01-83.176.572l-33.833 19.086zM863.573 9.124a127.43 127.43 0 00-74.374 24.147 127.348 127.348 0 00-46.251 63.03 127.305 127.305 0 00-.701 78.165 127.351 127.351 0 0045.114 63.849l1.225.935 6.128 32.497 27.06-15.184 1.677.548a127.403 127.403 0 00106.021-12.165 127.293 127.293 0 0059.546-88.524 127.28 127.28 0 00-28.733-102.736 127.37 127.37 0 00-43.498-33.037 127.407 127.407 0 00-53.343-11.783l.129.258z" fill="#fff"/></svg>