<svg width="19" height="12" fill="none" xmlns="http://www.w3.org/2000/svg"><path d="M18.9 10.6a1.402 1.402 0 00-.065-.13c-.33-.625-.96-1.392-1.89-2.302l-.02-.02-.01-.01-.009-.011h-.01c-.422-.424-.69-.708-.801-.854-.205-.278-.25-.559-.139-.844.08-.215.376-.67.89-1.364.27-.368.485-.663.643-.885 1.141-1.597 1.636-2.617 1.484-3.061l-.059-.104c-.04-.063-.141-.12-.306-.172-.165-.052-.376-.06-.633-.026l-2.85.02a.352.352 0 00-.197.006l-.129.031-.05.026-.039.032a.45.45 0 00-.109.109.727.727 0 00-.099.182 17.37 17.37 0 01-1.058 2.343c-.244.43-.468.804-.673 1.12a5.357 5.357 0 01-.514.697c-.139.15-.264.269-.376.36-.112.09-.198.128-.257.114a6.937 6.937 0 01-.169-.042.68.68 0 01-.222-.255 1.187 1.187 0 01-.114-.406 4.726 4.726 0 01-.034-.422 9.238 9.238 0 01.004-.5c.007-.215.01-.36.01-.437 0-.264.005-.55.015-.86l.025-.733c.007-.18.01-.372.01-.573 0-.201-.012-.36-.035-.474a1.692 1.692 0 00-.103-.333.555.555 0 00-.203-.25c-.09-.059-.2-.106-.332-.14-.35-.084-.794-.129-1.335-.136-1.227-.014-2.015.07-2.365.25a1.34 1.34 0 00-.375.312c-.12.153-.136.237-.05.25.396.063.676.212.84.448l.06.125c.046.09.093.25.139.48.046.228.076.482.089.76.033.506.033.94 0 1.3-.033.362-.064.643-.094.844a1.756 1.756 0 01-.253.719.175.175 0 01-.049.052.708.708 0 01-.267.052c-.092 0-.204-.049-.336-.146a2.424 2.424 0 01-.41-.4 5.366 5.366 0 01-.48-.714 12.671 12.671 0 01-.555-1.083l-.158-.302a26.525 26.525 0 01-.405-.849c-.172-.371-.324-.73-.456-1.078A.684.684 0 003.78.983L3.73.952a1.01 1.01 0 00-.386-.156l-2.71.02c-.277 0-.465.066-.564.198l-.04.063a.352.352 0 00-.03.167c0 .076.02.17.06.28a35.19 35.19 0 001.29 2.833c.465.91.87 1.642 1.212 2.197a26 26 0 001.049 1.572c.356.493.592.81.707.948.115.139.206.243.272.312l.247.25c.159.167.391.367.698.599.307.233.646.462 1.019.688.372.225.806.409 1.3.551.495.143.977.2 1.445.172h1.138c.23-.02.405-.097.524-.229l.04-.052a.714.714 0 00.074-.193 1.11 1.11 0 00.034-.286 3.613 3.613 0 01.064-.807c.05-.24.106-.42.169-.541a1.33 1.33 0 01.38-.458.631.631 0 01.08-.037c.158-.055.344-.002.559.162.214.163.415.364.603.604s.414.508.678.807c.264.298.494.52.692.666l.198.125c.132.083.304.16.515.23.21.069.395.086.553.051l2.533-.041c.25 0 .445-.044.584-.13.138-.087.22-.183.247-.287a.848.848 0 00.005-.354 1.363 1.363 0 00-.07-.276z" fill="#BEBEBE"/></svg>