<svg width="107" height="79" viewBox="0 0 107 79" fill="none" xmlns="http://www.w3.org/2000/svg">
<path d="M105.433 75.8651H100.299V54.3214C101.325 53.4194 101.974 52.0988 101.974 50.6286C101.974 47.9168 99.7681 45.7108 97.0565 45.7108H86.8023L85.2188 20.3764C85.1672 19.5503 84.4821 18.9069 83.6546 18.9069H76.9535C76.1259 18.9069 75.4408 19.5503 75.3892 20.3764L73.8058 45.7108H70.0497L68.4662 20.3764C68.4146 19.5503 67.7295 18.9069 66.902 18.9069H60.2011C59.3735 18.9069 58.6885 19.5503 58.6368 20.3764L57.0534 45.7108H53.2973L51.7138 20.3764C51.6622 19.5503 50.9771 18.9069 50.1496 18.9069H43.4487C42.6211 18.9069 41.9361 19.5503 41.8844 20.3764L40.301 45.7108H35.9353L34.9643 2.01173C34.9455 1.15991 34.2494 0.479248 33.3974 0.479248H23.3459C22.4938 0.479248 21.7977 1.15991 21.7789 2.01173L20.6589 52.4119H8.26826C5.55648 52.4119 3.35044 54.6181 3.35044 57.3297C3.35044 58.7999 3.99975 60.1205 5.02566 61.0224V75.8651H1.56738C0.701769 75.8651 0 76.5669 0 77.4325C0 78.2981 0.701769 78.9999 1.56738 78.9999H105.433C106.298 78.9999 107 78.2981 107 77.4325C107 76.5669 106.298 75.8651 105.433 75.8651ZM20.5095 59.113H14.97C14.1044 59.113 13.4026 59.8147 13.4026 60.6803C13.4026 61.546 14.1044 62.2477 14.97 62.2477H20.4399L20.1373 75.8651H8.16042V62.2448C8.19637 62.2456 8.2321 62.2475 8.26826 62.2475C9.13387 62.2475 9.83564 61.5457 9.83564 60.6801C9.83564 59.8145 9.13387 59.1127 8.26826 59.1127C7.28499 59.1127 6.4852 58.3128 6.4852 57.3297C6.4852 56.3464 7.2852 55.5466 8.26826 55.5466H20.5887L20.5095 59.113ZM78.4258 22.0416H82.1818L83.6613 45.7108H76.9466L78.4258 22.0416ZM61.6734 22.0416H65.4295L66.9089 45.7108H60.1942L61.6734 22.0416ZM44.921 22.0416H48.6771L50.1562 45.7108H43.4416L44.921 22.0416ZM26.8041 75.8651H23.2731L24.8783 3.61381H31.8641L32.7997 45.7108H30.0467C27.3349 45.7108 25.1287 47.917 25.1287 50.6286C25.1287 52.0988 25.778 53.4194 26.8041 54.3214V75.8651ZM97.0565 52.4117H93.7061C92.8405 52.4117 92.1387 53.1134 92.1387 53.979C92.1387 54.8447 92.8405 55.5464 93.7061 55.5464H97.0565C97.0927 55.5464 97.1284 55.5443 97.1644 55.5437V75.8651H29.9387V55.5437C29.9746 55.5445 30.0104 55.5464 30.0465 55.5464H87.0063C87.8719 55.5464 88.5736 54.8447 88.5736 53.979C88.5736 53.1134 87.8719 52.4117 87.0063 52.4117H30.0465C29.0632 52.4117 28.2633 51.6117 28.2633 50.6286C28.2633 49.6455 29.0632 48.8456 30.0465 48.8456H97.0563C98.0396 48.8456 98.8396 49.6453 98.8396 50.6286C98.8396 51.6119 98.0396 52.4117 97.0565 52.4117Z" fill="white"/>
</svg>
