 <svg xmlns="http://www.w3.org/2000/svg" xmlns:xlink="http://www.w3.org/1999/xlink">

<symbol id="wifi" viewBox="0 0 29 29">
<path 
d="M24.807 12.1696C24.8419 8.08094 21.3596 4.33274 17.0444 3.81443C16.9586 3.80425 16.8651 3.78876 16.7661 3.77237C16.5525 3.73698 16.3316 3.70059 16.1087 3.70059C15.2243 3.70059 14.9878 4.32184 14.9256 4.69236C14.8651 5.0526 14.9228 5.35512 15.0969 5.5919C15.3898 5.99015 15.9051 6.06085 16.319 6.1175C16.4404 6.13425 16.5548 6.14983 16.6507 6.17136C20.5276 7.03766 21.8331 8.39967 22.4711 12.2437C22.4867 12.3376 22.4937 12.4534 22.5012 12.5761C22.529 13.0356 22.587 13.9916 23.6148 13.9916H23.6149C23.7004 13.9916 23.7924 13.9842 23.8881 13.9697C24.8452 13.8242 24.8152 12.9503 24.8008 12.5305C24.7968 12.4122 24.7929 12.3004 24.8029 12.226C24.8056 12.2072 24.8069 12.1884 24.807 12.1696Z"/>
<path 
d="M15.8578 2.31364C15.9726 2.32192 16.0814 2.32985 16.1719 2.34372C22.5383 3.32278 25.4661 6.33914 26.2775 12.7553C26.2912 12.8644 26.2934 12.9974 26.2957 13.1383C26.3038 13.6396 26.3204 14.6824 27.4403 14.704L27.4751 14.7044C27.8263 14.7044 28.1057 14.5985 28.3056 14.3893C28.6542 14.0247 28.6299 13.483 28.6102 13.0476C28.6055 12.9408 28.6009 12.8402 28.6021 12.7521C28.683 6.19 23.0028 0.239507 16.4466 0.0182246C16.4194 0.0173239 16.3934 0.0187649 16.3672 0.0224575C16.3543 0.0243488 16.3305 0.0266904 16.2896 0.0266904C16.2242 0.0266904 16.1438 0.0210165 16.0585 0.0152525C15.9554 0.00822766 15.8385 0.00012207 15.7199 0.00012207C14.6758 0.00012207 14.4773 0.742234 14.452 1.18462C14.3934 2.207 15.3825 2.27896 15.8578 2.31364Z"/>
<path 
d="M25.9702 21.0479C25.8349 20.9445 25.6949 20.8375 25.5639 20.732C24.8688 20.1726 24.1293 19.657 23.4141 19.1583C23.2657 19.0549 23.1172 18.9514 22.9694 18.8477C22.0533 18.2042 21.2296 17.8915 20.4515 17.8915C19.4034 17.8915 18.4897 18.4706 17.7355 19.6125C17.4014 20.1187 16.996 20.3649 16.4964 20.3649C16.201 20.3649 15.8654 20.2806 15.4989 20.1142C12.5419 18.7733 10.4304 16.7174 9.22291 14.0035C8.63922 12.6918 8.82844 11.8345 9.85569 11.1367C10.439 10.7407 11.5248 10.0037 11.4479 8.59222C11.3608 6.98938 7.82425 2.16665 6.33417 1.61889C5.70329 1.38689 5.04043 1.38473 4.36046 1.61348C2.64748 2.18934 1.41822 3.20065 0.805258 4.53789C0.21292 5.83001 0.239668 7.3472 0.882622 8.92545C2.74132 13.4885 5.35457 17.4669 8.65003 20.75C11.8757 23.9637 15.8403 26.5963 20.4337 28.5741C20.8477 28.7523 21.282 28.8494 21.5991 28.9203C21.7071 28.9446 21.8004 28.9654 21.8684 28.984C21.9058 28.9942 21.9444 28.9997 21.983 29L22.0193 29.0002C22.0194 29.0002 22.0193 29.0002 22.0195 29.0002C24.1799 29.0002 26.7739 27.026 27.5706 24.7754C28.2686 22.8047 26.9942 21.8305 25.9702 21.0479Z"/>
<path 
d="M16.8133 7.52609C16.4434 7.53545 15.6736 7.55455 15.4035 8.33854C15.2772 8.70491 15.2923 9.02301 15.4485 9.28401C15.6778 9.66695 16.1172 9.7843 16.5168 9.8487C17.966 10.0812 18.7102 10.8826 18.8591 12.3704C18.9283 13.0642 19.3954 13.5486 19.9952 13.5486H19.9953C20.0396 13.5486 20.0849 13.546 20.1301 13.5405C20.8515 13.4547 21.2012 12.9247 21.1696 11.9653C21.1811 10.9641 20.6571 9.82744 19.7659 8.92205C18.8717 8.01386 17.7938 7.5024 16.8133 7.52609Z"/>
</symbol>


<symbol id="plane" viewBox="0 0 35 29">

<path d="M13.733 19.223l-.579 8.144c.829 0 1.188-.356 1.618-.783l3.883-3.712 8.047 5.893c1.476.823 2.516.39 2.914-1.358l5.282-24.75.002-.002c.468-2.181-.79-3.035-2.227-2.5L1.625 12.043c-2.12.823-2.087 2.004-.36 2.54l7.937 2.468L27.64 5.514c.868-.575 1.657-.257 1.008.317L13.733 19.224z" />

</symbol>

<symbol id="whatsapp" viewBox="0 0 29 29" >
<path 
d="M14.5036 0.00012207H14.4964C6.50144 0.00012207 0 6.50337 0 14.5001C0 17.672 1.02225 20.6119 2.76044 22.9989L0.953375 28.3857L6.52681 26.604C8.81962 28.1229 11.5547 29.0001 14.5036 29.0001C22.4986 29.0001 29 22.4951 29 14.5001C29 6.50519 22.4986 0.00012207 14.5036 0.00012207ZM22.9408 20.4759C22.591 21.4637 21.2026 22.283 20.0952 22.5222C19.3376 22.6836 18.3479 22.8122 15.0166 21.4311C10.7554 19.6657 8.01125 15.3357 7.79738 15.0547C7.59256 14.7738 6.0755 12.7619 6.0755 10.6812C6.0755 8.60044 7.13219 7.58725 7.55813 7.15225C7.90794 6.79518 8.48612 6.63206 9.04075 6.63206C9.22019 6.63206 9.3815 6.64112 9.5265 6.64837C9.95244 6.6665 10.1663 6.69187 10.4473 7.36431C10.7971 8.20712 11.6489 10.2879 11.7504 10.5017C11.8537 10.7156 11.9571 11.0056 11.8121 11.2866C11.6761 11.5766 11.5565 11.7052 11.3426 11.9517C11.1287 12.1982 10.9257 12.3867 10.7119 12.6514C10.5161 12.8816 10.295 13.1281 10.5415 13.554C10.788 13.9709 11.6399 15.3611 12.8941 16.4776C14.5127 17.9185 15.8249 18.3789 16.2944 18.5746C16.6442 18.7196 17.0611 18.6852 17.3166 18.4133C17.6411 18.0635 18.0416 17.4835 18.4494 16.9126C18.7394 16.5029 19.1056 16.4522 19.4898 16.5972C19.8813 16.7331 21.953 17.7572 22.3789 17.9692C22.8049 18.1831 23.0858 18.2846 23.1891 18.4641C23.2906 18.6435 23.2906 19.4863 22.9408 20.4759Z"/>
</symbol>

<symbol id="callus" viewBox="0 0 50 38">
<path 
d="M3.17958 2.88303L2.88096 3.26407C2.38874 3.89213 1.97245 4.62281 1.66092 5.41647C1.37019 6.18374 1.19415 6.90205 1.11386 7.61275L1.11301 7.62025L1.11298 7.62025C0.393152 13.5878 3.0548 19.1783 10.9779 27.1015C21.6682 37.7911 30.1881 37.0065 30.4755 36.9772C31.2234 36.8872 31.9399 36.7087 32.6739 36.4238C33.4609 36.1163 34.1927 35.7001 34.8221 35.2077L35.1222 34.9728L36.4498 33.6728C37.2921 32.8248 37.2786 31.5199 36.5245 30.7627C36.5244 30.7626 36.5242 30.7624 36.524 30.7622L30.6448 24.8824C30.6446 24.8822 30.6445 24.8821 30.6443 24.8819C29.8867 24.1279 28.5795 24.1161 27.7337 24.9622L27.7335 24.9624L24.7702 27.925L24.2387 28.4564L23.5805 28.0937C23.3916 27.9895 23.1962 27.8809 22.9911 27.7658C21.1069 26.7218 18.4424 25.2451 15.6439 22.4447C15.6438 22.4446 15.6437 22.4445 15.6436 22.4444M3.17958 2.88303L11.1913 14.6078C12.2308 16.4793 13.6529 19.0399 16.3509 21.7375L15.6436 22.4444M3.17958 2.88303L4.41347 1.64205C4.41376 1.64176 4.41405 1.64147 4.41434 1.64118C5.26299 0.79321 6.56958 0.807451 7.3231 1.56066C7.32314 1.56071 7.32319 1.56076 7.32324 1.56081L13.2045 7.44343C13.9599 8.19971 13.9737 9.5061 13.126 10.3541L13.1257 10.3544L12.1488 11.3324L12.1479 11.3334L10.1601 13.3183L9.61904 13.8585L9.99849 14.5222C10.0837 14.6713 10.1698 14.8271 10.2632 14.9959C10.2787 15.024 10.2944 15.0524 10.3103 15.0813L10.3112 15.0827L10.3231 15.1043C11.3692 16.9876 12.8466 19.6477 15.6436 22.4444M3.17958 2.88303L15.6436 22.4444"/>
</symbol>


<symbol id="schedule" width="45" height="45" viewBox="0 0 54 67" fill="none">
<path
d="M50.5069 5.19061H33.3629C32.7576 2.23222 30.1346 0 27 0C23.8654 0 21.2423 2.23222 20.637 5.19061H3.49314C1.56708 5.19061 0 6.75769 0 8.68375V45.7893C0 47.7154 1.56695 49.2825 3.49314 49.2825H19.7801L14.4905 65.0427C14.2614 65.7253 14.6291 66.4645 15.3118 66.6938C15.4494 66.7399 15.5893 66.7618 15.7269 66.7618C16.2718 66.7618 16.7799 66.4175 16.9629 65.8724L22.531 49.2825H31.469L37.0371 65.8724C37.2201 66.4176 37.7282 66.7618 38.2731 66.7618C38.4107 66.7618 38.5506 66.7398 38.6882 66.6938C39.3709 66.4645 39.7386 65.7253 39.5095 65.0427L34.2199 49.2825H50.5069C52.4329 49.2825 54 47.7154 54 45.7893V8.68375C53.9999 6.75756 52.4329 5.19061 50.5069 5.19061ZM27 2.60789C28.686 2.60789 30.1246 3.68677 30.6617 5.19061H23.3384C23.8755 3.68677 25.3141 2.60789 27 2.60789ZM51.392 45.7893C51.392 46.2774 50.9949 46.6746 50.5067 46.6746H47.1007V28.0855C47.1007 27.3655 46.5169 26.7816 45.7968 26.7816C45.0766 26.7816 44.4928 27.3655 44.4928 28.0855V46.6747H40.4815V32.0743C40.4815 31.3543 39.8977 30.7704 39.1775 30.7704C38.4574 30.7704 37.8736 31.3543 37.8736 32.0743V46.6746H34.2116V36.3402C34.2116 35.6201 33.6278 35.0362 32.9077 35.0362C32.1875 35.0362 31.6037 35.6201 31.6037 36.3402V46.6746H28.3037V33.0259C28.3037 32.3059 27.7199 31.722 26.9997 31.722C26.2796 31.722 25.6958 32.3059 25.6958 33.0259V46.6746H21.9095V39.4999C21.9095 38.7798 21.3258 38.1959 20.6056 38.1959C19.8854 38.1959 19.3016 38.7798 19.3016 39.4999V46.6746H16.2738V40.0264C16.2738 39.3064 15.69 38.7225 14.9698 38.7225C14.2496 38.7225 13.6659 39.3064 13.6659 40.0264V46.6746H10.1743V41.5452C10.1743 40.8252 9.59051 40.2413 8.87034 40.2413C8.15018 40.2413 7.5664 40.8252 7.5664 41.5452V46.6746H3.49288C3.00481 46.6746 2.60763 46.2774 2.60763 45.7893V8.68375C2.60763 8.19568 3.00468 7.7985 3.49288 7.7985H21.8091H32.1904H50.5066C50.9947 7.7985 51.3919 8.19568 51.3919 8.68375V45.7893H51.392Z"
fill="#333333" />
<path
d="M7.93988 35.7641C7.94158 35.782 7.94497 35.7992 7.94745 35.8168C7.95084 35.8413 7.95384 35.866 7.95866 35.8904C7.96271 35.911 7.96844 35.931 7.97353 35.9512C7.97875 35.9722 7.98344 35.9934 7.9897 36.0141C7.9957 36.034 8.00326 36.0533 8.0103 36.0729C8.0176 36.0935 8.02451 36.1142 8.03286 36.1346C8.04042 36.1527 8.04916 36.17 8.0575 36.1877C8.06728 36.2086 8.07667 36.2298 8.08763 36.2502C8.09649 36.2668 8.10666 36.2827 8.11631 36.2989C8.12844 36.3192 8.13991 36.3398 8.15321 36.3596C8.16482 36.3771 8.17799 36.3934 8.19038 36.4102C8.20316 36.4276 8.21528 36.4452 8.2291 36.462C8.25245 36.4904 8.27735 36.5174 8.30304 36.5438C8.30734 36.5481 8.31086 36.5529 8.31516 36.5572C8.31934 36.5614 8.32403 36.5649 8.3282 36.5689C8.35467 36.5947 8.38192 36.6198 8.41048 36.6433C8.42639 36.6563 8.44308 36.6678 8.45951 36.6799C8.47725 36.6932 8.49459 36.7069 8.51297 36.7193C8.53175 36.7318 8.55118 36.7426 8.57035 36.7541C8.58769 36.7645 8.60477 36.7753 8.62263 36.785C8.64167 36.7952 8.66123 36.8038 8.68066 36.8129C8.69983 36.822 8.71873 36.8315 8.73855 36.8398C8.75694 36.8473 8.77571 36.8534 8.79423 36.8601C8.81588 36.8679 8.83714 36.8761 8.8593 36.8828C8.87743 36.8883 8.89568 36.8922 8.91393 36.8969C8.93688 36.9027 8.95957 36.9091 8.98304 36.9137C9.00338 36.9177 9.02399 36.9201 9.04446 36.9231C9.0661 36.9263 9.08736 36.9302 9.10926 36.9325C9.14408 36.9359 9.17902 36.9372 9.2141 36.9378C9.22192 36.9379 9.22949 36.939 9.23731 36.939L14.87 36.939C15.5901 36.939 16.1739 36.3551 16.1739 35.635C16.1739 34.915 15.5901 34.3311 14.87 34.3311L12.3854 34.3311L23.2118 23.5047L26.054 26.347C26.2985 26.5915 26.6302 26.729 26.976 26.729C27.3218 26.729 27.6536 26.5915 27.8981 26.347L37.3075 16.9375L40.1165 19.7466C40.6257 20.2557 41.4514 20.2557 41.9606 19.7466L46.7189 14.9883C47.2281 14.4791 47.2281 13.6534 46.7189 13.1441C46.4643 12.8896 46.1306 12.7622 45.7969 12.7622C45.4632 12.7622 45.1294 12.8896 44.8749 13.1441L41.0387 16.9804L38.2296 14.1715C37.7204 13.6624 36.8948 13.6624 36.3856 14.1715L26.9762 23.5809L24.134 20.7385C23.8895 20.494 23.5578 20.3566 23.2119 20.3566C22.8661 20.3566 22.5344 20.494 22.2899 20.7385L10.5415 32.4869L10.5415 30.0024C10.5415 29.2824 9.95774 28.6984 9.23757 28.6984C8.5174 28.6984 7.93363 29.2824 7.93363 30.0024L7.93363 35.6343C7.93336 35.6778 7.93558 35.7211 7.93988 35.7641Z"
fill="#333333" />
<path
d="M9.23754 15.3694C9.95769 15.3694 10.5415 14.7856 10.5415 14.0655C10.5415 13.3453 9.95769 12.7615 9.23754 12.7615C8.51739 12.7615 7.93359 13.3453 7.93359 14.0655C7.93359 14.7856 8.51739 15.3694 9.23754 15.3694Z"
fill="#333333" />
<path
d="M9.23754 20.6857C9.95769 20.6857 10.5415 20.1019 10.5415 19.3817C10.5415 18.6616 9.95769 18.0778 9.23754 18.0778C8.51739 18.0778 7.93359 18.6616 7.93359 19.3817C7.93359 20.1019 8.51739 20.6857 9.23754 20.6857Z"
fill="#333333" />
<path
d="M9.23754 26.0019C9.95769 26.0019 10.5415 25.4181 10.5415 24.698C10.5415 23.9778 9.95769 23.394 9.23754 23.394C8.51739 23.394 7.93359 23.9778 7.93359 24.698C7.93359 25.4181 8.51739 26.0019 9.23754 26.0019Z"
fill="#333333" />
</symbol>

<symbol id="money" width="45" height="45" viewBox="0 0 67 67" fill="none">
<g clip-path="url(#clip0)">
<path
d="M10.9111 54.2267C11.6338 54.2267 12.2197 53.6409 12.2197 52.9182C12.2197 52.1954 11.6338 51.6096 10.9111 51.6096C10.1884 51.6096 9.60254 52.1954 9.60254 52.9182C9.60254 53.6409 10.1884 54.2267 10.9111 54.2267Z"
fill="#141414" />
<path
d="M66.1589 43.8607C65.0275 41.2986 62.0224 40.1344 59.4603 41.2655C59.4538 41.2684 59.4472 41.2714 59.4408 41.2743L50.9993 45.1672C50.3431 45.4699 50.0564 46.2473 50.359 46.9036C50.6617 47.56 51.4389 47.8463 52.0954 47.544L60.5256 43.6562C61.7659 43.1139 63.2175 43.6785 63.7648 44.918C64.0304 45.5199 64.0459 46.189 63.8084 46.8022C63.5709 47.4154 63.1085 47.8995 62.5067 48.1652L45.232 55.7925C42.4991 56.9993 39.3973 56.9291 36.7218 55.5997L30.3983 52.458C27.0246 50.7819 23.1128 50.6934 19.6666 52.2149L19.5575 52.2632L14.845 41.5899L21.3908 38.6997C24.5125 37.3211 27.9961 37.2099 31.1991 38.3863L43.9153 43.0562C45.067 43.4791 45.6808 44.7677 45.2837 45.9285C44.8789 47.1114 43.586 47.7478 42.402 47.3473L32.5685 44.0211C31.8838 43.7894 31.1412 44.1568 30.9095 44.8415C30.6779 45.5262 31.0452 46.2688 31.7299 46.5004L41.5633 49.8265C42.0802 50.0013 42.6061 50.0842 43.1242 50.0842C45.1591 50.0842 47.0664 48.8031 47.7599 46.7757C48.6138 44.2797 47.2938 41.509 44.8175 40.5996L32.1014 35.9297C28.2582 34.5183 24.0792 34.6517 20.3338 36.3054L13.7434 39.2152C13.3703 38.6471 12.8341 38.2078 12.1878 37.9575C11.3682 37.6398 10.4743 37.6605 9.67042 38.0155L1.25236 41.7321C0.779439 41.941 0.473752 42.4087 0.472312 42.9256L0.408453 65.6878C0.407144 66.143 0.64256 66.5661 1.0299 66.8051C1.2398 66.9346 1.47823 67 1.71718 67C1.91896 67 2.12114 66.9535 2.30722 66.8595L18.7747 58.5406C19.5616 58.1826 20.1657 57.5427 20.4786 56.7352C20.7376 56.0671 20.7716 55.3494 20.5829 54.6714L20.7237 54.6092C23.4567 53.4024 26.5583 53.4727 29.2339 54.8021L35.5574 57.9438C38.9314 59.62 42.8429 59.7082 46.2891 58.1868L63.5638 50.5595C66.126 49.4281 67.2903 46.4231 66.1589 43.8607ZM18.0381 55.7897C17.9732 55.9572 17.8469 56.0894 17.6825 56.162C17.6617 56.1712 3.03166 63.5613 3.03166 63.5613L3.04749 57.9353L6.83797 56.0739C7.48677 55.7553 7.75437 54.9712 7.43573 54.3225C7.11722 53.6736 6.33298 53.4061 5.68431 53.7246L3.05561 55.0154L3.08714 43.7831L10.7275 40.4097C10.8919 40.3373 11.0747 40.3329 11.2422 40.3978C11.4098 40.4627 11.5421 40.5891 11.6146 40.7534L18.0263 55.275C18.0988 55.4393 18.103 55.6222 18.0381 55.7897Z"
fill="#141414" />
 <path
d="M49.1646 16.4257H48.2585H47.6707H46.7646C45.8658 16.4257 45.1344 15.6944 45.1344 14.7955V13.3996C45.1344 12.5008 45.8656 11.7694 46.7646 11.7694H49.4237C50.1798 11.7694 50.7948 12.3844 50.7948 13.1405C50.7948 13.8631 51.3807 14.4491 52.1034 14.4491C52.8262 14.4491 53.412 13.8631 53.412 13.1405C53.412 10.9413 51.6229 9.15219 49.4237 9.15219H49.2733V7.55885C49.2733 6.83624 48.6875 6.25025 47.9647 6.25025C47.242 6.25025 46.6562 6.83624 46.6562 7.55885V9.15494C44.3643 9.21291 42.5173 11.094 42.5173 13.3996V14.7955C42.5173 17.1375 44.4228 19.0429 46.7648 19.0429H47.6708H48.2587H49.1647C50.0636 19.0429 50.795 19.7742 50.795 20.6731V22.0691C50.795 22.9681 50.0636 23.6992 49.1647 23.6992H46.5057C45.7496 23.6992 45.1345 23.0841 45.1345 22.328C45.1345 21.6054 44.5487 21.0194 43.8259 21.0194C43.1032 21.0194 42.5173 21.6054 42.5173 22.328C42.5173 24.5273 44.3064 26.3164 46.5057 26.3164H46.6562V27.91C46.6562 28.6326 47.242 29.2186 47.9647 29.2186C48.6875 29.2186 49.2733 28.6326 49.2733 27.91V26.3136C51.5652 26.2556 53.412 24.3745 53.412 22.0691V20.6731C53.412 18.3312 51.5066 16.4257 49.1646 16.4257Z"
fill="#141414" />
<path
d="M47.9648 0C38.165 0 30.1924 7.97274 30.1924 17.7724C30.1924 27.5721 38.1651 35.5449 47.9648 35.5449C57.7646 35.5449 65.7372 27.5722 65.7372 17.7725C65.7372 7.97287 57.7646 0 47.9648 0ZM47.9648 32.9276C39.6081 32.9276 32.8096 26.129 32.8096 17.7724C32.8096 9.41586 39.6081 2.61719 47.9648 2.61719C56.3213 2.61719 63.12 9.41586 63.12 17.7724C63.12 26.129 56.3213 32.9276 47.9648 32.9276Z"
fill="#141414" />
</g>
<defs>
<clipPath id="clip0">
<rect width="67" height="67" fill="white" />
</clipPath>
</defs>
</symbol>


<symbol id="result" width="45" height="45" viewBox="0 0 64 54" fill="none">
<path
d="M14.701 36.2016C15.3867 36.2016 15.9426 35.6457 15.9426 34.96C15.9426 34.2743 15.3867 33.7185 14.701 33.7185C14.0153 33.7185 13.4595 34.2743 13.4595 34.96C13.4595 35.6457 14.0153 36.2016 14.701 36.2016Z"
fill="#141414" />
<path
d="M63.5679 24.589V24.4604C63.5679 21.5856 61.229 19.2466 58.3541 19.2466H43.4731C45.3867 15.9273 46.4199 12.2066 46.481 8.36011C46.4913 7.71499 46.4862 7.04902 46.4808 6.34394C46.4773 5.88841 46.4736 5.40669 46.4736 4.88622C46.4736 2.19614 44.2903 0.00689417 41.6041 0.000189742C41.1031 -0.0047765 39.4339 0.0777867 38.1206 1.44946C37.5228 2.07384 37.1099 2.86099 36.9265 3.72549C36.5716 5.3975 36.1289 6.82504 35.5729 8.0897C33.5353 12.7247 30.6314 16.5967 26.9421 19.5982C25.96 20.3972 24.9169 21.1339 23.8276 21.8032C23.4189 20.3307 22.0675 19.2465 20.4666 19.2465H1.24156C0.555846 19.2465 0 19.8024 0 20.488V52.5778C0 53.2634 0.555846 53.8193 1.24156 53.8193H20.4666C22.2885 53.8193 23.7875 52.4152 23.941 50.6326C26.3254 52.6925 29.3424 53.8193 32.5152 53.8193H58.3539C61.2289 53.8193 63.5679 51.4804 63.5679 48.6055C63.5679 47.016 62.853 45.5904 61.7276 44.6333C62.853 43.6762 63.5679 42.2506 63.5679 40.6609V40.5052C63.5679 38.9156 62.853 37.4901 61.7276 36.533C62.8529 35.5759 63.5679 34.1502 63.5679 32.5607V32.5337C63.5679 30.9441 62.853 29.5185 61.7276 28.5614C62.853 27.6044 63.5679 26.1787 63.5679 24.589ZM21.4718 23.8509C21.4718 23.853 21.4718 23.8551 21.4718 23.8573V50.3313C21.4718 50.8854 21.021 51.3363 20.4666 51.3363H15.9425V40.519C15.9425 39.8334 15.3867 39.2774 14.7009 39.2774C14.0152 39.2774 13.4594 39.8334 13.4594 40.519V51.3363H2.48312V21.7297H20.4666C21.0209 21.7297 21.4718 22.1807 21.4718 22.7349V23.8509ZM54.9152 29.803H58.3539C59.8597 29.803 61.0848 31.0279 61.0848 32.5337V32.5607C61.0848 34.0665 59.8597 35.2914 58.3539 35.2914H54.9152C54.2295 35.2914 53.6736 35.8474 53.6736 36.533C53.6736 37.2186 54.2295 37.7745 54.9152 37.7745H58.3539C59.8596 37.7745 61.0846 38.9995 61.0846 40.5052V40.6609C61.0846 42.1667 59.8596 43.3917 58.3538 43.3917H54.9151C54.2294 43.3917 53.6735 43.9477 53.6735 44.6333C53.6735 45.3189 54.2294 45.8748 54.9151 45.8748H58.3538C59.8595 45.8748 61.0845 47.0998 61.0845 48.6055C61.0845 50.1113 59.8595 51.3362 58.3537 51.3362H32.5153C29.7449 51.3362 27.1206 50.2773 25.1259 48.3544L23.9549 47.2254V24.6072C25.565 23.7101 27.0942 22.6755 28.5091 21.5244C32.5069 18.272 35.6483 14.088 37.846 9.08903C38.4712 7.66695 38.9649 6.0811 39.3555 4.24086C39.4442 3.8227 39.6322 3.46116 39.9142 3.16666C40.5253 2.52838 41.3242 2.48281 41.5391 2.48281C41.5611 2.48281 41.5755 2.48331 41.5915 2.48331C42.9141 2.48331 43.9902 3.56123 43.9903 4.88622C43.9903 5.41364 43.9941 5.9017 43.9977 6.36318C44.0029 7.05324 44.008 7.70506 43.9982 8.32075C43.9327 12.437 42.6147 16.3935 40.1866 19.7622C39.914 20.1404 39.8762 20.6391 40.0886 21.0539C40.3009 21.4689 40.7278 21.7297 41.1937 21.7297H58.3539C59.8596 21.7297 61.0846 22.9546 61.0846 24.4604V24.589H61.0848C61.0848 26.0948 59.8597 27.3198 58.3539 27.3198H54.9152C54.2295 27.3198 53.6736 27.8758 53.6736 28.5614C53.6736 29.247 54.2295 29.803 54.9152 29.803Z"
fill="#141414" />
 </symbol>         


 <symbol id="facebook" width="20" height="20" viewBox="0 0 8 14"  >
<path 
 d="M6.76372 0.003035L5.07793 0.00012207C3.184 0.00012207 1.96006 1.35245 1.96006 3.44554V5.03411H0.265074C0.118607 5.03411 0 5.16199 0 5.31972V7.62138C0 7.77911 0.118743 7.90685 0.265074 7.90685H1.96006V13.7147C1.96006 13.8724 2.07867 14.0001 2.22514 14.0001H4.43661C4.58308 14.0001 4.70169 13.8722 4.70169 13.7147V7.90685H6.68353C6.82999 7.90685 6.9486 7.77911 6.9486 7.62138L6.94941 5.31972C6.94941 5.24399 6.92142 5.17145 6.87178 5.11786C6.82215 5.06426 6.75453 5.03411 6.6842 5.03411H4.70169V3.68746C4.70169 3.04021 4.84491 2.71163 5.62783 2.71163L6.76345 2.71119C6.90978 2.71119 7.02839 2.58331 7.02839 2.42572V0.288503C7.02839 0.131058 6.90992 0.0033263 6.76372 0.003035Z"
 />
 </symbol>

  <symbol id="vkontakte"   width="20" height="20" viewBox="0 0 20 10" >
 <path d="M18.8993 10.6C18.8763 10.5478 18.8548 10.5045 18.8349 10.4698C18.5053 9.84485 17.8753 9.07776 16.9454 8.16832L16.9258 8.14749L16.9159 8.13728L16.906 8.12681H16.896C16.474 7.70333 16.2067 7.41859 16.0948 7.27281C15.8901 6.99511 15.8442 6.71401 15.9561 6.4292C16.0352 6.21401 16.3322 5.75956 16.8464 5.06523C17.1169 4.69726 17.3312 4.40235 17.4894 4.18016C18.6304 2.58339 19.1251 1.56303 18.9733 1.11869L18.9144 1.01485C18.8748 0.952337 18.7726 0.895148 18.6079 0.842992C18.4428 0.790946 18.2318 0.782338 17.9746 0.817024L15.1256 0.83774C15.0794 0.820525 15.0135 0.82213 14.9277 0.842992C14.8419 0.863854 14.799 0.874322 14.799 0.874322L14.7494 0.9004L14.7101 0.931729C14.6771 0.952446 14.6408 0.988882 14.6012 1.04097C14.5618 1.09287 14.5289 1.15377 14.5025 1.22318C14.1924 2.06318 13.8397 2.84417 13.4439 3.5661C13.1999 3.99659 12.9758 4.36967 12.7711 4.68555C12.5667 5.00133 12.3952 5.23399 12.2568 5.38313C12.1182 5.53241 11.9932 5.652 11.8808 5.74235C11.7687 5.83273 11.6831 5.87091 11.6238 5.85694C11.5643 5.84297 11.5084 5.82911 11.4554 5.81526C11.3631 5.75274 11.2889 5.66772 11.233 5.56013C11.1768 5.45254 11.1389 5.31711 11.1191 5.15397C11.0995 4.99072 11.0878 4.8503 11.0845 4.73224C11.0814 4.61432 11.0828 4.44754 11.0895 4.23235C11.0964 4.01705 11.0995 3.87138 11.0995 3.79501C11.0995 3.53116 11.1044 3.24482 11.1142 2.93589C11.1241 2.62697 11.1322 2.38221 11.139 2.20189C11.1457 2.02138 11.1488 1.83041 11.1488 1.62908C11.1488 1.42776 11.1372 1.26987 11.1142 1.15527C11.0914 1.04082 11.0565 0.929724 11.0106 0.82202C10.9643 0.714426 10.8966 0.631196 10.8078 0.572111C10.7187 0.513098 10.6081 0.466267 10.4764 0.431472C10.1268 0.348206 9.68167 0.303162 9.14076 0.296159C7.91416 0.2823 7.126 0.365676 6.77646 0.546178C6.63797 0.622442 6.51264 0.726644 6.40059 0.858456C6.28185 1.01124 6.26528 1.09462 6.35101 1.10833C6.74677 1.17073 7.02694 1.32002 7.19183 1.55603L7.25125 1.68109C7.29747 1.77133 7.34363 1.93108 7.38981 2.16012C7.43593 2.38917 7.4657 2.64255 7.47879 2.9201C7.51171 3.42696 7.51171 3.86084 7.47879 4.22177C7.44577 4.58285 7.41459 4.86394 7.38482 5.06527C7.35506 5.2666 7.31057 5.42974 7.25125 5.55466C7.19183 5.67961 7.1523 5.75599 7.13248 5.78371C7.11269 5.81143 7.0962 5.8289 7.0831 5.83575C6.99738 5.87033 6.90823 5.88795 6.81596 5.88795C6.72355 5.88795 6.6115 5.83929 6.47962 5.74205C6.34778 5.64482 6.21095 5.51126 6.06914 5.34115C5.92732 5.171 5.76738 4.93324 5.58925 4.62782C5.41126 4.3224 5.22658 3.96143 5.03532 3.54491L4.87708 3.24285C4.77815 3.04852 4.64302 2.76557 4.47154 2.39424C4.29996 2.02277 4.14831 1.66344 4.01647 1.31633C3.96377 1.17055 3.88459 1.05957 3.77909 0.983193L3.72957 0.951862C3.69666 0.924143 3.64382 0.89471 3.57133 0.863343C3.49874 0.832014 3.423 0.809546 3.34379 0.795723L0.633243 0.81644C0.35626 0.81644 0.168324 0.882492 0.0693671 1.01441L0.0297634 1.07682C0.00997889 1.11158 0 1.16709 0 1.2435C0 1.31987 0.0197845 1.4136 0.0593882 1.52459C0.455079 2.50351 0.885383 3.4476 1.3503 4.35701C1.81522 5.26642 2.21923 5.99897 2.56208 6.55401C2.905 7.10945 3.25454 7.63367 3.61069 8.12641C3.96685 8.61934 4.2026 8.93523 4.31795 9.074C4.43343 9.21304 4.52414 9.31698 4.59008 9.38639L4.83744 9.63626C4.99571 9.80291 5.22814 10.0025 5.53482 10.235C5.84156 10.4677 6.18116 10.6967 6.55377 10.9225C6.92645 11.1479 7.36002 11.3319 7.8547 11.4742C8.34931 11.6166 8.83072 11.6738 9.299 11.6462H10.4367C10.6674 11.6252 10.8422 11.5488 10.961 11.417L11.0004 11.3648C11.0268 11.3234 11.0516 11.259 11.0745 11.1724C11.0976 11.0856 11.1091 10.9901 11.1091 10.8861C11.1024 10.5876 11.124 10.3186 11.1733 10.0791C11.2226 9.83974 11.2788 9.65924 11.3417 9.53768C11.4045 9.41622 11.4754 9.31374 11.5543 9.23065C11.6333 9.14739 11.6897 9.09694 11.7227 9.07958C11.7556 9.06211 11.7818 9.05026 11.8016 9.04315C11.9599 8.98764 12.1461 9.0414 12.3607 9.20468C12.5751 9.36783 12.7761 9.56926 12.9642 9.80867C13.1522 10.0483 13.378 10.3171 13.6418 10.6156C13.9057 10.9142 14.1364 11.1361 14.3342 11.2821L14.532 11.407C14.6641 11.4904 14.8356 11.5668 15.0466 11.6362C15.2573 11.7056 15.4419 11.7229 15.6005 11.6882L18.1328 11.6467C18.3833 11.6467 18.5782 11.603 18.7165 11.5164C18.855 11.4296 18.9373 11.334 18.9638 11.23C18.9903 11.1259 18.9917 11.0078 18.9689 10.8758C18.9454 10.7441 18.9223 10.652 18.8993 10.6Z"/>
 </symbol>

   <symbol id="instagram"  width="18" height="19" viewBox="0 0 12 14" >
 <path  d="M9.481 0.00012207H3.51898C1.57858 0.00012207 0 1.70013 0 3.78979V10.2105C0 12.3001 1.57858 14.0001 3.51898 14.0001H9.4811C11.4214 14.0001 13 12.3001 13 10.2105V3.78979C13 1.70013 11.4214 0.00012207 9.481 0.00012207V0.00012207ZM6.49999 10.8281C4.53995 10.8281 2.94541 9.11091 2.94541 7.00011C2.94541 4.8893 4.53995 3.1721 6.49999 3.1721C8.46002 3.1721 10.0546 4.8893 10.0546 7.00011C10.0546 9.11091 8.46002 10.8281 6.49999 10.8281ZM10.1396 4.07487C9.56035 4.07487 9.08923 3.56751 9.08923 2.94374C9.08923 2.31996 9.56035 1.8125 10.1396 1.8125C10.7188 1.8125 11.19 2.31996 11.19 2.94374C11.19 3.56751 10.7188 4.07487 10.1396 4.07487Z"/>
 </symbol>


   <symbol id="mouse" viewBox="0 0 32 52" fill="none" >
  <rect  x="1" y="1.00049" width="30" height="50" rx="14" stroke="#141414" stroke-width="3"  />
        <line x1="16" y1="11.0005" x2="16" y2="25.0005" stroke="#141414" stroke-width="3" />
 </symbol>


       <symbol id="arrow"  viewBox="0 0 12 8" fill="none" >
       <path d="M5.46967 7.03033C5.76256 7.32322 6.23744 7.32322 6.53033 7.03033L11.3033 2.25736C11.5962 1.96447 11.5962 1.48959 11.3033 1.1967C11.0104 0.903806 10.5355 0.903806 10.2426 1.1967L6 5.43934L1.75736 1.1967C1.46447 0.903806 0.989593 0.903806 0.696699 1.1967C0.403806 1.48959 0.403806 1.96447 0.696699 2.25736L5.46967 7.03033ZM5.25 6L5.25 6.5L6.75 6.5L6.75 6L5.25 6Z" fill="white"/>
   </symbol>


<symbol id="graphs" viewBox="0 0 43 43"  >
<path d="M39.4166 0H9.31661C7.33861 0.00250833 5.73578 1.60533 5.73328 3.58333V15.05H7.16661V3.58333C7.16661 2.39618 8.12945 1.43333 9.31661 1.43333H39.4166C40.6038 1.43333 41.5666 2.39618 41.5666 3.58333V25.8C41.5666 26.9872 40.6038 27.95 39.4166 27.95H30.0999V29.3833H39.4166C41.3946 29.3808 42.9974 27.778 42.9999 25.8V3.58333C42.9974 1.60533 41.3946 0.00250833 39.4166 0Z" />
<path d="M8.59998 2.8667H10.0333V4.30003H8.59998V2.8667Z" />
<path d="M11.4667 2.8667H12.9V4.30003H11.4667V2.8667Z" />
<path d="M14.3334 2.8667H15.7667V4.30003H14.3334V2.8667Z" />
<path d="M8.59998 5.73291H40.1333V7.16625H8.59998V5.73291Z" />
<path d="M8.59998 8.59961H15.7666V10.0329H8.59998V8.59961Z" />
<path d="M8.59998 11.4668H12.9V12.9001H8.59998V11.4668Z" />
<path d="M20.7833 13.6168V12.1835C20.7833 11.7875 20.4626 11.4668 20.0666 11.4668H17.1999C16.804 11.4668 16.4833 11.7875 16.4833 12.1835V12.9001H19.3499V13.6168H20.7833Z"/>
<path d="M26.5167 17.2002V10.0336C26.5167 9.6376 26.196 9.31689 25.8 9.31689H22.9333C22.5374 9.31689 22.2167 9.6376 22.2167 10.0336V15.0502H23.65V10.7502H25.0833V17.2002H26.5167Z" />
<path d="M30.8166 24.3669H30.1V25.8002H40.1333V24.3669H37.9833V10.0336C37.9833 9.6376 37.6626 9.31689 37.2666 9.31689H34.4C34.004 9.31689 33.6833 9.6376 33.6833 10.0336V24.3669H32.25V15.0502C32.25 14.6543 31.9292 14.3336 31.5333 14.3336H28.6666C28.2707 14.3336 27.95 14.6543 27.95 15.0502V21.5002H29.3833V15.7669H30.8166V24.3669ZM35.1166 10.7502H36.55V24.3669H35.1166V10.7502Z" />
<path d="M14.3333 14.3335C6.41685 14.3335 0 20.7503 0 28.6668C0 36.5833 6.41685 43.0002 14.3333 43.0002C22.2498 43.0002 28.6667 36.5833 28.6667 28.6668C28.6577 20.7545 22.2457 14.3425 14.3333 14.3335ZM14.3333 41.5668C7.3444 41.5724 1.62182 36.0116 1.42778 29.0252C1.23356 22.0391 6.63812 16.1689 13.6167 15.7862V28.6668C13.6167 28.6821 13.6247 28.6955 13.6254 28.7114C13.6292 28.7745 13.6417 28.837 13.6625 28.8965C13.6672 28.9109 13.6625 28.9286 13.6726 28.9426C13.6772 28.9513 13.6821 28.9598 13.688 28.9678C13.7215 29.042 13.7668 29.1103 13.8231 29.1694L13.8272 29.174L22.9333 38.2809C20.5733 40.4047 17.5082 41.5758 14.3333 41.5668ZM23.9474 37.2668L16.0641 29.3835H27.214C27.0597 32.3078 25.9066 35.0903 23.9474 37.2668ZM15.05 27.9502V15.7862C21.6071 16.1599 26.8402 21.393 27.214 27.9502H15.05Z"/>
 </symbol>


<symbol id="laptop" viewBox="0 0 43 33"   >
<path d="M42.2833 27.2333H40.85V3.58333C40.8475 1.60533 39.2447 0.00250836 37.2667 0H5.73333C3.75533 0.00250836 2.15251 1.60533 2.15 3.58333V27.2333H0.716667C0.320708 27.2333 0 27.554 0 27.95V30.1C0 31.6831 1.28355 32.9667 2.86667 32.9667H40.1333C41.7164 32.9667 43 31.6831 43 30.1V27.95C43 27.554 42.6793 27.2333 42.2833 27.2333ZM3.58333 3.58333C3.58333 2.39617 4.54618 1.43333 5.73333 1.43333H37.2667C38.4538 1.43333 39.4167 2.39617 39.4167 3.58333V27.2333H37.9833V5.01667C37.9833 3.82951 37.0205 2.86667 35.8333 2.86667H7.16667C5.97951 2.86667 5.01667 3.82951 5.01667 5.01667V27.2333H3.58333V3.58333ZM36.55 5.01667V27.2333H25.8846C25.1195 27.229 24.4195 27.6614 24.08 28.3463C23.9833 28.5434 23.7817 28.6681 23.5619 28.6667H19.4346C19.2146 28.6681 19.0135 28.5434 18.9164 28.3463C18.5774 27.6623 17.8789 27.2306 17.1154 27.2333H6.45V5.01667C6.45 4.62071 6.77071 4.3 7.16667 4.3H35.8333C36.2293 4.3 36.55 4.62071 36.55 5.01667ZM41.5667 30.1C41.5667 30.8917 40.9251 31.5333 40.1333 31.5333H2.86667C2.07493 31.5333 1.43333 30.8917 1.43333 30.1V28.6667H17.1154C17.3355 28.6652 17.5365 28.7899 17.6336 28.987C17.9726 29.6711 18.6711 30.1027 19.4346 30.1H23.5654C24.3305 30.1043 25.0305 29.672 25.37 28.987C25.4666 28.791 25.6658 28.6667 25.8846 28.6667H41.5667V30.1Z" />
<path d="M19.0266 16.631C19.0325 16.631 19.0367 16.6387 19.0422 16.6418L19.0813 16.6574C19.2447 16.7337 19.4109 16.8007 19.5829 16.8629C19.6107 16.8729 19.6387 16.8838 19.6668 16.8932C19.8282 16.9482 19.9929 16.9949 20.1606 17.0365C20.1986 17.0458 20.2358 17.0569 20.2738 17.0657C20.432 17.1003 20.5927 17.1261 20.7561 17.1465C20.7998 17.1526 20.8427 17.163 20.8866 17.1667C21.2954 17.2128 21.7075 17.2128 22.1162 17.1667C22.1603 17.163 22.2031 17.1526 22.247 17.1465C22.4102 17.1261 22.5707 17.1003 22.7291 17.0657C22.7671 17.0569 22.8008 17.0458 22.8423 17.0365C23.01 16.996 23.1749 16.9494 23.3363 16.8932C23.3643 16.8838 23.3922 16.8729 23.4203 16.8629C23.5907 16.8021 23.7566 16.7337 23.9215 16.6574L23.9603 16.6418C23.9661 16.6418 23.9704 16.6337 23.9761 16.631C26.3924 15.476 27.687 12.8022 27.095 10.1902C26.5031 7.57863 24.1818 5.72461 21.5034 5.72461C18.8254 5.72461 16.5045 7.57863 15.9122 10.1902C15.3202 12.8022 16.615 15.476 19.0311 16.631H19.0266ZM22.9334 15.5157L22.924 15.5191C22.7044 15.5964 22.4797 15.6557 22.2504 15.6963C22.2282 15.7006 22.2058 15.7037 22.1835 15.7073C21.731 15.7809 21.2691 15.7809 20.8165 15.7073C20.7943 15.7037 20.7719 15.7006 20.7497 15.6963C20.5203 15.6557 20.2957 15.5964 20.076 15.5191L20.0667 15.5157V14.3332C20.0667 13.5415 20.7083 12.8999 21.5 12.8999C22.2918 12.8999 22.9334 13.5415 22.9334 14.3332V15.5157ZM20.7834 10.7499C20.7834 10.3539 21.1041 10.0332 21.5 10.0332C21.896 10.0332 22.2167 10.3539 22.2167 10.7499C22.2167 11.1458 21.896 11.4666 21.5 11.4666C21.1041 11.4666 20.7834 11.1458 20.7834 10.7499ZM21.5 7.16655C23.2818 7.1644 24.88 8.26269 25.516 9.92679C26.1528 11.5911 25.6952 13.4754 24.3667 14.6629V14.3332C24.3642 13.4293 23.934 12.5801 23.2064 12.0435C23.4927 11.6726 23.6482 11.2179 23.65 10.7499C23.65 9.56272 22.6872 8.59988 21.5 8.59988C20.3129 8.59988 19.35 9.56272 19.35 10.7499C19.3525 11.2172 19.5081 11.6704 19.7936 12.0399C19.0652 12.577 18.6344 13.4281 18.6334 14.3332V14.6629C17.3048 13.4754 16.8472 11.5911 17.484 9.92679C18.12 8.26269 19.7182 7.1644 21.5 7.16655Z" />
<path d="M32.9667 18.6338H10.0333C9.63736 18.6338 9.31665 18.9545 9.31665 19.3505V25.0838C9.31665 25.4798 9.63736 25.8005 10.0333 25.8005H32.9667C33.3626 25.8005 33.6833 25.4798 33.6833 25.0838V19.3505C33.6833 18.9545 33.3626 18.6338 32.9667 18.6338ZM32.25 24.3671H10.75V20.0671H32.25V24.3671Z" />
<path d="M12.1833 21.5H13.6167V22.9333H12.1833V21.5Z" />
<path d="M15.05 21.5H16.4834V22.9333H15.05V21.5Z" />
<path d="M17.9165 21.5H19.3498V22.9333H17.9165V21.5Z" />
<path d="M20.7833 21.5H22.2167V22.9333H20.7833V21.5Z" />
<path d="M7.8833 5.7334H12.1833V7.16672H7.8833V5.7334Z"/>
<path d="M13.6167 5.7334H15.05V7.16672H13.6167V5.7334Z" />
 </symbol>

<symbol id="storebasket" viewBox="0 0 44 43"  >
<path d="M39.4187 0H12.1854C10.2076 0.00233551 8.60457 1.60521 8.60205 3.58321V21.5002H10.0353V3.58321C10.0353 2.39587 10.9981 1.43364 12.1854 1.43364H39.4187C40.6064 1.43364 41.5687 2.39587 41.5687 3.58321V26.5167C41.5687 27.704 40.6064 28.6668 39.4187 28.6668H21.502V30.1004H39.4187C41.3969 30.0977 43 28.4948 43.0021 26.5167V3.58321C43 1.60521 41.3969 0.00233551 39.4187 0Z" />
<path d="M11.4688 2.8667H12.9024V4.2998H11.4688V2.8667Z" />
<path d="M14.3353 2.8667H15.7686V4.2998H14.3353V2.8667Z"/>
<path d="M17.2021 2.8667H18.6358V4.2998H17.2021V2.8667Z" />
<path d="M11.4688 5.7334H40.1355V7.16704H11.4688V5.7334Z" />
<path d="M11.4688 16.484C11.4688 16.8798 11.7896 17.2003 12.1856 17.2003H19.352C19.7483 17.2003 20.0688 16.8798 20.0688 16.484V9.31705C20.0688 8.92109 19.7483 8.60059 19.352 8.60059H12.1856C11.7896 8.60059 11.4688 8.92109 11.4688 9.31705V16.484ZM12.9024 10.0339H18.6357V15.7672H12.9024V10.0339Z" />
<path d="M30.1023 9.31705C30.1023 8.92109 29.7814 8.60059 29.3855 8.60059H22.2189C21.8231 8.60059 21.5021 8.92109 21.5021 9.31705V16.484C21.5021 16.8798 21.8231 17.2003 22.2189 17.2003H29.3855C29.7814 17.2003 30.1023 16.8798 30.1023 16.484V9.31705ZM28.6687 15.7672H22.9354V10.0339H28.6687V15.7672Z" />
<path d="M40.1356 9.31705C40.1356 8.92109 39.8151 8.60059 39.419 8.60059H32.2522C31.8564 8.60059 31.5358 8.92109 31.5358 9.31705V16.484C31.5358 16.8798 31.8564 17.2003 32.2522 17.2003H39.419C39.8151 17.2003 40.1356 16.8798 40.1356 16.484V9.31705ZM38.7025 15.7672H32.9689V10.0339H38.7025V15.7672Z" />
<path d="M11.4688 21.4999H12.9024V20.0666H20.0688V19.3498C20.0688 18.954 19.7483 18.6333 19.352 18.6333H12.1856C11.7896 18.6333 11.4688 18.954 11.4688 19.3498V21.4999Z" />
<path d="M29.3853 18.6333H28.6685V25.7999H22.9352V27.2332H29.3853C29.7813 27.2332 30.1021 26.9121 30.1021 26.5164V19.3498C30.1021 18.954 29.7813 18.6333 29.3853 18.6333Z" />
<path d="M39.419 18.6333H32.2522C31.8564 18.6333 31.5358 18.954 31.5358 19.3498V26.5164C31.5358 26.9121 31.8564 27.2332 32.2522 27.2332H39.419C39.8151 27.2332 40.1356 26.9121 40.1356 26.5164V19.3498C40.1356 18.954 39.8151 18.6333 39.419 18.6333ZM38.7025 25.7999H32.9689V20.0666H38.7025V25.7999Z" />
<path d="M0.159759 23.2014C0.0226826 23.3706 -0.0297765 23.5931 0.0163947 23.8056L2.88314 36.7057C2.95626 37.0344 3.24874 37.268 3.58523 37.2669H19.3519C19.7482 37.2669 20.0687 37.5878 20.0687 37.9834C20.0687 38.3792 19.7482 38.7002 19.3519 38.7002H2.86877C1.68125 38.7002 0.718664 39.6626 0.718664 40.8503C0.718664 42.0376 1.68125 43.0004 2.86877 43.0004C4.05647 43.0004 5.01888 42.0376 5.01888 40.8503C5.01654 40.6051 4.97181 40.3633 4.88719 40.1335H15.1839C15.0993 40.3633 15.0544 40.6051 15.0519 40.8503C15.0519 42.0376 16.0146 43.0004 17.202 43.0004C18.39 43.0004 19.3519 42.0376 19.3519 40.8503C19.3501 40.6051 19.3052 40.3633 19.2204 40.1335H19.3519C20.5396 40.1335 21.502 39.1709 21.502 37.9834C21.502 36.7959 20.5396 35.8338 19.3519 35.8338H18.8126L21.4643 23.8909L22.6617 21.5003H23.0673C23.4166 22.4875 24.4261 23.0794 25.4582 22.9025C26.4901 22.7255 27.2443 21.8305 27.2443 20.7834C27.2443 19.7362 26.4901 18.8415 25.4582 18.6646C24.4261 18.4871 23.4166 19.0796 23.0673 20.067H22.2188C21.9461 20.0654 21.6958 20.2191 21.5739 20.4629L20.3427 22.9335H0.718664C0.501282 22.9335 0.295937 23.0318 0.159759 23.2014ZM2.86877 41.5671C2.47299 41.5671 2.15195 41.2461 2.15195 40.8503C2.15195 40.4545 2.47299 40.1335 2.86877 40.1335C3.26473 40.1335 3.58523 40.4545 3.58523 40.8503C3.58523 41.2461 3.26473 41.5671 2.86877 41.5671ZM17.202 41.5671C16.8064 41.5671 16.4855 41.2461 16.4855 40.8503C16.4855 40.4545 16.8064 40.1335 17.202 40.1335C17.5983 40.1335 17.9188 40.4545 17.9188 40.8503C17.9188 41.2461 17.5983 41.5671 17.202 41.5671ZM25.0854 20.067C25.4815 20.067 25.8022 20.3878 25.8022 20.7834C25.8022 21.1792 25.4815 21.5003 25.0854 21.5003C24.6894 21.5003 24.3689 21.1792 24.3689 20.7834C24.3689 20.3878 24.6894 20.067 25.0854 20.067ZM10.0354 35.8338H7.13018L6.97028 32.9669H10.0354V35.8338ZM10.0354 31.5336H6.89106L6.73152 28.6669H10.0354V31.5336ZM16.4469 24.367H19.8921L19.2549 27.2336H16.287L16.4469 24.367ZM16.2076 28.6669H18.9367L18.2993 31.5336H16.0482L16.2076 28.6669ZM15.969 32.9669H17.9815L17.3457 35.8338H15.8095L15.969 32.9669ZM11.4687 24.367H15.0113L14.8523 27.2336H11.4687V24.367ZM11.4687 28.6669H14.7727L14.6135 31.5336H11.4687V28.6669ZM11.4687 32.9669H14.5339L14.3742 35.8338H11.4687V32.9669ZM10.0354 24.367V27.2336H6.65229L6.49294 24.367H10.0354ZM5.69456 35.8338H4.15887L3.52163 32.9669H5.53556L5.69456 35.8338ZM5.45615 31.5336H3.2049L2.56767 28.6669H5.2968L5.45615 31.5336ZM5.0575 24.367L5.21739 27.2336H2.24986L1.61245 24.367H5.0575Z"/>
</symbol>

<symbol id="advertising" viewBox="0 0 43 43"  >
<path d="M39.4168 0H3.58321C1.60531 0.00251504 0.00251506 1.60532 0 3.58322V32.25C0.00251506 34.2281 1.60531 35.8307 3.58321 35.8332H15.7668V34.4H3.58321C2.39611 34.4 1.43321 33.4371 1.43321 32.25V3.58322C1.43321 2.39612 2.39611 1.43321 3.58321 1.43321H39.4168C40.6039 1.43321 41.5668 2.39612 41.5668 3.58322V32.25C41.567 33.2303 40.9043 34.0871 39.9546 34.3325L40.3132 35.7201C41.8954 35.3112 43.0002 33.8839 43 32.25V3.58322C42.9975 1.60532 41.3949 0.00251504 39.4168 0Z" />
<path d="M2.86682 2.8667H4.30003V4.29991H2.86682V2.8667Z" />
<path d="M5.73315 2.8667H7.16673V4.29991H5.73315V2.8667Z" />
<path d="M8.59998 2.8667H10.0332V4.29991H8.59998V2.8667Z" />
<path d="M2.86682 5.73291H40.1333V7.16649H2.86682V5.73291Z" />
<path d="M5.73327 20.0668H13.6168V18.6332H6.45006V12.9H36.5501V20.0668H37.2669C37.6624 20.0668 37.9833 19.746 37.9833 19.35V12.1832C37.9833 11.7875 37.6624 11.4668 37.2669 11.4668H5.73327C5.33751 11.4668 5.01685 11.7875 5.01685 12.1832V19.35C5.01685 19.746 5.33751 20.0668 5.73327 20.0668Z" />
<path d="M9.31677 14.333H10.75V17.1998H9.31677V14.333Z" />
<path d="M35.8333 8.6001H37.2668V10.0333H35.8333V8.6001Z" />
<path d="M32.9668 8.6001H34.4V10.0333H32.9668V8.6001Z"/>
<path d="M30.1001 8.6001H31.5333V10.0333H30.1001V8.6001Z" />
<path d="M25.0833 37.1027C27.1541 37.1042 29.1873 36.5446 30.9658 35.4839L37.4702 42.1687C37.9808 42.6964 38.6823 42.9958 39.4169 43.0001H39.441C40.5381 43.0039 41.5308 42.3507 41.9607 41.3416C42.3913 40.3326 42.1748 39.164 41.4128 38.3753L34.8631 31.6438C35.9655 29.8639 36.5501 27.8114 36.5501 25.7175C36.5835 21.0724 33.8105 16.8662 29.5283 15.0658C25.2464 13.2652 20.3008 14.2259 17.0045 17.4989C13.7081 20.7718 12.7124 25.7101 14.4821 30.0049C16.2523 34.2999 20.4378 37.1027 25.0833 37.1027ZM40.387 39.3745C40.8772 39.8813 40.87 40.6877 40.3705 41.1852C40.1233 41.4316 39.7879 41.5693 39.4392 41.5669H39.4309C39.0797 41.5651 38.7438 41.4218 38.4998 41.1695L32.1714 34.6665C32.198 34.6455 32.2214 34.6202 32.2478 34.5992C32.5512 34.3595 32.8419 34.1041 33.1185 33.8346C33.1304 33.8238 33.1431 33.8139 33.1546 33.8024C33.439 33.52 33.7086 33.2225 33.9618 32.9114C33.9821 32.8868 34.0069 32.8643 34.0266 32.8399L40.387 39.3745ZM25.0833 15.7669C30.5995 15.7502 35.0876 20.2016 35.1169 25.7175C35.1187 27.7232 34.5081 29.6819 33.3659 31.3305C30.7109 35.3 25.6206 36.8385 21.2114 35.0052C16.8024 33.1715 14.304 28.477 15.2461 23.7956C16.1883 19.1141 20.308 15.7516 25.0833 15.7669Z" />
<path d="M25.083 33.6829C29.4369 33.6829 32.9666 30.1536 32.9666 25.7997C32.9666 21.4456 29.4369 17.9165 25.083 17.9165C20.7292 17.9165 17.1998 21.4456 17.1998 25.7997C17.2052 30.1515 20.7315 33.6777 25.083 33.6829ZM25.083 19.3497C28.6454 19.3497 31.533 22.2373 31.533 25.7997C31.533 29.3621 28.6454 32.2497 25.083 32.2497C21.5208 32.2497 18.633 29.3621 18.633 25.7997C18.6372 22.2391 21.5225 19.3535 25.083 19.3497Z" />
<path d="M20.993 26.7266L26.7263 20.9932L27.74 22.0067L22.0066 27.7399L20.993 26.7266Z" />
<path d="M23.8599 28.1602L28.1599 23.8604L29.1731 24.8739L24.8731 29.1739L23.8599 28.1602Z" />
</symbol>


<symbol id="wand" viewBox="0 0 43 43"  >
<path d="M31.5366 17.229H32.9694V21.5277H31.5366V17.229Z" />
<path d="M31.5366 0.0341797H32.9694V4.33274H31.5366V0.0341797Z" />
<path d="M38.7012 10.0645H42.9999V11.4973H38.7012V10.0645Z" />
<path d="M21.5062 10.0645H25.8048V11.4973H21.5062V10.0645Z" />
<path d="M36.3059 5.71519L39.346 2.67529L40.3591 3.68877L37.3192 6.72813L36.3059 5.71519Z" />
<path d="M24.1476 3.68895L25.1607 2.67529L28.2004 5.71501L27.1873 6.72812L24.1476 3.68895Z" />
<path d="M36.3053 15.847L37.3186 14.8335L40.3578 17.873L39.3448 18.8865L36.3053 15.847Z" />
<path d="M3.0886 42.8112C3.36833 43.091 3.82182 43.091 4.10172 42.8112L28.8242 18.0988L35.6385 11.2876C35.9178 11.0077 35.9178 10.5542 35.6385 10.2743L32.7598 7.39556C32.4799 7.11619 32.0264 7.11619 31.7465 7.39556L24.9322 14.2073L0.209523 38.9194C-0.0698408 39.1995 -0.0698408 39.653 0.209523 39.9327L3.0886 42.8112ZM32.2534 8.91812L34.1159 10.7807L28.3126 16.5791L26.4495 14.7168L32.2534 8.91812ZM25.4386 15.7243L27.3017 17.5874L3.59534 41.2917L1.73226 39.4286L25.4386 15.7243Z"/>
</symbol>

 </svg>