<svg width="39" height="38" fill="none" xmlns="http://www.w3.org/2000/svg"><path d="M3.18 2.883l-.299.381a8.585 8.585 0 00-1.22 2.152 8.987 8.987 0 00-.547 2.197l-.001.007h0c-.72 5.968 1.942 11.558 9.865 19.482 10.69 10.69 19.21 9.905 19.497 9.875a8.939 8.939 0 002.199-.553 8.558 8.558 0 002.148-1.216l.3-.235 1.328-1.3c.842-.848.829-2.153.075-2.91h-.001l-5.88-5.88v-.001c-.757-.754-2.064-.766-2.91.08h0l-2.964 2.963-.531.531-.659-.362a91.891 91.891 0 01-.589-.328c-1.884-1.044-4.549-2.52-7.347-5.321 0 0 0 0 0 0M3.18 2.882l8.011 11.725c1.04 1.871 2.462 4.432 5.16 7.13l-.707.706M3.18 2.883l1.233-1.241h.001c.849-.85 2.156-.836 2.91-.082 0 0 0 0 0 0l5.88 5.882c.756.757.77 2.063-.078 2.911h0l-.977.978-.001.001-1.988 1.985-.541.54.38.664c.085.15.17.305.264.474l.047.085.001.002.012.021c1.046 1.884 2.524 4.544 5.32 7.34M3.18 2.883l12.464 19.561" stroke="#141414" stroke-width="2"/></svg>