<svg width="29" height="29" fill="none" xmlns="http://www.w3.org/2000/svg"><path d="M14.504 0h-.008C6.501 0 0 6.503 0 14.5c0 3.172 1.022 6.112 2.76 8.5L.953 28.386l5.574-1.782A14.374 14.374 0 0014.504 29C22.499 29 29 22.495 29 14.5S22.499 0 14.504 0zm8.437 20.476c-.35.988-1.738 1.807-2.846 2.046-.757.162-1.747.29-5.078-1.09-4.262-1.766-7.006-6.096-7.22-6.377-.204-.281-1.721-2.293-1.721-4.374 0-2.08 1.056-3.094 1.482-3.529.35-.357.928-.52 1.483-.52.18 0 .34.01.486.016.425.019.64.044.92.716.35.843 1.202 2.924 1.303 3.138.104.214.207.504.062.785-.136.29-.255.418-.47.665-.213.246-.416.435-.63.7-.196.23-.417.476-.17.902.246.417 1.098 1.807 2.352 2.924 1.619 1.44 2.93 1.9 3.4 2.097.35.145.767.11 1.023-.162.324-.35.725-.93 1.132-1.5.29-.41.657-.46 1.04-.316.392.136 2.464 1.16 2.89 1.372.426.214.707.316.81.495.102.18.102 1.022-.248 2.012z" fill="#BEBEBE"/></svg>