<svg width="29" height="29" fill="none" xmlns="http://www.w3.org/2000/svg"><path d="M24.807 12.17c.035-4.09-3.447-7.837-7.763-8.356a5.448 5.448 0 01-.278-.042 4.035 4.035 0 00-.657-.071c-.885 0-1.121.62-1.183.991-.06.36-.003.663.17.9.294.398.81.469 1.223.526.121.016.236.032.332.053 3.877.867 5.182 2.229 5.82 6.073.016.094.023.21.03.332.028.46.086 1.416 1.114 1.416.085 0 .177-.008.273-.022.957-.146.927-1.02.913-1.44-.004-.118-.008-.23.002-.304a.412.412 0 00.004-.056z" fill="#BEBEBE"/><path d="M15.858 2.314a4.2 4.2 0 01.314.03c6.366.979 9.294 3.995 10.105 10.411.014.11.016.242.019.383.008.502.024 1.544 1.144 1.566h.035c.351 0 .63-.106.83-.315.35-.364.325-.906.305-1.341-.005-.107-.01-.208-.008-.296C28.683 6.19 23.002.24 16.447.018c-.028 0-.054 0-.08.004a.548.548 0 01-.077.005c-.066 0-.146-.006-.232-.012C15.955.008 15.838 0 15.72 0c-1.044 0-1.243.742-1.268 1.185-.059 1.022.93 1.094 1.406 1.129zM25.97 21.048a18.29 18.29 0 01-.406-.316c-.695-.56-1.435-1.075-2.15-1.574a166.37 166.37 0 01-.445-.31c-.916-.644-1.74-.956-2.518-.956-1.048 0-1.961.579-2.716 1.72-.334.507-.739.753-1.239.753-.295 0-.63-.084-.997-.25-2.957-1.342-5.069-3.398-6.276-6.111-.584-1.312-.395-2.17.633-2.867.583-.396 1.669-1.133 1.592-2.545C11.36 6.99 7.824 2.167 6.334 1.62c-.63-.232-1.294-.234-1.974-.006C2.647 2.19 1.418 3.201.805 4.538.213 5.83.24 7.348.883 8.925 2.74 13.488 5.355 17.467 8.65 20.75c3.226 3.214 7.19 5.846 11.784 7.824.414.178.848.275 1.165.346.108.025.201.045.27.064a.45.45 0 00.114.016h.036c2.16 0 4.755-1.974 5.552-4.225.698-1.97-.577-2.944-1.6-3.727zM16.813 7.526c-.37.01-1.14.029-1.41.813-.126.366-.11.684.045.945.23.383.67.5 1.069.565 1.449.232 2.193 1.034 2.342 2.521.07.694.536 1.179 1.136 1.179.045 0 .09-.003.135-.008.722-.086 1.071-.616 1.04-1.576.011-1-.513-2.138-1.404-3.043-.894-.908-1.972-1.42-2.953-1.396z" fill="#BEBEBE"/></svg>