<svg width="107" height="79" fill="none" xmlns="http://www.w3.org/2000/svg"><path d="M105.433 75.865h-5.134V54.321a4.906 4.906 0 001.675-3.692 4.923 4.923 0 00-4.918-4.918H86.802L85.22 20.376a1.567 1.567 0 00-1.564-1.47h-6.701c-.828 0-1.513.644-1.565 1.47l-1.583 25.335H70.05l-1.584-25.335a1.567 1.567 0 00-1.564-1.47h-6.7c-.828 0-1.514.644-1.565 1.47l-1.584 25.335h-3.756l-1.583-25.335a1.567 1.567 0 00-1.564-1.47h-6.701c-.828 0-1.513.644-1.565 1.47l-1.583 25.335h-4.366l-.97-43.7A1.567 1.567 0 0033.396.48h-10.05c-.852 0-1.548.68-1.567 1.533l-1.12 50.4H8.269A4.923 4.923 0 003.35 57.33c0 1.47.65 2.79 1.676 3.692v14.843H1.567a1.567 1.567 0 000 3.135h103.866a1.568 1.568 0 000-3.135zM20.509 59.113H14.97a1.567 1.567 0 100 3.135h5.47l-.303 13.617H8.16v-13.62l.108.003a1.567 1.567 0 000-3.135c-.983 0-1.783-.8-1.783-1.783 0-.984.8-1.783 1.783-1.783h12.32l-.079 3.566zm57.917-37.071h3.756l1.48 23.669h-6.715l1.479-23.67zm-16.753 0h3.757l1.479 23.669h-6.715l1.48-23.67zm-16.752 0h3.756l1.48 23.669h-6.715l1.479-23.67zM26.804 75.865h-3.53l1.604-72.251h6.986L32.8 45.71h-2.753a4.924 4.924 0 00-4.918 4.918c0 1.47.649 2.79 1.675 3.692v21.544zm70.252-23.453h-3.35a1.567 1.567 0 100 3.134h3.35l.108-.002v20.321H29.94V55.544l.108.002h56.96a1.567 1.567 0 000-3.134h-56.96c-.984 0-1.784-.8-1.784-1.783 0-.983.8-1.783 1.784-1.783h67.01c.983 0 1.783.8 1.783 1.783 0 .983-.8 1.783-1.784 1.783z" fill="#fff"/></svg>