<svg width="54" height="67" fill="none" xmlns="http://www.w3.org/2000/svg"><path d="M50.507 5.19H33.363C32.758 2.233 30.135 0 27 0a6.505 6.505 0 00-6.363 5.19H3.493A3.497 3.497 0 000 8.685V45.79a3.497 3.497 0 003.493 3.493H19.78l-5.29 15.76a1.304 1.304 0 002.473.83l5.568-16.59h8.938l5.568 16.59a1.304 1.304 0 002.473-.83l-5.29-15.76h16.287A3.497 3.497 0 0054 45.79V8.684a3.497 3.497 0 00-3.493-3.493zM27 2.609a3.893 3.893 0 013.662 2.583h-7.324A3.893 3.893 0 0127 2.608zM51.392 45.79a.886.886 0 01-.885.886H47.1v-18.59a1.304 1.304 0 00-2.608 0v18.59H40.48v-14.6a1.304 1.304 0 00-2.607 0v14.6h-3.662V36.34a1.304 1.304 0 00-2.608 0v10.335h-3.3v-13.65a1.304 1.304 0 00-2.608 0v13.65h-3.787V39.5a1.304 1.304 0 10-2.607 0v7.175h-3.028v-6.649a1.304 1.304 0 00-2.608 0v6.649h-3.492v-5.13a1.304 1.304 0 00-2.608 0v5.13H3.493a.886.886 0 01-.885-.886V8.684c0-.488.397-.885.885-.885h47.014c.488 0 .885.397.885.885v37.105z" fill="#333"/><path d="M7.94 35.764l.007.053c.004.024.007.049.012.073.004.021.01.041.015.061l.016.063.02.059.023.062c.007.018.016.035.024.053l.03.062.03.049.036.06.037.051c.013.018.025.035.04.052a1.1 1.1 0 00.073.082l.012.013.013.012c.027.026.054.05.082.074l.05.037.053.04.057.034.053.031.058.028.058.027.055.02.065.023.055.014.069.017.061.01.065.008c.035.004.07.005.105.006l.023.001h5.633a1.304 1.304 0 000-2.608h-2.485l10.827-10.826 2.842 2.842a1.304 1.304 0 001.844 0l9.41-9.41 2.809 2.81a1.304 1.304 0 001.844 0l4.758-4.759a1.304 1.304 0 00-1.844-1.844l-3.836 3.836-2.81-2.809a1.304 1.304 0 00-1.843 0l-9.41 9.41-2.842-2.843a1.304 1.304 0 00-1.844 0L10.542 32.487v-2.485a1.304 1.304 0 00-2.608 0v5.632c0 .044.002.087.006.13zM9.238 15.37a1.304 1.304 0 100-2.609 1.304 1.304 0 000 2.608zm0 5.316a1.304 1.304 0 100-2.608 1.304 1.304 0 000 2.608zm0 5.316a1.304 1.304 0 100-2.608 1.304 1.304 0 000 2.608z" fill="#333"/></svg>