<svg width="67" height="67" fill="none" xmlns="http://www.w3.org/2000/svg"><g clip-path="url(#clip0)" fill="#141414"><path d="M10.911 54.227a1.309 1.309 0 100-2.617 1.309 1.309 0 000 2.617z"/><path d="M66.159 43.86a5.086 5.086 0 00-6.699-2.594l-.02.008L51 45.167a1.309 1.309 0 001.095 2.377l8.43-3.888a2.465 2.465 0 013.24 1.262c.265.602.28 1.271.043 1.884a2.446 2.446 0 01-1.301 1.363l-17.275 7.627a9.997 9.997 0 01-8.51-.192l-6.324-3.142a12.609 12.609 0 00-10.731-.243l-.11.048-4.712-10.673 6.546-2.89a13.037 13.037 0 019.808-.314l12.716 4.67a2.288 2.288 0 011.369 2.873 2.28 2.28 0 01-2.882 1.418l-9.834-3.326a1.309 1.309 0 10-.838 2.48l9.833 3.326a4.863 4.863 0 001.561.257 4.905 4.905 0 004.636-3.308c.854-2.496-.466-5.267-2.942-6.176L32.1 35.93a15.642 15.642 0 00-11.767.375l-6.59 2.91a3.263 3.263 0 00-1.556-1.258 3.267 3.267 0 00-2.518.059l-8.418 3.716a1.309 1.309 0 00-.78 1.194L.408 65.688a1.308 1.308 0 001.9 1.171l16.467-8.318a3.267 3.267 0 001.704-1.806 3.264 3.264 0 00.104-2.064l.14-.062a9.997 9.997 0 018.51.193l6.324 3.142a12.609 12.609 0 0010.732.243l17.275-7.627a5.086 5.086 0 002.595-6.7zm-48.12 11.93a.668.668 0 01-.357.372l-14.65 7.4.015-5.627 3.791-1.861a1.308 1.308 0 10-1.154-2.35l-2.628 1.291.031-11.232 7.64-3.373a.67.67 0 01.888.343l6.411 14.522a.669.669 0 01.012.515zm31.126-39.364h-2.4c-.9 0-1.63-.732-1.63-1.63V13.4c0-.9.73-1.63 1.63-1.63h2.659c.756 0 1.37.614 1.37 1.37a1.309 1.309 0 002.618 0 3.993 3.993 0 00-3.988-3.988h-.15V7.56a1.309 1.309 0 00-2.618 0v1.596a4.252 4.252 0 00-4.139 4.245v1.396a4.252 4.252 0 004.248 4.247h2.4c.899 0 1.63.731 1.63 1.63v1.396c0 .9-.731 1.63-1.63 1.63h-2.66a1.373 1.373 0 01-1.37-1.371 1.309 1.309 0 00-2.618 0c0 2.2 1.79 3.988 3.989 3.988h.15v1.594a1.309 1.309 0 002.617 0v-1.596a4.251 4.251 0 004.139-4.245v-1.396a4.252 4.252 0 00-4.247-4.247z"/><path d="M47.965 0c-9.8 0-17.773 7.973-17.773 17.772 0 9.8 7.973 17.773 17.773 17.773s17.772-7.973 17.772-17.773S57.765 0 47.965 0zm0 32.928c-8.357 0-15.155-6.799-15.155-15.156 0-8.356 6.798-15.155 15.155-15.155 8.356 0 15.155 6.799 15.155 15.155 0 8.357-6.799 15.156-15.155 15.156z"/></g><defs><clipPath id="clip0"><path fill="#fff" d="M0 0h67v67H0z"/></clipPath></defs></svg>