<svg width="64" height="54" fill="none" xmlns="http://www.w3.org/2000/svg"><path d="M14.701 36.202a1.242 1.242 0 100-2.484 1.242 1.242 0 000 2.484z" fill="#141414"/><path d="M63.568 24.589v-.129a5.22 5.22 0 00-5.214-5.213h-14.88A22.439 22.439 0 0046.48 8.36c.01-.645.005-1.311 0-2.016a164.15 164.15 0 01-.007-1.458A4.89 4.89 0 0041.604 0c-.5-.005-2.17.078-3.483 1.45a4.691 4.691 0 00-1.195 2.275c-.354 1.672-.797 3.1-1.353 4.365-2.038 4.635-4.942 8.507-8.63 11.508a28.959 28.959 0 01-3.115 2.205 3.494 3.494 0 00-3.361-2.556H1.242c-.686 0-1.242.555-1.242 1.241v32.09c0 .685.556 1.241 1.242 1.241h19.225a3.492 3.492 0 003.474-3.186 13.06 13.06 0 008.574 3.186h25.839a5.22 5.22 0 005.214-5.214 5.205 5.205 0 00-1.84-3.972 5.204 5.204 0 001.84-3.972v-.156c0-1.59-.715-3.015-1.84-3.972a5.204 5.204 0 001.84-3.972v-.027c0-1.59-.715-3.015-1.84-3.973a5.204 5.204 0 001.84-3.972zm-42.096-.738v26.48c0 .554-.451 1.005-1.005 1.005h-4.524V40.52a1.242 1.242 0 00-2.484 0v10.817H2.483V21.73h17.984c.554 0 1.005.45 1.005 1.005v1.116zm33.443 5.952h3.439a2.734 2.734 0 012.73 2.73v.028a2.734 2.734 0 01-2.73 2.73h-3.439a1.242 1.242 0 000 2.484h3.439a2.734 2.734 0 012.73 2.73v.156a2.734 2.734 0 01-2.73 2.73h-3.439a1.242 1.242 0 000 2.484h3.439a2.734 2.734 0 012.73 2.73 2.734 2.734 0 01-2.73 2.731H32.515a10.6 10.6 0 01-7.39-2.982l-1.17-1.129V24.607a31.588 31.588 0 004.554-3.083c3.998-3.252 7.14-7.436 9.337-12.435.625-1.422 1.119-3.008 1.51-4.848a2.18 2.18 0 01.558-1.074c.611-.639 1.41-.684 1.625-.684h.053a2.404 2.404 0 012.398 2.403c0 .528.004 1.016.008 1.477.005.69.01 1.342 0 1.958a20.03 20.03 0 01-3.811 11.441 1.241 1.241 0 001.007 1.968h17.16a2.734 2.734 0 012.73 2.73v.129a2.734 2.734 0 01-2.73 2.73h-3.439a1.242 1.242 0 000 2.484z" fill="#141414"/></svg>