<svg xmlns="http://www.w3.org/2000/svg"><symbol id="wifi" viewBox="0 0 29 29"><path d="M24.807 12.17c.035-4.09-3.447-7.837-7.763-8.356a5.448 5.448 0 01-.278-.042 4.035 4.035 0 00-.657-.071c-.885 0-1.121.62-1.183.991-.06.36-.003.663.17.9.294.398.81.469 1.223.526.121.016.236.032.332.053 3.877.867 5.182 2.229 5.82 6.073.016.094.023.21.03.332.028.46.086 1.416 1.114 1.416.085 0 .177-.008.273-.022.957-.146.927-1.02.913-1.44-.004-.118-.008-.23.002-.304a.412.412 0 00.004-.056z"/><path d="M15.858 2.314a4.2 4.2 0 01.314.03c6.366.979 9.294 3.995 10.105 10.411.014.11.016.242.019.383.008.502.024 1.544 1.144 1.566h.035c.351 0 .63-.106.83-.315.35-.364.325-.906.305-1.341-.005-.107-.01-.208-.008-.296C28.683 6.19 23.002.24 16.447.018c-.028 0-.054 0-.08.004a.548.548 0 01-.077.005c-.066 0-.146-.006-.232-.012C15.955.008 15.838 0 15.72 0c-1.044 0-1.243.742-1.268 1.185-.059 1.022.93 1.094 1.406 1.129zM25.97 21.048a18.29 18.29 0 01-.406-.316c-.695-.56-1.435-1.075-2.15-1.574a166.37 166.37 0 01-.445-.31c-.916-.644-1.74-.956-2.518-.956-1.048 0-1.961.579-2.716 1.72-.334.507-.739.753-1.239.753-.295 0-.63-.084-.997-.25-2.957-1.342-5.069-3.398-6.276-6.111-.584-1.312-.395-2.17.633-2.867.583-.396 1.669-1.133 1.592-2.545C11.36 6.99 7.824 2.167 6.334 1.62c-.63-.232-1.294-.234-1.974-.006C2.647 2.19 1.418 3.201.805 4.538.213 5.83.24 7.348.883 8.925 2.74 13.488 5.355 17.467 8.65 20.75c3.226 3.214 7.19 5.846 11.784 7.824.414.178.848.275 1.165.346.108.025.201.045.27.064a.45.45 0 00.114.016h.036c2.16 0 4.755-1.974 5.552-4.225.698-1.97-.577-2.944-1.6-3.727zM16.813 7.526c-.37.01-1.14.029-1.41.813-.126.366-.11.684.045.945.23.383.67.5 1.069.565 1.449.232 2.193 1.034 2.342 2.521.07.694.536 1.179 1.136 1.179.045 0 .09-.003.135-.008.722-.086 1.071-.616 1.04-1.576.011-1-.513-2.138-1.404-3.043-.894-.908-1.972-1.42-2.953-1.396z"/></symbol><symbol id="plane" viewBox="0 0 35 29"><path d="M13.733 19.223l-.579 8.144c.829 0 1.188-.356 1.618-.783l3.883-3.712 8.047 5.893c1.476.823 2.516.39 2.914-1.358l5.282-24.75.002-.002c.468-2.181-.79-3.035-2.227-2.5L1.625 12.043c-2.12.823-2.087 2.004-.36 2.54l7.937 2.468L27.64 5.514c.868-.575 1.657-.257 1.008.317L13.733 19.224z"/></symbol><symbol id="whatsapp" viewBox="0 0 29 29"><path d="M14.504 0h-.008C6.501 0 0 6.503 0 14.5c0 3.172 1.022 6.112 2.76 8.5L.953 28.386l5.574-1.782A14.374 14.374 0 0014.504 29C22.499 29 29 22.495 29 14.5S22.499 0 14.504 0zm8.437 20.476c-.35.988-1.738 1.807-2.846 2.046-.757.162-1.747.29-5.078-1.09-4.262-1.766-7.006-6.096-7.22-6.377-.204-.281-1.721-2.293-1.721-4.374 0-2.08 1.056-3.094 1.482-3.529.35-.357.928-.52 1.483-.52.18 0 .34.01.486.016.425.019.64.044.92.716.35.843 1.202 2.924 1.303 3.138.104.214.207.504.062.785-.136.29-.255.418-.47.665-.213.246-.416.435-.63.7-.196.23-.417.476-.17.902.246.417 1.098 1.807 2.352 2.924 1.619 1.44 2.93 1.9 3.4 2.097.35.145.767.11 1.023-.162.324-.35.725-.93 1.132-1.5.29-.41.657-.46 1.04-.316.392.136 2.464 1.16 2.89 1.372.426.214.707.316.81.495.102.18.102 1.022-.248 2.012z"/></symbol><symbol id="callus" viewBox="0 0 50 38"><path d="M3.18 2.883l-.299.381a8.585 8.585 0 00-1.22 2.152 8.987 8.987 0 00-.547 2.197l-.001.007c-.72 5.968 1.942 11.558 9.865 19.482 10.69 10.69 19.21 9.905 19.497 9.875a8.939 8.939 0 002.199-.553 8.558 8.558 0 002.148-1.216l.3-.235 1.328-1.3c.842-.848.829-2.153.075-2.91h-.001l-5.88-5.88v-.001c-.757-.754-2.064-.766-2.91.08l-2.964 2.963-.531.531-.659-.362a91.891 91.891 0 01-.589-.328c-1.884-1.044-4.549-2.52-7.347-5.321M3.18 2.882l8.011 11.725c1.04 1.871 2.462 4.432 5.16 7.13l-.707.706M3.18 2.883l1.233-1.241h.001c.849-.85 2.156-.836 2.91-.082l5.88 5.882c.756.757.77 2.063-.078 2.911l-.977.978-.001.001-1.988 1.985-.541.54.38.664c.085.15.17.305.264.474l.047.085.001.002.012.021c1.046 1.884 2.524 4.544 5.32 7.34M3.18 2.883l12.464 19.561"/></symbol><symbol id="schedule" viewBox="0 0 54 67" fill="none"><path d="M50.507 5.19H33.363C32.758 2.233 30.135 0 27 0a6.505 6.505 0 00-6.363 5.19H3.493A3.497 3.497 0 000 8.685V45.79a3.497 3.497 0 003.493 3.493H19.78l-5.29 15.76a1.304 1.304 0 002.473.83l5.568-16.59h8.938l5.568 16.59a1.304 1.304 0 002.473-.83l-5.29-15.76h16.287A3.497 3.497 0 0054 45.79V8.684a3.497 3.497 0 00-3.493-3.493zM27 2.609a3.893 3.893 0 013.662 2.583h-7.324A3.893 3.893 0 0127 2.608zM51.392 45.79a.886.886 0 01-.885.886H47.1v-18.59a1.304 1.304 0 00-2.608 0v18.59H40.48v-14.6a1.304 1.304 0 00-2.607 0v14.6h-3.662V36.34a1.304 1.304 0 00-2.608 0v10.335h-3.3v-13.65a1.304 1.304 0 00-2.608 0v13.65h-3.787V39.5a1.304 1.304 0 10-2.607 0v7.175h-3.028v-6.649a1.304 1.304 0 00-2.608 0v6.649h-3.492v-5.13a1.304 1.304 0 00-2.608 0v5.13H3.493a.886.886 0 01-.885-.886V8.684c0-.488.397-.885.885-.885h47.014c.488 0 .885.397.885.885v37.105z" fill="#333"/><path d="M7.94 35.764l.007.053c.004.024.007.049.012.073.004.021.01.041.015.061l.016.063.02.059.023.062c.007.018.016.035.024.053l.03.062.03.049.036.06.037.051c.013.018.025.035.04.052a1.1 1.1 0 00.073.082l.012.013.013.012c.027.026.054.05.082.074l.05.037.053.04.057.034.053.031.058.028.058.027.055.02.065.023.055.014.069.017.061.01.065.008c.035.004.07.005.105.006l.023.001h5.633a1.304 1.304 0 000-2.608h-2.485l10.827-10.826 2.842 2.842a1.304 1.304 0 001.844 0l9.41-9.41 2.809 2.81a1.304 1.304 0 001.844 0l4.758-4.759a1.304 1.304 0 00-1.844-1.844l-3.836 3.836-2.81-2.809a1.304 1.304 0 00-1.843 0l-9.41 9.41-2.842-2.843a1.304 1.304 0 00-1.844 0L10.542 32.487v-2.485a1.304 1.304 0 00-2.608 0v5.632c0 .044.002.087.006.13zM9.238 15.37a1.304 1.304 0 100-2.609 1.304 1.304 0 000 2.608zm0 5.316a1.304 1.304 0 100-2.608 1.304 1.304 0 000 2.608zm0 5.316a1.304 1.304 0 100-2.608 1.304 1.304 0 000 2.608z" fill="#333"/></symbol><symbol id="money" viewBox="0 0 67 67" fill="none"><g clip-path="url(#clip0)" fill="#141414"><path d="M10.911 54.227a1.309 1.309 0 100-2.617 1.309 1.309 0 000 2.617z"/><path d="M66.159 43.86a5.086 5.086 0 00-6.699-2.594l-.02.008L51 45.167a1.309 1.309 0 001.095 2.377l8.43-3.888a2.465 2.465 0 013.24 1.262c.265.602.28 1.271.043 1.884a2.446 2.446 0 01-1.301 1.363l-17.275 7.627a9.997 9.997 0 01-8.51-.192l-6.324-3.142a12.609 12.609 0 00-10.731-.243l-.11.048-4.712-10.673 6.546-2.89a13.037 13.037 0 019.808-.314l12.716 4.67a2.288 2.288 0 011.369 2.873 2.28 2.28 0 01-2.882 1.418l-9.834-3.326a1.309 1.309 0 10-.838 2.48l9.833 3.326a4.863 4.863 0 001.561.257 4.905 4.905 0 004.636-3.308c.854-2.496-.466-5.267-2.942-6.176L32.1 35.93a15.642 15.642 0 00-11.767.375l-6.59 2.91a3.263 3.263 0 00-1.556-1.258 3.267 3.267 0 00-2.518.059l-8.418 3.716a1.309 1.309 0 00-.78 1.194L.408 65.688a1.308 1.308 0 001.9 1.171l16.467-8.318a3.267 3.267 0 001.704-1.806 3.264 3.264 0 00.104-2.064l.14-.062a9.997 9.997 0 018.51.193l6.324 3.142a12.609 12.609 0 0010.732.243l17.275-7.627a5.086 5.086 0 002.595-6.7zm-48.12 11.93a.668.668 0 01-.357.372l-14.65 7.4.015-5.627 3.791-1.861a1.308 1.308 0 10-1.154-2.35l-2.628 1.291.031-11.232 7.64-3.373a.67.67 0 01.888.343l6.411 14.522a.669.669 0 01.012.515zm31.126-39.364h-2.4c-.9 0-1.63-.732-1.63-1.63V13.4c0-.9.73-1.63 1.63-1.63h2.659c.756 0 1.37.614 1.37 1.37a1.309 1.309 0 002.618 0 3.993 3.993 0 00-3.988-3.988h-.15V7.56a1.309 1.309 0 00-2.618 0v1.596a4.252 4.252 0 00-4.139 4.245v1.396a4.252 4.252 0 004.248 4.247h2.4c.899 0 1.63.731 1.63 1.63v1.396c0 .9-.731 1.63-1.63 1.63h-2.66a1.373 1.373 0 01-1.37-1.371 1.309 1.309 0 00-2.618 0c0 2.2 1.79 3.988 3.989 3.988h.15v1.594a1.309 1.309 0 002.617 0v-1.596a4.251 4.251 0 004.139-4.245v-1.396a4.252 4.252 0 00-4.247-4.247z"/><path d="M47.965 0c-9.8 0-17.773 7.973-17.773 17.772 0 9.8 7.973 17.773 17.773 17.773s17.772-7.973 17.772-17.773S57.765 0 47.965 0zm0 32.928c-8.357 0-15.155-6.799-15.155-15.156 0-8.356 6.798-15.155 15.155-15.155 8.356 0 15.155 6.799 15.155 15.155 0 8.357-6.799 15.156-15.155 15.156z"/></g><defs><clipPath id="clip0"><path fill="#fff" d="M0 0h67v67H0z"/></clipPath></defs></symbol><symbol id="result" viewBox="0 0 64 54" fill="none"><path d="M14.701 36.202a1.242 1.242 0 100-2.484 1.242 1.242 0 000 2.484z" fill="#141414"/><path d="M63.568 24.589v-.129a5.22 5.22 0 00-5.214-5.213h-14.88A22.439 22.439 0 0046.48 8.36c.01-.645.005-1.311 0-2.016a164.15 164.15 0 01-.007-1.458A4.89 4.89 0 0041.604 0c-.5-.005-2.17.078-3.483 1.45a4.691 4.691 0 00-1.195 2.275c-.354 1.672-.797 3.1-1.353 4.365-2.038 4.635-4.942 8.507-8.63 11.508a28.959 28.959 0 01-3.115 2.205 3.494 3.494 0 00-3.361-2.556H1.242c-.686 0-1.242.555-1.242 1.241v32.09c0 .685.556 1.241 1.242 1.241h19.225a3.492 3.492 0 003.474-3.186 13.06 13.06 0 008.574 3.186h25.839a5.22 5.22 0 005.214-5.214 5.205 5.205 0 00-1.84-3.972 5.204 5.204 0 001.84-3.972v-.156c0-1.59-.715-3.015-1.84-3.972a5.204 5.204 0 001.84-3.972v-.027c0-1.59-.715-3.015-1.84-3.973a5.204 5.204 0 001.84-3.972zm-42.096-.738v26.48c0 .554-.451 1.005-1.005 1.005h-4.524V40.52a1.242 1.242 0 00-2.484 0v10.817H2.483V21.73h17.984c.554 0 1.005.45 1.005 1.005v1.116zm33.443 5.952h3.439a2.734 2.734 0 012.73 2.73v.028a2.734 2.734 0 01-2.73 2.73h-3.439a1.242 1.242 0 000 2.484h3.439a2.734 2.734 0 012.73 2.73v.156a2.734 2.734 0 01-2.73 2.73h-3.439a1.242 1.242 0 000 2.484h3.439a2.734 2.734 0 012.73 2.73 2.734 2.734 0 01-2.73 2.731H32.515a10.6 10.6 0 01-7.39-2.982l-1.17-1.129V24.607a31.588 31.588 0 004.554-3.083c3.998-3.252 7.14-7.436 9.337-12.435.625-1.422 1.119-3.008 1.51-4.848a2.18 2.18 0 01.558-1.074c.611-.639 1.41-.684 1.625-.684h.053a2.404 2.404 0 012.398 2.403c0 .528.004 1.016.008 1.477.005.69.01 1.342 0 1.958a20.03 20.03 0 01-3.811 11.441 1.241 1.241 0 001.007 1.968h17.16a2.734 2.734 0 012.73 2.73v.129a2.734 2.734 0 01-2.73 2.73h-3.439a1.242 1.242 0 000 2.484z" fill="#141414"/></symbol><symbol id="facebook" viewBox="0 0 8 14"><path d="M6.764.003L5.078 0C3.184 0 1.96 1.352 1.96 3.446v1.588H.265C.12 5.034 0 5.162 0 5.32v2.3c0 .158.119.286.265.286H1.96v5.808c0 .157.119.285.265.285h2.212c.146 0 .265-.128.265-.285V7.907h1.982c.146 0 .265-.128.265-.286V5.32a.297.297 0 00-.077-.202.256.256 0 00-.188-.084H4.702V3.687c0-.647.143-.975.926-.975h1.135c.147 0 .265-.129.265-.286V.289c0-.158-.118-.286-.264-.286z"/></symbol><symbol id="vkontakte" viewBox="0 0 20 10"><path d="M18.9 10.6a1.402 1.402 0 00-.065-.13c-.33-.625-.96-1.392-1.89-2.302l-.02-.02-.01-.01-.009-.011h-.01c-.422-.424-.69-.708-.801-.854-.205-.278-.25-.559-.139-.844.08-.215.376-.67.89-1.364.27-.368.485-.663.643-.885 1.141-1.597 1.636-2.617 1.484-3.061l-.059-.104c-.04-.063-.141-.12-.306-.172-.165-.052-.376-.06-.633-.026l-2.85.02a.352.352 0 00-.197.006l-.129.031-.05.026-.039.032a.45.45 0 00-.109.109.727.727 0 00-.099.182 17.37 17.37 0 01-1.058 2.343c-.244.43-.468.804-.673 1.12a5.357 5.357 0 01-.514.697c-.139.15-.264.269-.376.36-.112.09-.198.128-.257.114a6.937 6.937 0 01-.169-.042.68.68 0 01-.222-.255 1.187 1.187 0 01-.114-.406 4.726 4.726 0 01-.034-.422 9.238 9.238 0 01.004-.5c.007-.215.01-.36.01-.437 0-.264.005-.55.015-.86l.025-.733c.007-.18.01-.372.01-.573 0-.201-.012-.36-.035-.474a1.692 1.692 0 00-.103-.333.555.555 0 00-.203-.25c-.09-.059-.2-.106-.332-.14-.35-.084-.794-.129-1.335-.136-1.227-.014-2.015.07-2.365.25a1.34 1.34 0 00-.375.312c-.12.153-.136.237-.05.25.396.063.676.212.84.448l.06.125c.046.09.093.25.139.48.046.228.076.482.089.76.033.506.033.94 0 1.3-.033.362-.064.643-.094.844a1.756 1.756 0 01-.253.719.175.175 0 01-.049.052.708.708 0 01-.267.052c-.092 0-.204-.049-.336-.146a2.424 2.424 0 01-.41-.4 5.366 5.366 0 01-.48-.714 12.671 12.671 0 01-.555-1.083l-.158-.302a26.525 26.525 0 01-.405-.849c-.172-.371-.324-.73-.456-1.078A.684.684 0 003.78.983L3.73.952a1.01 1.01 0 00-.386-.156l-2.71.02c-.277 0-.465.066-.564.198l-.04.063a.352.352 0 00-.03.167c0 .076.02.17.06.28a35.19 35.19 0 001.29 2.833c.465.91.87 1.642 1.212 2.197a26 26 0 001.049 1.572c.356.493.592.81.707.948.115.139.206.243.272.312l.247.25c.159.167.391.367.698.599.307.233.646.462 1.019.688.372.225.806.409 1.3.551.495.143.977.2 1.445.172h1.138c.23-.02.405-.097.524-.229l.04-.052a.714.714 0 00.074-.193 1.11 1.11 0 00.034-.286 3.613 3.613 0 01.064-.807c.05-.24.106-.42.169-.541a1.33 1.33 0 01.38-.458.631.631 0 01.08-.037c.158-.055.344-.002.559.162.214.163.415.364.603.604s.414.508.678.807c.264.298.494.52.692.666l.198.125c.132.083.304.16.515.23.21.069.395.086.553.051l2.533-.041c.25 0 .445-.044.584-.13.138-.087.22-.183.247-.287a.848.848 0 00.005-.354 1.363 1.363 0 00-.07-.276z"/></symbol><symbol id="instagram" viewBox="0 0 12 14"><path d="M9.481 0H3.519C1.579 0 0 1.7 0 3.79v6.42C0 12.3 1.579 14 3.519 14h5.962C11.421 14 13 12.3 13 10.21V3.79C13 1.7 11.421 0 9.481 0zM6.5 10.828c-1.96 0-3.555-1.717-3.555-3.828 0-2.11 1.595-3.828 3.555-3.828 1.96 0 3.555 1.717 3.555 3.828 0 2.11-1.595 3.828-3.555 3.828zm3.64-6.753c-.58 0-1.05-.507-1.05-1.131s.47-1.131 1.05-1.131c.579 0 1.05.507 1.05 1.13 0 .625-.471 1.132-1.05 1.132z"/></symbol><symbol id="mouse" viewBox="0 0 32 52" fill="none"><rect x="1" y="1" width="30" height="50" rx="14" stroke="#141414" stroke-width="3"/><path stroke="#141414" stroke-width="3" d="M16 11.001V25"/></symbol><symbol id="arrow" viewBox="0 0 12 8" fill="none"><path d="M5.47 7.03a.75.75 0 001.06 0l4.773-4.773a.75.75 0 10-1.06-1.06L6 5.439 1.757 1.197a.75.75 0 10-1.06 1.06L5.47 7.03zM5.25 6v.5h1.5V6h-1.5z" fill="#fff"/></symbol><symbol id="graphs" viewBox="0 0 43 43"><path d="M39.417 0h-30.1a3.588 3.588 0 00-3.584 3.583V15.05h1.434V3.583a2.15 2.15 0 012.15-2.15h30.1a2.15 2.15 0 012.15 2.15V25.8a2.15 2.15 0 01-2.15 2.15H30.1v1.433h9.317A3.588 3.588 0 0043 25.8V3.583A3.588 3.588 0 0039.417 0z"/><path d="M8.6 2.867h1.433V4.3H8.6V2.867zm2.867 0H12.9V4.3h-1.433V2.867zm2.866 0h1.434V4.3h-1.434V2.867zM8.6 5.733h31.533v1.433H8.6V5.733zm0 2.867h7.167v1.433H8.6V8.6zm0 2.867h4.3V12.9H8.6v-1.433zm12.183 2.15v-1.434a.716.716 0 00-.716-.716H17.2a.716.716 0 00-.717.716v.717h2.867v.717h1.433zm5.734 3.583v-7.166a.716.716 0 00-.717-.717h-2.867a.716.716 0 00-.716.717v5.016h1.433v-4.3h1.433v6.45h1.434zm4.3 7.167H30.1V25.8h10.033v-1.433h-2.15V10.034a.716.716 0 00-.716-.717H34.4a.716.716 0 00-.717.717v14.333H32.25V15.05a.717.717 0 00-.717-.716h-2.866a.716.716 0 00-.717.716v6.45h1.433v-5.733h1.434v8.6zm4.3-13.617h1.433v13.617h-1.433V10.75zm-20.784 3.584C6.417 14.334 0 20.75 0 28.666 0 36.583 6.417 43 14.333 43c7.917 0 14.334-6.417 14.334-14.333-.01-7.913-6.421-14.325-14.334-14.334zm0 27.233c-6.989.005-12.711-5.555-12.905-12.542-.194-6.986 5.21-12.856 12.189-13.239v12.88c0 .016.008.03.008.045a.687.687 0 00.037.186c.005.014 0 .032.01.046l.016.025a.723.723 0 00.135.201l.004.005 9.106 9.107a12.802 12.802 0 01-8.6 3.286zm9.614-4.3l-7.883-7.884h11.15a12.79 12.79 0 01-3.267 7.884zM15.05 27.95V15.786A12.92 12.92 0 0127.214 27.95H15.05z"/></symbol><symbol id="laptop" viewBox="0 0 43 33"><path d="M42.283 27.233H40.85V3.583A3.588 3.588 0 0037.267 0H5.733A3.588 3.588 0 002.15 3.583v23.65H.717A.716.716 0 000 27.95v2.15a2.867 2.867 0 002.867 2.867h37.266A2.867 2.867 0 0043 30.1v-2.15a.716.716 0 00-.717-.717zm-38.7-23.65a2.15 2.15 0 012.15-2.15h31.534a2.15 2.15 0 012.15 2.15v23.65h-1.434V5.017a2.15 2.15 0 00-2.15-2.15H7.167a2.15 2.15 0 00-2.15 2.15v22.216H3.583V3.583zM36.55 5.017v22.216H25.885a2.002 2.002 0 00-1.805 1.113.573.573 0 01-.518.32h-4.127a.574.574 0 01-.519-.32 2.002 2.002 0 00-1.8-1.113H6.45V5.017c0-.396.32-.717.717-.717h28.666c.396 0 .717.32.717.717zM41.567 30.1c0 .792-.642 1.433-1.434 1.433H2.867A1.433 1.433 0 011.433 30.1v-1.433h15.682a.573.573 0 01.519.32 2.002 2.002 0 001.8 1.113h4.131a2.002 2.002 0 001.805-1.113.574.574 0 01.515-.32h15.682V30.1z"/><path d="M19.027 16.631c.005 0 .01.008.015.01l.04.016c.163.077.329.144.5.206l.085.03c.161.055.326.102.494.143l.113.03c.158.034.319.06.482.08.044.007.087.017.13.02.41.047.822.047 1.23 0 .044-.003.087-.013.131-.02.163-.02.324-.046.482-.08l.113-.03c.168-.04.333-.087.494-.143l.084-.03c.17-.06.337-.13.502-.206l.038-.015c.006 0 .01-.008.016-.011a5.734 5.734 0 10-4.945 0h-.004zm3.906-1.115l-.009.003a4.23 4.23 0 01-.674.177 4.26 4.26 0 01-1.434.011l-.066-.01c-.23-.041-.454-.1-.674-.178l-.01-.003v-1.183a1.433 1.433 0 112.867 0v1.183zm-2.15-4.766a.716.716 0 111.433 0 .716.716 0 01-1.433 0zm.717-3.583a4.294 4.294 0 012.867 7.496v-.33a2.855 2.855 0 00-1.16-2.29 2.13 2.13 0 00.443-1.293 2.15 2.15 0 00-4.3 0c.002.467.158.92.444 1.29a2.854 2.854 0 00-1.16 2.293v.33A4.294 4.294 0 0121.5 7.167zm11.467 11.467H10.033a.716.716 0 00-.716.716v5.734c0 .396.32.716.716.716h22.934c.396 0 .716-.32.716-.716V19.35a.716.716 0 00-.716-.717zm-.717 5.733h-21.5v-4.3h21.5v4.3z"/><path d="M12.183 21.5h1.434v1.433h-1.434V21.5zm2.867 0h1.433v1.433H15.05V21.5zm2.866 0h1.434v1.433h-1.434V21.5zm2.867 0h1.434v1.433h-1.434V21.5zM7.883 5.733h4.3v1.434h-4.3V5.733zm5.734 0h1.433v1.434h-1.433V5.733z"/></symbol><symbol id="storebasket" viewBox="0 0 44 43"><path d="M39.419 0H12.185a3.588 3.588 0 00-3.583 3.583V21.5h1.433V3.583a2.15 2.15 0 012.15-2.15H39.42a2.15 2.15 0 012.15 2.15v22.934a2.15 2.15 0 01-2.15 2.15H21.502V30.1h17.917a3.588 3.588 0 003.583-3.583V3.583A3.587 3.587 0 0039.42 0z"/><path d="M11.469 2.867h1.433V4.3H11.47V2.867zm2.866 0h1.434V4.3h-1.434V2.867zm2.867 0h1.434V4.3h-1.434V2.867zm-5.733 2.866h28.666v1.434H11.47V5.733zm0 10.751c0 .396.32.716.717.716h7.166c.396 0 .717-.32.717-.716V9.317a.716.716 0 00-.717-.716h-7.166a.716.716 0 00-.717.716v7.167zm1.433-6.45h5.734v5.733h-5.734v-5.733zm17.2-.717a.716.716 0 00-.716-.716h-7.167a.717.717 0 00-.717.716v7.167c0 .396.321.716.717.716h7.166c.396 0 .717-.32.717-.716V9.317zm-1.433 6.45h-5.734v-5.733h5.734v5.733zm11.467-6.45a.716.716 0 00-.717-.716h-7.167a.716.716 0 00-.716.716v7.167c0 .396.32.716.716.716h7.167c.396 0 .717-.32.717-.716V9.317zm-1.434 6.45H32.97v-5.733h5.733v5.733zM11.469 21.5h1.433v-1.433h7.167v-.717a.716.716 0 00-.717-.717h-7.166a.717.717 0 00-.717.717v2.15zm17.916-2.867h-.716V25.8h-5.734v1.433h6.45a.717.717 0 00.717-.717V19.35a.717.717 0 00-.717-.717zm10.034 0h-7.167a.716.716 0 00-.716.717v7.166c0 .396.32.717.716.717h7.167a.717.717 0 00.717-.717V19.35a.716.716 0 00-.717-.717zm-.716 7.167h-5.734v-5.733h5.733V25.8z"/><path d="M.16 23.201a.718.718 0 00-.144.605l2.867 12.9a.717.717 0 00.702.56h15.767a.716.716 0 110 1.434H2.869a2.15 2.15 0 102.15 2.15 2.13 2.13 0 00-.132-.717h10.297c-.085.23-.13.472-.132.717a2.15 2.15 0 004.3 0 2.113 2.113 0 00-.132-.717h.132a2.15 2.15 0 100-4.3h-.54l2.652-11.942 1.198-2.39h.405a2.15 2.15 0 100-1.434h-.848a.717.717 0 00-.645.396l-1.231 2.47H.719a.716.716 0 00-.56.268zm2.709 18.366a.717.717 0 110-1.434.717.717 0 010 1.434zm14.333 0a.717.717 0 110-1.433.717.717 0 010 1.433zm7.883-21.5a.716.716 0 11.001 1.433.716.716 0 010-1.433zm-15.05 15.767H7.13l-.16-2.867h3.065v2.867zm0-4.3H6.891l-.16-2.867h3.304v2.867zm6.412-7.167h3.445l-.637 2.867h-2.968l.16-2.867zm-.24 4.3h2.73l-.638 2.867h-2.25l.159-2.867zm-.238 4.3h2.013l-.636 2.867h-1.537l.16-2.867zm-4.5-8.6h3.542l-.159 2.867H11.47v-2.867zm0 4.3h3.304l-.16 2.867H11.47v-2.867zm0 4.3h3.065l-.16 2.867H11.47v-2.867zm-1.434-8.6v2.867H6.652l-.16-2.867h3.543zm-4.34 11.467H4.159l-.637-2.867h2.014l.159 2.867zm-.239-4.3H3.205l-.637-2.867h2.729l.16 2.867zm-.399-7.167l.16 2.867H2.25l-.638-2.867h3.446z"/></symbol><symbol id="advertising" viewBox="0 0 43 43"><path d="M39.417 0H3.583A3.588 3.588 0 000 3.583V32.25a3.588 3.588 0 003.583 3.583h12.184V34.4H3.583a2.15 2.15 0 01-2.15-2.15V3.583a2.15 2.15 0 012.15-2.15h35.834a2.15 2.15 0 012.15 2.15V32.25a2.15 2.15 0 01-1.612 2.083l.358 1.387A3.583 3.583 0 0043 32.25V3.583A3.588 3.588 0 0039.417 0z"/><path d="M2.867 2.867H4.3V4.3H2.867V2.867zm2.866 0h1.434V4.3H5.733V2.867zm2.867 0h1.433V4.3H8.6V2.867zM2.867 5.733h37.266v1.433H2.867V5.733zm2.866 14.334h7.884v-1.434H6.45V12.9h30.1v7.167h.717a.717.717 0 00.716-.717v-7.167a.716.716 0 00-.716-.716H5.733a.716.716 0 00-.716.716v7.167c0 .396.32.717.716.717z"/><path d="M9.317 14.333h1.433V17.2H9.317v-2.867zM35.833 8.6h1.434v1.433h-1.434V8.6zm-2.866 0H34.4v1.433h-1.433V8.6zm-2.867 0h1.433v1.433H30.1V8.6zm-5.017 28.503a11.47 11.47 0 005.883-1.62l6.504 6.686a2.73 2.73 0 001.947.831h.024a2.728 2.728 0 001.972-4.625l-6.55-6.731a11.256 11.256 0 001.687-5.926 11.466 11.466 0 10-22.068 4.287 11.466 11.466 0 0010.601 7.098zm15.304 2.271a1.29 1.29 0 01-.017 1.811 1.307 1.307 0 01-.93.382h-.01a1.305 1.305 0 01-.93-.398l-6.329-6.502c.027-.022.05-.047.077-.068.303-.24.594-.495.87-.764l.037-.033c.284-.282.554-.58.807-.89.02-.025.045-.048.065-.072l6.36 6.534zM25.083 15.767c5.517-.017 10.005 4.435 10.034 9.95a9.84 9.84 0 01-1.751 5.614 10.002 10.002 0 11-8.283-15.564z"/><path d="M25.083 33.683A7.883 7.883 0 1017.2 25.8a7.893 7.893 0 007.883 7.883zm0-14.333a6.45 6.45 0 11-6.45 6.45 6.457 6.457 0 016.45-6.45z"/><path d="M20.993 26.727l5.733-5.734 1.014 1.014-5.733 5.733-1.014-1.013zm2.867 1.433l4.3-4.3 1.013 1.014-4.3 4.3-1.013-1.014z"/></symbol><symbol id="wand" viewBox="0 0 43 43"><path d="M31.537 17.229h1.432v4.299h-1.432v-4.299zm0-17.195h1.432v4.299h-1.432V.034zm7.164 10.031H43v1.432h-4.3v-1.432zm-17.195 0h4.299v1.432h-4.299v-1.432zm14.8-4.35l3.04-3.04 1.013 1.014-3.04 3.04-1.013-1.014zM24.148 3.689l1.013-1.014 3.04 3.04-1.014 1.013-3.04-3.039zm12.157 12.158l1.014-1.013 3.039 3.039-1.013 1.014-3.04-3.04zM3.089 42.811c.28.28.733.28 1.013 0L28.824 18.1l6.814-6.811a.717.717 0 000-1.014L32.76 7.396a.717.717 0 00-1.013 0l-6.815 6.811L.21 38.92a.717.717 0 000 1.014l2.879 2.878zM32.253 8.918l1.863 1.863-5.803 5.798-1.863-1.862 5.803-5.799zm-6.814 6.806l1.863 1.863L3.595 41.292l-1.863-1.863L25.44 15.724z"/></symbol><symbol id="projectstages" viewBox="0 0 1263 619"><path d="M825.84 444l-4-4 53.5-55.5h3.5l2 3-55 56.5zm-357-4l-56.5-55h-1l-.5 2.5 17 31.5 35.5 26 5.5-5z" fill="#fff"/><path d="M468.063 441.553l-56.732-56.709a329.176 329.176 0 01107.357-71.878 329.26 329.26 0 01126.763-25.034v80.244a249.43 249.43 0 00-96.042 18.939 249.353 249.353 0 00-81.346 54.438zm354.775 0a249.36 249.36 0 00-81.347-54.435 249.445 249.445 0 00-96.04-18.942v-80.244a329.272 329.272 0 01126.832 25.009 329.158 329.158 0 01107.416 71.903l-56.861 56.709zM394.431 619H314.22a328.716 328.716 0 0125.004-126.788 328.821 328.821 0 0171.946-107.368l56.893 56.71a249.253 249.253 0 00-54.603 81.348A249.199 249.199 0 00394.431 619zm582.186 0h-80.211a249.207 249.207 0 00-73.471-177.317l56.732-56.71a329.012 329.012 0 0171.906 107.314A328.918 328.918 0 01976.617 619zM724.533 117.061h-.387a516.247 516.247 0 00-147.683-1.418 2.699 2.699 0 01-1.99-.517 2.677 2.677 0 01-1.042-1.772 2.691 2.691 0 011.3-2.686c.304-.179.641-.296.99-.345a522.512 522.512 0 01149.232 1.451 2.675 2.675 0 01-.42 5.32v-.033z" fill="#fff"/><path d="M725.533 104.488a10.063 10.063 0 018.266 7.536 10.057 10.057 0 01-3.809 10.514 10.068 10.068 0 01-15.08-3.851 10.055 10.055 0 013.158-12.357 10.065 10.065 0 017.465-1.842zm-150.263-1.483a10.063 10.063 0 00-8.406 7.385 10.056 10.056 0 003.621 10.585 10.067 10.067 0 0015.148-3.59 10.057 10.057 0 00-10.363-14.38zM134.574 612.1a2.643 2.643 0 01-2.645-2.708 526.631 526.631 0 015.386-65.736 2.694 2.694 0 013.064-2.257 2.687 2.687 0 012.21 2.014c.085.343.101.699.048 1.049a509.071 509.071 0 00-5.354 65.027 2.677 2.677 0 01-2.709 2.611z" fill="#fff"/><path d="M130.027 543.14a10.055 10.055 0 017.472-8.32 10.07 10.07 0 0110.547 3.722 10.06 10.06 0 01.591 11.165 10.07 10.07 0 01-10.096 4.814 10.045 10.045 0 01-6.623-3.922 10.026 10.026 0 01-1.891-7.459zm-5.387 65.608a10.056 10.056 0 006.033 9.409 10.067 10.067 0 0013.858-7.066 10.052 10.052 0 00-4.078-10.406 10.07 10.07 0 00-12.729 1.006 10.062 10.062 0 00-3.084 7.057zm128.913-314.981a2.579 2.579 0 01-1.709-.612 2.708 2.708 0 01-.355-3.772c9.675-11.639 20.061-22.891 30.672-33.465a510.663 510.663 0 0140.767-36.689 2.642 2.642 0 013.741.387 2.71 2.71 0 01-.387 3.772 512.152 512.152 0 00-40.38 36.302c-10.514 10.478-20.738 21.633-30.382 33.11a2.607 2.607 0 01-1.967.967z" fill="#fff"/><path d="M261.649 297.249a10.065 10.065 0 01-17.686-5.732 10.058 10.058 0 0111.202-10.787 10.06 10.06 0 015.355 2.333 10.019 10.019 0 013.518 6.858 10.026 10.026 0 01-2.389 7.328zm69.181-67.703a10.062 10.062 0 003.198-10.713 10.057 10.057 0 00-8.68-7.05 10.066 10.066 0 00-9.836 5.321 10.055 10.055 0 001.159 11.12 10.065 10.065 0 0014.159 1.322zm710.19 68.767c-.4-.004-.8-.102-1.17-.287-.36-.184-.68-.45-.92-.777-10.68-12.896-22.16-25.792-34.09-37.624-10.968-10.961-22.579-21.504-34.351-31.369a2.678 2.678 0 01.345-4.586 2.682 2.682 0 013.074.492 502.364 502.364 0 0134.702 31.691 512.096 512.096 0 0134.48 38.172c.44.55.66 1.253.59 1.958a2.732 2.732 0 01-.95 1.814 2.63 2.63 0 01-1.71.516z" fill="#fff"/><path d="M1048.28 288.931a9.997 9.997 0 012.28 5.373c.22 1.977-.16 3.973-1.08 5.735a10.145 10.145 0 01-4.09 4.166 10.085 10.085 0 01-11.14-.987 10.073 10.073 0 01-3.29-4.82c-.6-1.897-.62-3.928-.06-5.837a10.105 10.105 0 013.19-4.888 10.064 10.064 0 017.36-2.313 10.061 10.061 0 016.83 3.571zm-69.276-69.863a10.063 10.063 0 00-16.553 8.481 10.057 10.057 0 006.96 8.757 10.07 10.07 0 0010.754-3.085 10.06 10.06 0 002.345-7.316 10.06 10.06 0 00-3.506-6.837zm177.226 393.064c-.7 0-1.37-.278-1.87-.774a2.622 2.622 0 01-.77-1.869 512.315 512.315 0 00-5-62.964 2.62 2.62 0 010-1.08c.07-.357.22-.694.43-.992a2.707 2.707 0 011.8-1.109c.36-.053.73-.031 1.08.063.35.094.68.258.97.484.28.225.52.506.69.826.18.32.28.672.32 1.034a515.47 515.47 0 015.09 63.641c.01.351-.05.701-.18 1.029-.12.328-.31.628-.56.882-.24.255-.53.459-.85.601-.32.142-.67.22-1.02.228h-.13z" fill="#fff"/><path d="M1166.2 608.747c.03 1.989-.52 3.944-1.59 5.619a10.073 10.073 0 01-15.45 1.821 9.972 9.972 0 01-2.85-5.096 9.99 9.99 0 01.46-5.822 10.023 10.023 0 013.61-4.584 10.09 10.09 0 015.56-1.803c2.67-.044 5.24.97 7.16 2.818a10.066 10.066 0 013.1 7.047zm-5.1-63.511a10.036 10.036 0 00-2.47-5.292 10.052 10.052 0 00-4.99-3.03 10.086 10.086 0 00-5.84.253c-1.87.66-3.51 1.861-4.71 3.452a10.093 10.093 0 00-2 5.485 9.996 9.996 0 001.39 5.673 10.054 10.054 0 0010.07 4.839c1.31-.182 2.58-.621 3.72-1.292a10.094 10.094 0 002.93-2.62 10.153 10.153 0 001.7-3.544c.32-1.282.39-2.615.2-3.924z" fill="#fff"/><symbol id="circleone" viewBox="0 0 1263 619"><path d="M314.897 480.596L299.19 446.97a131.49 131.49 0 00-6.237-95.584 131.567 131.567 0 00-69.435-66.012 131.636 131.636 0 00-95.814-1.435 131.575 131.575 0 00-71.383 63.902 131.491 131.491 0 00-9.099 95.354 131.543 131.543 0 0058.01 76.24 131.628 131.628 0 00175.026-35.003l34.639-3.836z"/></symbol><path d="M173.922 542.689a135.495 135.495 0 01-79.346-25.7 135.41 135.41 0 01-49.242-67.293 135.356 135.356 0 01-.47-83.373 135.408 135.408 0 0148.48-67.844 135.502 135.502 0 01158.701-1.853 135.414 135.414 0 0150.053 66.693 135.356 135.356 0 011.478 83.361l17.416 37.269-38.444 4.255a135.92 135.92 0 01-47.883 40.052 135.978 135.978 0 01-60.743 14.433zm0-262.688a127.434 127.434 0 00-62.252 16.269 127.383 127.383 0 00-46.358 44.605 127.306 127.306 0 00-4.801 124.377 127.36 127.36 0 0042.781 48.043 127.448 127.448 0 00124.144 9.644 127.393 127.393 0 0049.693-40.86l1.032-1.451 30.834-3.417-13.998-29.951.484-1.483a127.393 127.393 0 004.207-59.054 127.427 127.427 0 00-22.939-54.582 127.487 127.487 0 00-45.137-38.331 127.537 127.537 0 00-57.593-13.809h-.097z" fill="#fff"/><symbol id="circletwo" viewBox="0 0 1263 619"><path d="M513.7 29.661a131.43 131.43 0 00-127.641-14.353 131.394 131.394 0 00-52.679 40.365 131.294 131.294 0 00-19.291 126.94 131.343 131.343 0 0038.31 54.181 131.44 131.44 0 00126.146 24.186l30.349 17.087 6.87-36.463a131.483 131.483 0 0039.044-46.964 131.429 131.429 0 00-1.157-118.784A131.496 131.496 0 00513.7 29.661z"/></symbol><path d="M511.83 284.353l-33.736-18.956a135.516 135.516 0 01-68.13 3.667 135.486 135.486 0 01-61.276-29.995 135.365 135.365 0 01-18.166-186.42 135.456 135.456 0 0154.334-41.251 135.508 135.508 0 01131.199 15.039 135.427 135.427 0 0140.989 47.272 135.36 135.36 0 011.805 121.718 135.423 135.423 0 01-39.569 48.466l-7.45 40.46zm-32.865-27.661l27.027 15.185 6.128-32.498 1.225-.935a127.346 127.346 0 0045.404-64.162 127.302 127.302 0 00-.924-78.587 127.35 127.35 0 00-46.899-63.078A127.43 127.43 0 00435.915 9.07a127.427 127.427 0 00-74.554 24.955 127.344 127.344 0 00-45.701 63.952 127.291 127.291 0 00.559 78.589 127.341 127.341 0 0046.605 63.296 127.842 127.842 0 0055.135 22.378 127.87 127.87 0 0059.296-5.001l1.71-.548z" fill="#fff"/><symbol id="circlethree" viewBox="0 0 1263 619"><path d="M970.489 59.707a131.38 131.38 0 00-41.782-37.522 131.434 131.434 0 00-156.911 20.449 131.315 131.315 0 00-39.087 102.501 131.31 131.31 0 0015.631 53.928 131.346 131.346 0 0036.73 42.475l6.87 36.367 30.382-17.087a131.417 131.417 0 0081.24.559 131.355 131.355 0 0066.032-47.31 131.271 131.271 0 00.895-154.456v.096z"/></symbol><path d="M789.005 284.353l-7.579-40.428a135.423 135.423 0 01-37.336-44.034 135.35 135.35 0 01-6.62-112.597 135.404 135.404 0 0131.918-48.102 135.474 135.474 0 0149.061-30.443A135.514 135.514 0 01930.84 18.756a135.447 135.447 0 0142.907 38.63 135.367 135.367 0 01-.573 158.258 135.456 135.456 0 01-67.16 49.051 135.51 135.51 0 01-83.176.572l-33.833 19.086zM863.573 9.124a127.43 127.43 0 00-74.374 24.147 127.348 127.348 0 00-46.251 63.03 127.305 127.305 0 00-.701 78.165 127.351 127.351 0 0045.114 63.849l1.225.935 6.128 32.497 27.06-15.184 1.677.548a127.403 127.403 0 00106.021-12.165 127.293 127.293 0 0059.546-88.524 127.28 127.28 0 00-28.733-102.736 127.37 127.37 0 00-43.498-33.037 127.407 127.407 0 00-53.343-11.783l.129.258z" fill="#fff"/><symbol id="circlefour" viewBox="0 0 1263 619"><path d="M1126.91 276.003a131.399 131.399 0 00-59.4 14.189 131.341 131.341 0 00-70.222 95.787 131.208 131.208 0 004.362 60.894l-15.712 33.626 34.642 3.836a131.321 131.321 0 0051.25 42.098 131.39 131.39 0 0065.29 11.699 131.4 131.4 0 0062.69-21.681 131.29 131.29 0 0044.09-49.533 131.316 131.316 0 0014.27-64.756 131.31 131.31 0 00-66.99-109.461 131.411 131.411 0 00-64.17-16.794l-.1.096z"/></symbol><path d="M1126.91 542.689a136.025 136.025 0 01-60.69-14.454 136.006 136.006 0 01-47.84-40.031l-38.441-4.255 17.416-37.269a135.365 135.365 0 011.483-83.373 135.35 135.35 0 0150.072-66.695 135.477 135.477 0 0179.66-24.725c28.5.34 56.16 9.656 79.06 26.621a135.44 135.44 0 0148.46 67.873 135.352 135.352 0 01-.51 83.384 135.46 135.46 0 01-49.29 67.273 135.507 135.507 0 01-79.38 25.651zm-134.973-65.478l30.833 3.417 1.03 1.451a126.655 126.655 0 00168.4 33.504 126.546 126.546 0 0055.76-73.367 126.5 126.5 0 00-8.78-91.718 126.602 126.602 0 00-68.66-61.469 126.66 126.66 0 00-92.16 1.353 126.609 126.609 0 00-66.83 63.458 126.53 126.53 0 00-6.08 91.937l.48 1.483-13.993 29.951z" fill="#fff"/></symbol></svg>