<svg xmlns="http://www.w3.org/2000/svg"><symbol id="wifi" viewBox="0 0 29 29"><path d="M24.807 12.17c.035-4.09-3.447-7.837-7.763-8.356a5.448 5.448 0 01-.278-.042 4.035 4.035 0 00-.657-.071c-.885 0-1.121.62-1.183.991-.06.36-.003.663.17.9.294.398.81.469 1.223.526.121.016.236.032.332.053 3.877.867 5.182 2.229 5.82 6.073.016.094.023.21.03.332.028.46.086 1.416 1.114 1.416.085 0 .177-.008.273-.022.957-.146.927-1.02.913-1.44-.004-.118-.008-.23.002-.304a.412.412 0 00.004-.056z"/><path d="M15.858 2.314a4.2 4.2 0 01.314.03c6.366.979 9.294 3.995 10.105 10.411.014.11.016.242.019.383.008.502.024 1.544 1.144 1.566h.035c.351 0 .63-.106.83-.315.35-.364.325-.906.305-1.341-.005-.107-.01-.208-.008-.296C28.683 6.19 23.002.24 16.447.018c-.028 0-.054 0-.08.004a.548.548 0 01-.077.005c-.066 0-.146-.006-.232-.012C15.955.008 15.838 0 15.72 0c-1.044 0-1.243.742-1.268 1.185-.059 1.022.93 1.094 1.406 1.129zM25.97 21.048a18.29 18.29 0 01-.406-.316c-.695-.56-1.435-1.075-2.15-1.574a166.37 166.37 0 01-.445-.31c-.916-.644-1.74-.956-2.518-.956-1.048 0-1.961.579-2.716 1.72-.334.507-.739.753-1.239.753-.295 0-.63-.084-.997-.25-2.957-1.342-5.069-3.398-6.276-6.111-.584-1.312-.395-2.17.633-2.867.583-.396 1.669-1.133 1.592-2.545C11.36 6.99 7.824 2.167 6.334 1.62c-.63-.232-1.294-.234-1.974-.006C2.647 2.19 1.418 3.201.805 4.538.213 5.83.24 7.348.883 8.925 2.74 13.488 5.355 17.467 8.65 20.75c3.226 3.214 7.19 5.846 11.784 7.824.414.178.848.275 1.165.346.108.025.201.045.27.064a.45.45 0 00.114.016h.036c2.16 0 4.755-1.974 5.552-4.225.698-1.97-.577-2.944-1.6-3.727zM16.813 7.526c-.37.01-1.14.029-1.41.813-.126.366-.11.684.045.945.23.383.67.5 1.069.565 1.449.232 2.193 1.034 2.342 2.521.07.694.536 1.179 1.136 1.179.045 0 .09-.003.135-.008.722-.086 1.071-.616 1.04-1.576.011-1-.513-2.138-1.404-3.043-.894-.908-1.972-1.42-2.953-1.396z"/></symbol><symbol id="plane"><path d="M13.733 19.223l-.579 8.144c.829 0 1.188-.356 1.618-.783l3.883-3.712 8.047 5.893c1.476.823 2.516.39 2.914-1.358l5.282-24.75.002-.002c.468-2.181-.79-3.035-2.227-2.5L1.625 12.043c-2.12.823-2.087 2.004-.36 2.54l7.937 2.468L27.64 5.514c.868-.575 1.657-.257 1.008.317L13.733 19.224z"/></symbol><symbol id="whatsapp" viewBox="0 0 29 29"><path d="M14.504 0h-.008C6.501 0 0 6.503 0 14.5c0 3.172 1.022 6.112 2.76 8.5L.953 28.386l5.574-1.782A14.374 14.374 0 0014.504 29C22.499 29 29 22.495 29 14.5S22.499 0 14.504 0zm8.437 20.476c-.35.988-1.738 1.807-2.846 2.046-.757.162-1.747.29-5.078-1.09-4.262-1.766-7.006-6.096-7.22-6.377-.204-.281-1.721-2.293-1.721-4.374 0-2.08 1.056-3.094 1.482-3.529.35-.357.928-.52 1.483-.52.18 0 .34.01.486.016.425.019.64.044.92.716.35.843 1.202 2.924 1.303 3.138.104.214.207.504.062.785-.136.29-.255.418-.47.665-.213.246-.416.435-.63.7-.196.23-.417.476-.17.902.246.417 1.098 1.807 2.352 2.924 1.619 1.44 2.93 1.9 3.4 2.097.35.145.767.11 1.023-.162.324-.35.725-.93 1.132-1.5.29-.41.657-.46 1.04-.316.392.136 2.464 1.16 2.89 1.372.426.214.707.316.81.495.102.18.102 1.022-.248 2.012z"/></symbol><symbol id="callus" viewBox="0 0 50 38"><path d="M3.18 2.883l-.299.381a8.585 8.585 0 00-1.22 2.152 8.987 8.987 0 00-.547 2.197l-.001.007c-.72 5.968 1.942 11.558 9.865 19.482 10.69 10.69 19.21 9.905 19.497 9.875a8.939 8.939 0 002.199-.553 8.558 8.558 0 002.148-1.216l.3-.235 1.328-1.3c.842-.848.829-2.153.075-2.91h-.001l-5.88-5.88v-.001c-.757-.754-2.064-.766-2.91.08l-2.964 2.963-.531.531-.659-.362a91.891 91.891 0 01-.589-.328c-1.884-1.044-4.549-2.52-7.347-5.321M3.18 2.882l8.011 11.725c1.04 1.871 2.462 4.432 5.16 7.13l-.707.706M3.18 2.883l1.233-1.241h.001c.849-.85 2.156-.836 2.91-.082l5.88 5.882c.756.757.77 2.063-.078 2.911l-.977.978-.001.001-1.988 1.985-.541.54.38.664c.085.15.17.305.264.474l.047.085.001.002.012.021c1.046 1.884 2.524 4.544 5.32 7.34M3.18 2.883l12.464 19.561"/></symbol><symbol id="schedule" viewBox="0 0 54 67" fill="none"><path d="M50.507 5.19H33.363C32.758 2.233 30.135 0 27 0a6.505 6.505 0 00-6.363 5.19H3.493A3.497 3.497 0 000 8.685V45.79a3.497 3.497 0 003.493 3.493H19.78l-5.29 15.76a1.304 1.304 0 002.473.83l5.568-16.59h8.938l5.568 16.59a1.304 1.304 0 002.473-.83l-5.29-15.76h16.287A3.497 3.497 0 0054 45.79V8.684a3.497 3.497 0 00-3.493-3.493zM27 2.609a3.893 3.893 0 013.662 2.583h-7.324A3.893 3.893 0 0127 2.608zM51.392 45.79a.886.886 0 01-.885.886H47.1v-18.59a1.304 1.304 0 00-2.608 0v18.59H40.48v-14.6a1.304 1.304 0 00-2.607 0v14.6h-3.662V36.34a1.304 1.304 0 00-2.608 0v10.335h-3.3v-13.65a1.304 1.304 0 00-2.608 0v13.65h-3.787V39.5a1.304 1.304 0 10-2.607 0v7.175h-3.028v-6.649a1.304 1.304 0 00-2.608 0v6.649h-3.492v-5.13a1.304 1.304 0 00-2.608 0v5.13H3.493a.886.886 0 01-.885-.886V8.684c0-.488.397-.885.885-.885h47.014c.488 0 .885.397.885.885v37.105z" fill="#333"/><path d="M7.94 35.764l.007.053c.004.024.007.049.012.073.004.021.01.041.015.061l.016.063.02.059.023.062c.007.018.016.035.024.053l.03.062.03.049.036.06.037.051c.013.018.025.035.04.052a1.1 1.1 0 00.073.082l.012.013.013.012c.027.026.054.05.082.074l.05.037.053.04.057.034.053.031.058.028.058.027.055.02.065.023.055.014.069.017.061.01.065.008c.035.004.07.005.105.006l.023.001h5.633a1.304 1.304 0 000-2.608h-2.485l10.827-10.826 2.842 2.842a1.304 1.304 0 001.844 0l9.41-9.41 2.809 2.81a1.304 1.304 0 001.844 0l4.758-4.759a1.304 1.304 0 00-1.844-1.844l-3.836 3.836-2.81-2.809a1.304 1.304 0 00-1.843 0l-9.41 9.41-2.842-2.843a1.304 1.304 0 00-1.844 0L10.542 32.487v-2.485a1.304 1.304 0 00-2.608 0v5.632c0 .044.002.087.006.13zM9.238 15.37a1.304 1.304 0 100-2.609 1.304 1.304 0 000 2.608zm0 5.316a1.304 1.304 0 100-2.608 1.304 1.304 0 000 2.608zm0 5.316a1.304 1.304 0 100-2.608 1.304 1.304 0 000 2.608z" fill="#333"/></symbol><symbol id="money" viewBox="0 0 67 67" fill="none"><g clip-path="url(#clip0)" fill="#141414"><path d="M10.911 54.227a1.309 1.309 0 100-2.617 1.309 1.309 0 000 2.617z"/><path d="M66.159 43.86a5.086 5.086 0 00-6.699-2.594l-.02.008L51 45.167a1.309 1.309 0 001.095 2.377l8.43-3.888a2.465 2.465 0 013.24 1.262c.265.602.28 1.271.043 1.884a2.446 2.446 0 01-1.301 1.363l-17.275 7.627a9.997 9.997 0 01-8.51-.192l-6.324-3.142a12.609 12.609 0 00-10.731-.243l-.11.048-4.712-10.673 6.546-2.89a13.037 13.037 0 019.808-.314l12.716 4.67a2.288 2.288 0 011.369 2.873 2.28 2.28 0 01-2.882 1.418l-9.834-3.326a1.309 1.309 0 10-.838 2.48l9.833 3.326a4.863 4.863 0 001.561.257 4.905 4.905 0 004.636-3.308c.854-2.496-.466-5.267-2.942-6.176L32.1 35.93a15.642 15.642 0 00-11.767.375l-6.59 2.91a3.263 3.263 0 00-1.556-1.258 3.267 3.267 0 00-2.518.059l-8.418 3.716a1.309 1.309 0 00-.78 1.194L.408 65.688a1.308 1.308 0 001.9 1.171l16.467-8.318a3.267 3.267 0 001.704-1.806 3.264 3.264 0 00.104-2.064l.14-.062a9.997 9.997 0 018.51.193l6.324 3.142a12.609 12.609 0 0010.732.243l17.275-7.627a5.086 5.086 0 002.595-6.7zm-48.12 11.93a.668.668 0 01-.357.372l-14.65 7.4.015-5.627 3.791-1.861a1.308 1.308 0 10-1.154-2.35l-2.628 1.291.031-11.232 7.64-3.373a.67.67 0 01.888.343l6.411 14.522a.669.669 0 01.012.515zm31.126-39.364h-2.4c-.9 0-1.63-.732-1.63-1.63V13.4c0-.9.73-1.63 1.63-1.63h2.659c.756 0 1.37.614 1.37 1.37a1.309 1.309 0 002.618 0 3.993 3.993 0 00-3.988-3.988h-.15V7.56a1.309 1.309 0 00-2.618 0v1.596a4.252 4.252 0 00-4.139 4.245v1.396a4.252 4.252 0 004.248 4.247h2.4c.899 0 1.63.731 1.63 1.63v1.396c0 .9-.731 1.63-1.63 1.63h-2.66a1.373 1.373 0 01-1.37-1.371 1.309 1.309 0 00-2.618 0c0 2.2 1.79 3.988 3.989 3.988h.15v1.594a1.309 1.309 0 002.617 0v-1.596a4.251 4.251 0 004.139-4.245v-1.396a4.252 4.252 0 00-4.247-4.247z"/><path d="M47.965 0c-9.8 0-17.773 7.973-17.773 17.772 0 9.8 7.973 17.773 17.773 17.773s17.772-7.973 17.772-17.773S57.765 0 47.965 0zm0 32.928c-8.357 0-15.155-6.799-15.155-15.156 0-8.356 6.798-15.155 15.155-15.155 8.356 0 15.155 6.799 15.155 15.155 0 8.357-6.799 15.156-15.155 15.156z"/></g><defs><clipPath id="clip0"><path fill="#fff" d="M0 0h67v67H0z"/></clipPath></defs></symbol><symbol id="result" viewBox="0 0 64 54" fill="none"><path d="M14.701 36.202a1.242 1.242 0 100-2.484 1.242 1.242 0 000 2.484z" fill="#141414"/><path d="M63.568 24.589v-.129a5.22 5.22 0 00-5.214-5.213h-14.88A22.439 22.439 0 0046.48 8.36c.01-.645.005-1.311 0-2.016a164.15 164.15 0 01-.007-1.458A4.89 4.89 0 0041.604 0c-.5-.005-2.17.078-3.483 1.45a4.691 4.691 0 00-1.195 2.275c-.354 1.672-.797 3.1-1.353 4.365-2.038 4.635-4.942 8.507-8.63 11.508a28.959 28.959 0 01-3.115 2.205 3.494 3.494 0 00-3.361-2.556H1.242c-.686 0-1.242.555-1.242 1.241v32.09c0 .685.556 1.241 1.242 1.241h19.225a3.492 3.492 0 003.474-3.186 13.06 13.06 0 008.574 3.186h25.839a5.22 5.22 0 005.214-5.214 5.205 5.205 0 00-1.84-3.972 5.204 5.204 0 001.84-3.972v-.156c0-1.59-.715-3.015-1.84-3.972a5.204 5.204 0 001.84-3.972v-.027c0-1.59-.715-3.015-1.84-3.973a5.204 5.204 0 001.84-3.972zm-42.096-.738v26.48c0 .554-.451 1.005-1.005 1.005h-4.524V40.52a1.242 1.242 0 00-2.484 0v10.817H2.483V21.73h17.984c.554 0 1.005.45 1.005 1.005v1.116zm33.443 5.952h3.439a2.734 2.734 0 012.73 2.73v.028a2.734 2.734 0 01-2.73 2.73h-3.439a1.242 1.242 0 000 2.484h3.439a2.734 2.734 0 012.73 2.73v.156a2.734 2.734 0 01-2.73 2.73h-3.439a1.242 1.242 0 000 2.484h3.439a2.734 2.734 0 012.73 2.73 2.734 2.734 0 01-2.73 2.731H32.515a10.6 10.6 0 01-7.39-2.982l-1.17-1.129V24.607a31.588 31.588 0 004.554-3.083c3.998-3.252 7.14-7.436 9.337-12.435.625-1.422 1.119-3.008 1.51-4.848a2.18 2.18 0 01.558-1.074c.611-.639 1.41-.684 1.625-.684h.053a2.404 2.404 0 012.398 2.403c0 .528.004 1.016.008 1.477.005.69.01 1.342 0 1.958a20.03 20.03 0 01-3.811 11.441 1.241 1.241 0 001.007 1.968h17.16a2.734 2.734 0 012.73 2.73v.129a2.734 2.734 0 01-2.73 2.73h-3.439a1.242 1.242 0 000 2.484z" fill="#141414"/></symbol><symbol id="facebook" viewBox="0 0 8 14"><path d="M6.764.003L5.078 0C3.184 0 1.96 1.352 1.96 3.446v1.588H.265C.12 5.034 0 5.162 0 5.32v2.3c0 .158.119.286.265.286H1.96v5.808c0 .157.119.285.265.285h2.212c.146 0 .265-.128.265-.285V7.907h1.982c.146 0 .265-.128.265-.286V5.32a.297.297 0 00-.077-.202.256.256 0 00-.188-.084H4.702V3.687c0-.647.143-.975.926-.975h1.135c.147 0 .265-.129.265-.286V.289c0-.158-.118-.286-.264-.286z"/></symbol><symbol id="vkontakte" viewBox="0 0 20 10"><path d="M18.9 10.6a1.402 1.402 0 00-.065-.13c-.33-.625-.96-1.392-1.89-2.302l-.02-.02-.01-.01-.009-.011h-.01c-.422-.424-.69-.708-.801-.854-.205-.278-.25-.559-.139-.844.08-.215.376-.67.89-1.364.27-.368.485-.663.643-.885 1.141-1.597 1.636-2.617 1.484-3.061l-.059-.104c-.04-.063-.141-.12-.306-.172-.165-.052-.376-.06-.633-.026l-2.85.02a.352.352 0 00-.197.006l-.129.031-.05.026-.039.032a.45.45 0 00-.109.109.727.727 0 00-.099.182 17.37 17.37 0 01-1.058 2.343c-.244.43-.468.804-.673 1.12a5.357 5.357 0 01-.514.697c-.139.15-.264.269-.376.36-.112.09-.198.128-.257.114a6.937 6.937 0 01-.169-.042.68.68 0 01-.222-.255 1.187 1.187 0 01-.114-.406 4.726 4.726 0 01-.034-.422 9.238 9.238 0 01.004-.5c.007-.215.01-.36.01-.437 0-.264.005-.55.015-.86l.025-.733c.007-.18.01-.372.01-.573 0-.201-.012-.36-.035-.474a1.692 1.692 0 00-.103-.333.555.555 0 00-.203-.25c-.09-.059-.2-.106-.332-.14-.35-.084-.794-.129-1.335-.136-1.227-.014-2.015.07-2.365.25a1.34 1.34 0 00-.375.312c-.12.153-.136.237-.05.25.396.063.676.212.84.448l.06.125c.046.09.093.25.139.48.046.228.076.482.089.76.033.506.033.94 0 1.3-.033.362-.064.643-.094.844a1.756 1.756 0 01-.253.719.175.175 0 01-.049.052.708.708 0 01-.267.052c-.092 0-.204-.049-.336-.146a2.424 2.424 0 01-.41-.4 5.366 5.366 0 01-.48-.714 12.671 12.671 0 01-.555-1.083l-.158-.302a26.525 26.525 0 01-.405-.849c-.172-.371-.324-.73-.456-1.078A.684.684 0 003.78.983L3.73.952a1.01 1.01 0 00-.386-.156l-2.71.02c-.277 0-.465.066-.564.198l-.04.063a.352.352 0 00-.03.167c0 .076.02.17.06.28a35.19 35.19 0 001.29 2.833c.465.91.87 1.642 1.212 2.197a26 26 0 001.049 1.572c.356.493.592.81.707.948.115.139.206.243.272.312l.247.25c.159.167.391.367.698.599.307.233.646.462 1.019.688.372.225.806.409 1.3.551.495.143.977.2 1.445.172h1.138c.23-.02.405-.097.524-.229l.04-.052a.714.714 0 00.074-.193 1.11 1.11 0 00.034-.286 3.613 3.613 0 01.064-.807c.05-.24.106-.42.169-.541a1.33 1.33 0 01.38-.458.631.631 0 01.08-.037c.158-.055.344-.002.559.162.214.163.415.364.603.604s.414.508.678.807c.264.298.494.52.692.666l.198.125c.132.083.304.16.515.23.21.069.395.086.553.051l2.533-.041c.25 0 .445-.044.584-.13.138-.087.22-.183.247-.287a.848.848 0 00.005-.354 1.363 1.363 0 00-.07-.276z"/></symbol><symbol id="instagram" viewBox="0 0 12 14"><path d="M9.481 0H3.519C1.579 0 0 1.7 0 3.79v6.42C0 12.3 1.579 14 3.519 14h5.962C11.421 14 13 12.3 13 10.21V3.79C13 1.7 11.421 0 9.481 0zM6.5 10.828c-1.96 0-3.555-1.717-3.555-3.828 0-2.11 1.595-3.828 3.555-3.828 1.96 0 3.555 1.717 3.555 3.828 0 2.11-1.595 3.828-3.555 3.828zm3.64-6.753c-.58 0-1.05-.507-1.05-1.131s.47-1.131 1.05-1.131c.579 0 1.05.507 1.05 1.13 0 .625-.471 1.132-1.05 1.132z"/></symbol><symbol id="mouse" viewBox="0 0 32 52" fill="none"><rect x="1" y="1" width="30" height="50" rx="14" stroke="#141414" stroke-width="3"/><path stroke="#141414" stroke-width="3" d="M16 11.001V25"/></symbol></svg>